<svg width="40" height="41" viewBox="0 0 40 41" fill="none" xmlns="http://www.w3.org/2000/svg">
<path d="M1.33337 0C0.979742 0 0.640593 0.14048 0.390536 0.390536C0.14048 0.640592 0 0.979742 0 1.33337C0 1.68701 0.14048 2.02616 0.390536 2.27621C0.640593 2.52627 0.979742 2.66675 1.33337 2.66675H4.29347L5.36283 6.95221L9.35762 28.2462C9.41482 28.5518 9.57698 28.8277 9.81606 29.0264C10.0552 29.2251 10.3561 29.3339 10.667 29.3342H13.3337C11.9192 29.3342 10.5626 29.8962 9.56239 30.8964C8.56217 31.8966 8.00025 33.2532 8.00025 34.6677C8.00025 36.0823 8.56217 37.4389 9.56239 38.4391C10.5626 39.4393 11.9192 40.0012 13.3337 40.0012C14.7483 40.0012 16.1049 39.4393 17.1051 38.4391C18.1053 37.4389 18.6672 36.0823 18.6672 34.6677C18.6672 33.2532 18.1053 31.8966 17.1051 30.8964C16.1049 29.8962 14.7483 29.3342 13.3337 29.3342H32.001C30.5865 29.3342 29.2299 29.8962 28.2296 30.8964C27.2294 31.8966 26.6675 33.2532 26.6675 34.6677C26.6675 36.0823 27.2294 37.4389 28.2296 38.4391C29.2299 39.4393 30.5865 40.0012 32.001 40.0012C33.4155 40.0012 34.7721 39.4393 35.7723 38.4391C36.7726 37.4389 37.3345 36.0823 37.3345 34.6677C37.3345 33.2532 36.7726 31.8966 35.7723 30.8964C34.7721 29.8962 33.4155 29.3342 32.001 29.3342H34.6677C34.9786 29.3339 35.2796 29.2251 35.5187 29.0264C35.7578 28.8277 35.9199 28.5518 35.9771 28.2462L39.9772 6.91221C40.0133 6.71977 40.0065 6.52176 39.9573 6.33224C39.9082 6.14272 39.8179 5.96635 39.6929 5.81566C39.568 5.66496 39.4113 5.54363 39.2341 5.4603C39.057 5.37697 38.8636 5.33368 38.6679 5.3335H7.7069L6.62687 1.0107C6.55489 0.722113 6.3885 0.465878 6.15414 0.282741C5.91978 0.0996049 5.63092 8.21665e-05 5.3335 0H1.33337ZM11.7737 26.6675L8.27225 8.00025H37.0625L33.561 26.6675H11.7737ZM16.0005 34.6677C16.0005 35.375 15.7195 36.0533 15.2194 36.5534C14.7193 37.0535 14.041 37.3345 13.3337 37.3345C12.6265 37.3345 11.9482 37.0535 11.4481 36.5534C10.948 36.0533 10.667 35.375 10.667 34.6677C10.667 33.9605 10.948 33.2822 11.4481 32.7821C11.9482 32.2819 12.6265 32.001 13.3337 32.001C14.041 32.001 14.7193 32.2819 15.2194 32.7821C15.7195 33.2822 16.0005 33.9605 16.0005 34.6677ZM34.6677 34.6677C34.6677 35.375 34.3868 36.0533 33.8867 36.5534C33.3866 37.0535 32.7083 37.3345 32.001 37.3345C31.2937 37.3345 30.6154 37.0535 30.1153 36.5534C29.6152 36.0533 29.3342 35.375 29.3342 34.6677C29.3342 33.9605 29.6152 33.2822 30.1153 32.7821C30.6154 32.2819 31.2937 32.001 32.001 32.001C32.7083 32.001 33.3866 32.2819 33.8867 32.7821C34.3868 33.2822 34.6677 33.9605 34.6677 34.6677Z" fill="#5046AA"/>
</svg>
