<svg width="32" height="32" viewBox="0 0 32 32" fill="none" xmlns="http://www.w3.org/2000/svg">
<path d="M29.3333 26.6667V16.232C29.3334 15.506 29.1852 14.7877 28.898 14.121C28.6107 13.4543 28.1903 12.8532 27.6626 12.3547L17.832 3.064C17.3368 2.5959 16.6813 2.33508 16 2.33508C15.3186 2.33508 14.6631 2.5959 14.168 3.064L4.33729 12.3547C3.80959 12.8532 3.38923 13.4543 3.10196 14.121C2.81468 14.7877 2.66655 15.506 2.66663 16.232V26.6667C2.66663 27.3739 2.94758 28.0522 3.44767 28.5523C3.94777 29.0524 4.62605 29.3333 5.33329 29.3333H26.6666C27.3739 29.3333 28.0521 29.0524 28.5522 28.5523C29.0523 28.0522 29.3333 27.3739 29.3333 26.6667Z" stroke="#707070" stroke-width="2.4" stroke-linecap="round" stroke-linejoin="round"/>
</svg>
