<svg width="16" height="16" viewBox="0 0 16 16" fill="none" xmlns="http://www.w3.org/2000/svg">
<path d="M8.38198 14.3993L9.87732 13.3526C11.3008 12.3562 12.4027 10.9662 13.0478 9.35288C13.6929 7.73956 13.8533 5.97305 13.5093 4.26992C13.4923 4.18599 13.4563 4.10711 13.4039 4.03936C13.3515 3.97162 13.2843 3.91683 13.2073 3.87925L7.99998 1.33325L2.79332 3.87925C2.71625 3.91675 2.64886 3.9715 2.59638 4.03925C2.54389 4.107 2.50771 4.18593 2.49065 4.26992C2.14664 5.97305 2.30703 7.73956 2.95217 9.35288C3.59731 10.9662 4.69916 12.3562 6.12265 13.3526L7.61798 14.3993C7.72998 14.4776 7.86333 14.5195 7.99998 14.5195C8.13664 14.5195 8.26999 14.4776 8.38198 14.3993Z" fill="#707070" stroke="#707070" stroke-width="0.833333" stroke-linecap="round" stroke-linejoin="round"/>
</svg>
