<svg width="32" height="32" viewBox="0 0 32 32" fill="none" xmlns="http://www.w3.org/2000/svg">
<path d="M28.3201 4.93824C27.5769 4.19502 26.6945 3.60554 25.7233 3.20349C24.7522 2.80145 23.7113 2.59471 22.6602 2.59511C21.6092 2.5955 20.5685 2.80302 19.5976 3.20579C18.6268 3.60857 17.7448 4.19871 17.0021 4.94249L16.0327 5.92374L15.0713 4.94462L15.0651 4.93837C14.3222 4.19549 13.4403 3.60621 12.4697 3.20417C11.4991 2.80213 10.4588 2.5952 9.4082 2.5952C8.35762 2.5952 7.31733 2.80213 6.34672 3.20417C5.37611 3.60621 4.4942 4.19549 3.75133 4.93837L3.31945 5.37024C1.81917 6.87053 0.976318 8.90536 0.976318 11.0271C0.976318 13.1488 1.81917 15.1836 3.31945 16.6839L14.7178 28.0821L16.005 29.4307L16.0356 29.4L16.069 29.4333L17.275 28.1609L28.752 16.6837C30.25 15.1823 31.0913 13.1479 31.0913 11.0269C31.0913 8.90592 30.25 6.87154 28.752 5.37006L28.3201 4.93824ZM27.3375 15.2696L16.0356 26.5716L4.73358 15.2696C3.60837 14.1443 2.97624 12.6182 2.97624 11.0269C2.97624 9.43564 3.60837 7.90952 4.73358 6.78431L5.16552 6.35243C6.29018 5.22778 7.81538 4.59569 9.40589 4.59509C10.9964 4.59449 12.5221 5.22543 13.6476 6.34924L16.0284 8.77343L18.4205 6.35243C18.9777 5.79528 19.6391 5.35332 20.3671 5.05178C21.095 4.75025 21.8752 4.59506 22.6632 4.59506C23.4511 4.59506 24.2313 4.75025 24.9593 5.05178C25.6872 5.35332 26.3487 5.79528 26.9058 6.35243L27.3377 6.78424C28.4612 7.91039 29.0922 9.4362 29.0921 11.027C29.0921 12.6177 28.461 14.1435 27.3375 15.2696Z" fill="#707070"/>
</svg>
