<svg width="32" height="32" viewBox="0 0 32 32" fill="none" xmlns="http://www.w3.org/2000/svg">
<path d="M28.3201 4.93826C27.5769 4.19504 26.6945 3.60556 25.7234 3.20351C24.7522 2.80146 23.7114 2.59473 22.6603 2.59512C21.6092 2.59552 20.5685 2.80303 19.5977 3.20581C18.6268 3.60859 17.7449 4.19873 17.0022 4.94251L16.0328 5.92376L15.0714 4.94463L15.0651 4.93839C14.3223 4.19551 13.4404 3.60623 12.4697 3.20419C11.4991 2.80215 10.4588 2.59522 9.40826 2.59522C8.35768 2.59522 7.31739 2.80215 6.34678 3.20419C5.37617 3.60623 4.49426 4.19551 3.75139 4.93839L3.31951 5.37026C1.81923 6.87055 0.976379 8.90538 0.976379 11.0271C0.976379 13.1488 1.81923 15.1837 3.31951 16.6839L14.7178 28.0821L16.005 29.4308L16.0357 29.4L16.069 29.4333L17.275 28.1609L28.752 16.6838C30.2501 15.1823 31.0914 13.1479 31.0914 11.0269C31.0914 8.90593 30.2501 6.87155 28.752 5.37007L28.3201 4.93826ZM27.3375 15.2696L16.0357 26.5716L4.73364 15.2696C3.60843 14.1444 2.9763 12.6182 2.9763 11.0269C2.9763 9.43566 3.60843 7.90954 4.73364 6.78432L5.16558 6.35245C6.29024 5.22779 7.81544 4.5957 9.40595 4.5951C10.9965 4.59451 12.5221 5.22545 13.6476 6.34926L16.0285 8.77345L18.4206 6.35245C18.9777 5.79529 19.6392 5.35333 20.3671 5.0518C21.0951 4.75027 21.8753 4.59507 22.6632 4.59507C23.4512 4.59507 24.2314 4.75027 24.9593 5.0518C25.6873 5.35333 26.3487 5.79529 26.9059 6.35245L27.3378 6.78426C28.4613 7.9104 29.0922 9.43622 29.0922 11.027C29.0921 12.6177 28.4611 14.1435 27.3375 15.2696Z" fill="white"/>
</svg>
