<svg width="233" height="257" viewBox="0 0 233 257" fill="none" xmlns="http://www.w3.org/2000/svg">
<path d="M201.64 52.7929C187.018 48.4782 172.734 42.8717 158.924 36.0275C145.338 29.5113 132.223 21.8554 119.693 13.1268L116.144 10.7012L112.66 13.1981C100.13 21.9267 87.0151 29.5826 73.429 36.0989C59.5968 42.9223 45.2908 48.505 30.6492 52.7929L25.8098 54.1483V113.647C25.8098 209.174 113.112 244.916 113.951 245.273L116.144 246.129L118.338 245.273C119.242 245.273 206.479 209.245 206.479 113.647V54.1483L201.64 52.7929ZM193.574 113.647C193.574 192.123 129.049 225.012 116.144 230.862C103.239 225.012 38.7147 192.052 38.7147 113.647V65.2063C52.326 60.8799 65.65 55.5164 78.591 49.1544C91.5328 42.969 104.08 35.8184 116.144 27.7519C128.209 35.8184 140.756 42.969 153.698 49.1544C166.639 55.5164 179.963 60.8799 193.574 65.2063V113.647Z" fill="#707070" fill-opacity="0.15"/>
</svg>
