<svg width="120" height="24" viewBox="0 0 120 24" fill="none" xmlns="http://www.w3.org/2000/svg">
<path d="M21.2836 8.27578L15.3328 7.41093L12.6726 2.01797C12.6 1.87031 12.4805 1.75078 12.3328 1.67812C11.9625 1.49531 11.5125 1.64765 11.3273 2.01797L8.66717 7.41093L2.71639 8.27578C2.55233 8.29922 2.40233 8.37656 2.28748 8.49375C2.14864 8.63645 2.07214 8.82843 2.07477 9.02752C2.07741 9.2266 2.15897 9.41649 2.30155 9.55547L6.60701 13.7531L5.58983 19.6805C5.56597 19.8183 5.58123 19.9602 5.63387 20.0898C5.68651 20.2195 5.77442 20.3318 5.88764 20.414C6.00086 20.4962 6.13486 20.5451 6.27444 20.555C6.41401 20.565 6.55358 20.5356 6.67733 20.4703L12 17.6719L17.3226 20.4703C17.468 20.5477 17.6367 20.5734 17.7984 20.5453C18.2062 20.475 18.4805 20.0883 18.4101 19.6805L17.393 13.7531L21.6984 9.55547C21.8156 9.44062 21.893 9.29062 21.9164 9.12656C21.9797 8.7164 21.6937 8.33672 21.2836 8.27578Z" fill="#FFC120"/>
<path d="M45.2836 8.27578L39.3328 7.41093L36.6726 2.01797C36.6 1.87031 36.4805 1.75078 36.3328 1.67812C35.9625 1.49531 35.5125 1.64765 35.3273 2.01797L32.6672 7.41093L26.7164 8.27578C26.5523 8.29922 26.4023 8.37656 26.2875 8.49375C26.1486 8.63645 26.0721 8.82843 26.0748 9.02752C26.0774 9.2266 26.159 9.41649 26.3015 9.55547L30.607 13.7531L29.5898 19.6805C29.566 19.8183 29.5812 19.9602 29.6339 20.0898C29.6865 20.2195 29.7744 20.3318 29.8876 20.414C30.0009 20.4962 30.1349 20.5451 30.2744 20.555C30.414 20.565 30.5536 20.5356 30.6773 20.4703L36 17.6719L41.3226 20.4703C41.468 20.5477 41.6367 20.5734 41.7984 20.5453C42.2062 20.475 42.4805 20.0883 42.4101 19.6805L41.393 13.7531L45.6984 9.55547C45.8156 9.44062 45.893 9.29062 45.9164 9.12656C45.9797 8.7164 45.6937 8.33672 45.2836 8.27578Z" fill="#FFC120"/>
<path d="M69.2836 8.27578L63.3328 7.41093L60.6726 2.01797C60.6 1.87031 60.4805 1.75078 60.3328 1.67812C59.9625 1.49531 59.5125 1.64765 59.3273 2.01797L56.6672 7.41093L50.7164 8.27578C50.5523 8.29922 50.4023 8.37656 50.2875 8.49375C50.1486 8.63645 50.0721 8.82843 50.0748 9.02752C50.0774 9.2266 50.159 9.41649 50.3015 9.55547L54.607 13.7531L53.5898 19.6805C53.566 19.8183 53.5812 19.9602 53.6339 20.0898C53.6865 20.2195 53.7744 20.3318 53.8876 20.414C54.0009 20.4962 54.1349 20.5451 54.2744 20.555C54.414 20.565 54.5536 20.5356 54.6773 20.4703L60 17.6719L65.3226 20.4703C65.468 20.5477 65.6367 20.5734 65.7984 20.5453C66.2062 20.475 66.4805 20.0883 66.4101 19.6805L65.393 13.7531L69.6984 9.55547C69.8156 9.44062 69.893 9.29062 69.9164 9.12656C69.9797 8.7164 69.6937 8.33672 69.2836 8.27578Z" fill="#FFC120"/>
<path d="M93.2836 8.27578L87.3328 7.41093L84.6726 2.01797C84.6 1.87031 84.4805 1.75078 84.3328 1.67812C83.9625 1.49531 83.5125 1.64765 83.3273 2.01797L80.6672 7.41093L74.7164 8.27578C74.5523 8.29922 74.4023 8.37656 74.2875 8.49375C74.1486 8.63645 74.0721 8.82843 74.0748 9.02752C74.0774 9.2266 74.159 9.41649 74.3015 9.55547L78.607 13.7531L77.5898 19.6805C77.566 19.8183 77.5812 19.9602 77.6339 20.0898C77.6865 20.2195 77.7744 20.3318 77.8876 20.414C78.0009 20.4962 78.1349 20.5451 78.2744 20.555C78.414 20.565 78.5536 20.5356 78.6773 20.4703L84 17.6719L89.3226 20.4703C89.468 20.5477 89.6367 20.5734 89.7984 20.5453C90.2062 20.475 90.4805 20.0883 90.4101 19.6805L89.393 13.7531L93.6984 9.55547C93.8156 9.44062 93.893 9.29062 93.9164 9.12656C93.9797 8.7164 93.6937 8.33672 93.2836 8.27578Z" fill="#FFC120"/>
<path d="M117.284 8.27578L111.333 7.41093L108.673 2.01797C108.6 1.87031 108.48 1.75078 108.333 1.67812C107.962 1.49531 107.512 1.64765 107.327 2.01797L104.667 7.41093L98.7164 8.27578C98.5523 8.29922 98.4023 8.37656 98.2875 8.49375C98.1486 8.63645 98.0721 8.82843 98.0748 9.02752C98.0774 9.2266 98.159 9.41649 98.3015 9.55547L102.607 13.7531L101.59 19.6805C101.566 19.8183 101.581 19.9602 101.634 20.0898C101.687 20.2195 101.774 20.3318 101.888 20.414C102.001 20.4962 102.135 20.5451 102.274 20.555C102.414 20.565 102.554 20.5356 102.677 20.4703L108 17.6719L113.323 20.4703C113.468 20.5477 113.637 20.5734 113.798 20.5453C114.206 20.475 114.48 20.0883 114.41 19.6805L113.393 13.7531L117.698 9.55547C117.816 9.44062 117.893 9.29062 117.916 9.12656C117.98 8.7164 117.694 8.33672 117.284 8.27578Z" fill="#FFC120"/>
</svg>
