<svg width="32" height="32" viewBox="0 0 32 32" fill="none" xmlns="http://www.w3.org/2000/svg">
<path d="M26.3333 2.66666C27.129 2.66666 27.892 2.98273 28.4546 3.54534C29.0173 4.10795 29.3333 4.87101 29.3333 5.66666V12.9493C29.3333 14.0986 28.8767 15.2007 28.064 16.0133L16.7307 27.3507C15.9173 28.1622 14.8153 28.6181 13.6663 28.6183C12.5173 28.6186 11.4151 28.1632 10.6013 27.352L4.652 21.4133C3.83889 20.6012 3.38167 19.4994 3.38092 18.3502C3.38017 17.2009 3.83595 16.0985 4.648 15.2853L15.9813 3.93866C16.3835 3.53578 16.8611 3.21608 17.3868 2.99783C17.9125 2.77957 18.4761 2.66704 19.0453 2.66666H26.332H26.3333ZM26.3333 4.66666H19.0467C18.4267 4.66666 17.8333 4.91332 17.3947 5.35066L6.04533 16.7147C5.61562 17.1542 5.37669 17.7455 5.38043 18.3601C5.38418 18.9748 5.6303 19.5631 6.06533 19.9973L12.0133 25.936C12.4519 26.3728 13.0457 26.6181 13.6647 26.6181C14.2837 26.6181 14.8774 26.3728 15.316 25.936L26.6493 14.5987C27.087 14.1613 27.333 13.568 27.3333 12.9493V5.66666C27.3333 5.40144 27.228 5.14709 27.0404 4.95955C26.8529 4.77201 26.5985 4.66666 26.3333 4.66666ZM22.6667 7.33599C22.9293 7.33599 23.1894 7.38772 23.432 7.48823C23.6747 7.58874 23.8952 7.73606 24.0809 7.92178C24.2666 8.10749 24.4139 8.32797 24.5144 8.57062C24.6149 8.81327 24.6667 9.07335 24.6667 9.33599C24.6667 9.59863 24.6149 9.85871 24.5144 10.1014C24.4139 10.344 24.2666 10.5645 24.0809 10.7502C23.8952 10.9359 23.6747 11.0832 23.432 11.1837C23.1894 11.2843 22.9293 11.336 22.6667 11.336C22.1362 11.336 21.6275 11.1253 21.2524 10.7502C20.8774 10.3751 20.6667 9.86642 20.6667 9.33599C20.6667 8.80556 20.8774 8.29685 21.2524 7.92178C21.6275 7.5467 22.1362 7.33599 22.6667 7.33599Z" fill="white"/>
</svg>
