<svg width="32" height="32" viewBox="0 0 32 32" fill="none" xmlns="http://www.w3.org/2000/svg">
<path d="M26.3334 2.66666C27.129 2.66666 27.8921 2.98273 28.4547 3.54534C29.0173 4.10795 29.3334 4.87101 29.3334 5.66666V12.9493C29.3333 14.0986 28.8767 15.2007 28.0641 16.0133L16.7307 27.3507C15.9173 28.1622 14.8153 28.6181 13.6663 28.6183C12.5173 28.6186 11.4151 28.1632 10.6014 27.352L4.65206 21.4133C3.83895 20.6012 3.38173 19.4994 3.38098 18.3502C3.38023 17.201 3.83601 16.0985 4.64806 15.2853L15.9814 3.93866C16.3835 3.53579 16.8611 3.21609 17.3868 2.99784C17.9126 2.77958 18.4762 2.66705 19.0454 2.66666H26.3321H26.3334ZM26.3334 4.66666H19.0467C18.4267 4.66666 17.8334 4.91333 17.3947 5.35066L6.04539 16.7147C5.61568 17.1542 5.37675 17.7455 5.38049 18.3601C5.38424 18.9748 5.63036 19.5631 6.06539 19.9973L12.0134 25.936C12.452 26.3728 13.0457 26.6181 13.6647 26.6181C14.2837 26.6181 14.8775 26.3728 15.3161 25.936L26.6494 14.5987C27.087 14.1613 27.3331 13.5681 27.3334 12.9493V5.66666C27.3334 5.40145 27.228 5.14709 27.0405 4.95956C26.853 4.77202 26.5986 4.66666 26.3334 4.66666ZM22.6667 7.336C22.9294 7.336 23.1894 7.38773 23.4321 7.48824C23.6747 7.58875 23.8952 7.73607 24.0809 7.92178C24.2667 8.1075 24.414 8.32798 24.5145 8.57063C24.615 8.81328 24.6667 9.07335 24.6667 9.336C24.6667 9.59864 24.615 9.85871 24.5145 10.1014C24.414 10.344 24.2667 10.5645 24.0809 10.7502C23.8952 10.9359 23.6747 11.0832 23.4321 11.1838C23.1894 11.2843 22.9294 11.336 22.6667 11.336C22.1363 11.336 21.6276 11.1253 21.2525 10.7502C20.8774 10.3751 20.6667 9.86643 20.6667 9.336C20.6667 8.80556 20.8774 8.29686 21.2525 7.92178C21.6276 7.54671 22.1363 7.336 22.6667 7.336Z" fill="#707070"/>
</svg>
