<svg width="18" height="18" viewBox="0 0 18 18" fill="none" xmlns="http://www.w3.org/2000/svg">
<path d="M5.7825 6.96749L8.6925 9.87749L11.6025 6.96749C11.6719 6.89805 11.7544 6.84297 11.8451 6.80539C11.9358 6.76782 12.0331 6.74847 12.1313 6.74847C12.2294 6.74847 12.3267 6.76782 12.4174 6.80539C12.5081 6.84297 12.5906 6.89805 12.66 6.96749C12.7294 7.03693 12.7845 7.11936 12.8221 7.21008C12.8597 7.30081 12.879 7.39804 12.879 7.49624C12.879 7.59444 12.8597 7.69167 12.8221 7.7824C12.7845 7.87312 12.7294 7.95555 12.66 8.02499L9.2175 11.4675C9.14812 11.537 9.0657 11.5922 8.97497 11.6298C8.88424 11.6675 8.78698 11.6868 8.68875 11.6868C8.59053 11.6868 8.49326 11.6675 8.40253 11.6298C8.3118 11.5922 8.22939 11.537 8.16 11.4675L4.7175 8.02499C4.64797 7.9556 4.59281 7.87319 4.55518 7.78246C4.51754 7.69173 4.49817 7.59447 4.49817 7.49624C4.49817 7.39801 4.51754 7.30075 4.55518 7.21002C4.59281 7.11929 4.64797 7.03687 4.7175 6.96749C5.01 6.68249 5.49 6.67499 5.7825 6.96749Z" fill="white"/>
</svg>
