<svg width="32" height="32" viewBox="0 0 32 32" fill="none" xmlns="http://www.w3.org/2000/svg">
<path d="M15.7273 2C10.8209 2 6.81818 6.00273 6.81818 10.9091C6.81818 13.9764 8.38364 16.7 10.756 18.3075C6.21618 20.2547 3 24.7602 3 30H5.54545C5.54545 24.3618 10.0891 19.8182 15.7273 19.8182C21.3655 19.8182 25.9091 24.3618 25.9091 30H28.4545C28.4545 24.7602 25.2384 20.256 20.6985 18.3062C21.9094 17.4888 22.9014 16.3872 23.5879 15.0976C24.2744 13.8081 24.6344 12.37 24.6364 10.9091C24.6364 6.00273 20.6336 2 15.7273 2ZM15.7273 4.54545C19.2565 4.54545 22.0909 7.37982 22.0909 10.9091C22.0909 14.4384 19.2565 17.2727 15.7273 17.2727C12.198 17.2727 9.36364 14.4384 9.36364 10.9091C9.36364 7.37982 12.198 4.54545 15.7273 4.54545Z" fill="#707070"/>
</svg>
