<svg width="53" height="54" viewBox="0 0 53 54" fill="none" xmlns="http://www.w3.org/2000/svg">
<g clip-path="url(#clip0)">
<path d="M14.9967 11.0709L16.2795 13.1238L12.1248 15.72L10.842 13.667L14.9967 11.0709ZM20.189 19.3803L16.2795 13.1238L18.3325 11.841L22.242 18.0975L30.5514 12.9052L31.8342 14.9581L29.7812 16.2409L32.3774 20.3956L30.2756 21.709L27.6795 17.5543L23.5248 20.1504L26.1209 24.3051L24.068 25.5879L20.189 19.3803ZM14.4758 28.7273L15.7586 30.7802L11.6039 33.3764L10.3211 31.3234L14.4758 28.7273ZM36.5321 17.7995L34.4303 19.1128L31.8342 14.9581L35.9889 12.362L37.3022 14.4638L35.2493 15.7466L36.5321 17.7995ZM38.585 16.5167L37.3022 14.4638L39.404 13.1504L45.8791 23.5127L43.7773 24.8261L38.585 16.5167ZM9.50209 34.6897L11.6039 33.3764L14.2 37.5311L12.0982 38.8444L9.50209 34.6897ZM20.4076 33.6521L19.1248 31.5992L17.0719 32.882L15.7586 30.7802L17.8115 29.4974L10.0231 17.0333L12.1248 15.72L22.5094 32.3388L20.4076 33.6521ZM15.5134 39.6329L14.2 37.5311L16.2529 36.2483L17.5663 38.3501L15.5134 39.6329ZM29.2603 33.8973L26.6641 29.7426L28.717 28.4598L33.9093 36.7692L31.8564 38.052L29.2603 33.8973ZM33.415 31.3012L30.8188 27.1465L32.8717 25.8637L38.064 34.1731L36.0111 35.4559L33.415 31.3012ZM17.5663 38.3501L19.6681 37.0367L22.2642 41.1914L20.1624 42.5048L17.5663 38.3501ZM38.3398 25.3693L42.2187 31.5769L40.1658 32.8597L34.9735 24.5503L37.0264 23.2675L38.3398 25.3693ZM44.3205 30.2636L41.7244 26.1089L43.7773 24.8261L46.3734 28.9808L44.3205 30.2636ZM23.547 43.2443L22.2642 41.1914L24.3171 39.9086L25.5999 41.9615L23.547 43.2443ZM26.9133 44.0633L25.5999 41.9615L27.7017 40.6482L29.0151 42.75L26.9133 44.0633ZM44.8454 35.7805L42.2187 31.5769L44.3205 30.2636L48.23 36.5201L44.0753 39.1162L42.7925 37.0633L44.8454 35.7805ZM40.6907 38.3767L39.3774 36.2749L41.4792 34.9615L42.7925 37.0633L40.6907 38.3767ZM34.4831 42.2556L40.6907 38.3767L41.9735 40.4296L31.6112 46.9047L29.0151 42.75L31.068 41.4672L32.3813 43.569L34.4831 42.2556Z" fill="black"/>
</g>
<defs>
<clipPath id="clip0">
<rect width="36.78" height="40" fill="white" transform="translate(0 19.4904) rotate(-32)"/>
</clipPath>
</defs>
</svg>
