<svg width="36" height="40" viewBox="0 0 36 40" fill="none" xmlns="http://www.w3.org/2000/svg">
<path d="M27.2504 14.0522C27.4758 13.8058 27.6024 13.4716 27.6024 13.1231C27.6024 12.7746 27.4758 12.4404 27.2504 12.194C27.0251 11.9476 26.7195 11.8091 26.4008 11.8091C26.0821 11.8091 25.7765 11.9476 25.5512 12.194L19.2006 19.1414L16.4501 16.1309C16.3385 16.0089 16.2061 15.9121 16.0603 15.8461C15.9145 15.7801 15.7583 15.7461 15.6005 15.7461C15.4427 15.7461 15.2864 15.7801 15.1407 15.8461C14.9949 15.9121 14.8624 16.0089 14.7509 16.1309C14.6393 16.2529 14.5508 16.3978 14.4904 16.5572C14.43 16.7166 14.3989 16.8875 14.3989 17.0601C14.3989 17.2326 14.43 17.4035 14.4904 17.5629C14.5508 17.7223 14.6393 17.8672 14.7509 17.9892L18.351 21.9261C18.4624 22.0483 18.5949 22.1453 18.7407 22.2114C18.8864 22.2776 19.0427 22.3117 19.2006 22.3117C19.3584 22.3117 19.5147 22.2776 19.6605 22.2114C19.8063 22.1453 19.9387 22.0483 20.0502 21.9261L27.2504 14.0522Z" fill="#5046AA"/>
<path d="M1.20004 0C0.881767 0 0.576533 0.138261 0.351483 0.384368C0.126432 0.630474 0 0.964266 0 1.31231C0 1.66036 0.126432 1.99415 0.351483 2.24026C0.576533 2.48637 0.881767 2.62463 1.20004 2.62463H3.86412L4.82655 6.8424L8.42186 27.8C8.47334 28.1008 8.61928 28.3724 8.83446 28.5679C9.04964 28.7634 9.32053 28.8706 9.6003 28.8709H12.0004C10.7273 28.8709 9.50636 29.4239 8.60615 30.4084C7.70595 31.3928 7.20022 32.728 7.20022 34.1201C7.20022 35.5123 7.70595 36.8475 8.60615 37.8319C9.50636 38.8164 10.7273 39.3694 12.0004 39.3694C13.2734 39.3694 14.4944 38.8164 15.3946 37.8319C16.2948 36.8475 16.8005 35.5123 16.8005 34.1201C16.8005 32.728 16.2948 31.3928 15.3946 30.4084C14.4944 29.4239 13.2734 28.8709 12.0004 28.8709H28.8009C27.5278 28.8709 26.3069 29.4239 25.4067 30.4084C24.5065 31.3928 24.0007 32.728 24.0007 34.1201C24.0007 35.5123 24.5065 36.8475 25.4067 37.8319C26.3069 38.8164 27.5278 39.3694 28.8009 39.3694C30.074 39.3694 31.2949 38.8164 32.1951 37.8319C33.0953 36.8475 33.601 35.5123 33.601 34.1201C33.601 32.728 33.0953 31.3928 32.1951 30.4084C31.2949 29.4239 30.074 28.8709 28.8009 28.8709H31.201C31.4807 28.8706 31.7516 28.7634 31.9668 28.5679C32.182 28.3724 32.3279 28.1008 32.3794 27.8L35.9795 6.80303C36.0119 6.61363 36.0058 6.41875 35.9616 6.23222C35.9174 6.0457 35.8361 5.87211 35.7236 5.7238C35.6112 5.57548 35.4702 5.45607 35.3107 5.37406C35.1513 5.29204 34.9773 5.24943 34.8011 5.24925H6.93621L5.96418 0.994733C5.89941 0.710707 5.74965 0.458519 5.53873 0.278275C5.32781 0.0980316 5.06783 8.08686e-05 4.80015 0H1.20004ZM10.5963 26.2463L7.44503 7.87388H33.3562L30.2049 26.2463H10.5963ZM14.4004 34.1201C14.4004 34.8162 14.1476 35.4838 13.6975 35.976C13.2474 36.4683 12.6369 36.7448 12.0004 36.7448C11.3638 36.7448 10.7534 36.4683 10.3033 35.976C9.85316 35.4838 9.6003 34.8162 9.6003 34.1201C9.6003 33.4241 9.85316 32.7565 10.3033 32.2643C10.7534 31.772 11.3638 31.4955 12.0004 31.4955C12.6369 31.4955 13.2474 31.772 13.6975 32.2643C14.1476 32.7565 14.4004 33.4241 14.4004 34.1201ZM31.201 34.1201C31.201 34.8162 30.9481 35.4838 30.498 35.976C30.0479 36.4683 29.4374 36.7448 28.8009 36.7448C28.1644 36.7448 27.5539 36.4683 27.1038 35.976C26.6537 35.4838 26.4008 34.8162 26.4008 34.1201C26.4008 33.4241 26.6537 32.7565 27.1038 32.2643C27.5539 31.772 28.1644 31.4955 28.8009 31.4955C29.4374 31.4955 30.0479 31.772 30.498 32.2643C30.9481 32.7565 31.201 33.4241 31.201 34.1201Z" fill="#5046AA"/>
</svg>
