<svg width="32" height="32" viewBox="0 0 32 32" fill="none" xmlns="http://www.w3.org/2000/svg">
<path d="M25.34 7.7735C24.1264 6.56159 22.6834 5.60372 21.0953 4.95586C19.5073 4.308 17.806 3.98313 16.091 4.00025L15.999 4C12.5514 4.00026 9.24501 5.37002 6.80726 7.80796C4.3695 10.2459 3 13.5524 3 17V24C3.00089 24.7954 3.31725 25.5579 3.87967 26.1203C4.44208 26.6827 5.20462 26.9991 6 27H8C8.79538 26.9991 9.55792 26.6827 10.1203 26.1203C10.6827 25.5579 10.9991 24.7954 11 24V19C10.9991 18.2046 10.6827 17.4421 10.1203 16.8797C9.55792 16.3172 8.79538 16.0009 8 16H5.04437C5.29572 13.2528 6.56994 10.7002 8.61453 8.84809C10.6591 6.99601 13.3249 5.97959 16.0835 6.00025H16.0985C18.8571 5.97953 21.5229 6.99594 23.5675 8.84803C25.6121 10.7001 26.8862 13.2527 27.1375 16H24.1819C23.3865 16.0009 22.624 16.3172 22.0615 16.8797C21.4991 17.4421 21.1828 18.2046 21.1819 19V24C21.1828 24.7954 21.4991 25.5579 22.0615 26.1203C22.624 26.6827 23.3865 26.9991 24.1819 27H26.1819C26.9773 26.9991 27.7398 26.6827 28.3022 26.1203C28.8646 25.5579 29.181 24.7954 29.1819 24V17C29.1869 15.2839 28.8497 13.5841 28.19 11.9998C27.5303 10.4156 26.5615 8.97878 25.34 7.77337V7.7735ZM8 18C8.26511 18.0003 8.51928 18.1058 8.70674 18.2933C8.89421 18.4807 8.99967 18.7349 9 19V24C8.99967 24.2651 8.89421 24.5193 8.70674 24.7067C8.51928 24.8942 8.26511 24.9997 8 25H6C5.73488 24.9997 5.48072 24.8942 5.29326 24.7067C5.10579 24.5193 5.00033 24.2651 5 24V18H8ZM27.182 24C27.1817 24.2651 27.0762 24.5193 26.8887 24.7067C26.7013 24.8942 26.4471 24.9997 26.182 25H24.182C23.9169 24.9997 23.6627 24.8942 23.4753 24.7067C23.2878 24.5193 23.1823 24.2651 23.182 24V19C23.1823 18.7349 23.2878 18.4807 23.4753 18.2933C23.6627 18.1058 23.9169 18.0003 24.182 18H27.182V24Z" fill="white"/>
</svg>
