<svg width="36" height="36" viewBox="0 0 36 36" fill="none" xmlns="http://www.w3.org/2000/svg">
<path d="M12.375 30.375C12.375 30.82 12.243 31.255 11.9958 31.625C11.7486 31.995 11.3972 32.2834 10.986 32.4537C10.5749 32.624 10.1225 32.6686 9.68605 32.5818C9.24959 32.495 8.84868 32.2807 8.53401 31.966C8.21934 31.6513 8.00505 31.2504 7.91823 30.814C7.83142 30.3775 7.87597 29.9251 8.04627 29.514C8.21657 29.1028 8.50496 28.7514 8.87497 28.5042C9.24498 28.257 9.67999 28.125 10.125 28.125C10.7217 28.125 11.294 28.3621 11.716 28.784C12.1379 29.206 12.375 29.7783 12.375 30.375ZM27 28.125C26.555 28.125 26.12 28.257 25.75 28.5042C25.38 28.7514 25.0916 29.1028 24.9213 29.514C24.751 29.9251 24.7064 30.3775 24.7932 30.814C24.88 31.2504 25.0943 31.6513 25.409 31.966C25.7237 32.2807 26.1246 32.495 26.561 32.5818C26.9975 32.6686 27.4499 32.624 27.861 32.4537C28.2722 32.2834 28.6236 31.995 28.8708 31.625C29.118 31.255 29.25 30.82 29.25 30.375C29.25 29.7783 29.0129 29.206 28.591 28.784C28.169 28.3621 27.5967 28.125 27 28.125ZM32.3658 10.5272L29.9128 24.0272C29.8188 24.5458 29.5456 25.0149 29.141 25.3526C28.7364 25.6904 28.226 25.8752 27.6989 25.875H9.43847C8.9117 25.8752 8.4016 25.6904 7.9971 25.353C7.59259 25.0155 7.31936 24.5468 7.22503 24.0286L4.53656 9.28589C4.52223 9.23114 4.51203 9.17539 4.50605 9.11911L3.66384 4.5H1.125C0.826631 4.5 0.540483 4.38147 0.329505 4.1705C0.118526 3.95952 0 3.67337 0 3.375C0 3.07663 0.118526 2.79048 0.329505 2.5795C0.540483 2.36853 0.826631 2.25 1.125 2.25H3.66384C4.1906 2.24988 4.70069 2.43464 5.10519 2.77206C5.50969 3.10948 5.78293 3.57817 5.87728 4.09641L6.56662 7.875H30.1523C30.4818 7.87501 30.8073 7.9474 31.1058 8.08706C31.4042 8.22671 31.6684 8.43023 31.8796 8.68322C32.0907 8.9362 32.2437 9.23249 32.3278 9.55112C32.4118 9.86975 32.4249 10.203 32.366 10.5272H32.3658ZM30.1521 10.125H6.97669L9.43847 23.625H27.699L30.1521 10.125Z" fill="white"/>
</svg>
