<svg width="32" height="32" viewBox="0 0 32 32" fill="none" xmlns="http://www.w3.org/2000/svg">
<path d="M2.29312 23.7071C2.20026 23.6143 2.1266 23.504 2.07634 23.3827C2.02608 23.2614 2.00021 23.1313 2.00021 23C2.00021 22.8687 2.02608 22.7386 2.07634 22.6173C2.1266 22.496 2.20026 22.3857 2.29312 22.2929L11.2931 13.2929C11.4807 13.1053 11.7351 13 12.0003 13C12.2656 13 12.5199 13.1053 12.7075 13.2929L17.0002 17.5858L26.586 8H21.0002C20.735 8 20.4807 7.89464 20.2931 7.70711C20.1056 7.51957 20.0002 7.26522 20.0002 7C20.0002 6.73478 20.1056 6.48043 20.2931 6.29289C20.4807 6.10536 20.735 6 21.0002 6H29.0002C29.004 6 29.0077 6.0005 29.0114 6.0005C29.0405 6.00088 29.0696 6.00213 29.0986 6.005C29.1147 6.0065 29.1304 6.0095 29.1462 6.01188C29.1626 6.01425 29.1791 6.01612 29.1955 6.01937C29.213 6.02287 29.23 6.02763 29.2472 6.03188C29.2616 6.03563 29.276 6.03875 29.2903 6.04313C29.3071 6.04813 29.3232 6.05437 29.3396 6.06025C29.3541 6.0655 29.3685 6.07025 29.3827 6.07613C29.3979 6.08238 29.4124 6.08975 29.4271 6.09662C29.442 6.10375 29.457 6.11037 29.4716 6.11812C29.4854 6.12562 29.4988 6.134 29.5123 6.14213C29.5268 6.15088 29.5415 6.159 29.5555 6.16838C29.5702 6.17825 29.5839 6.18913 29.598 6.19963C29.6101 6.20863 29.6225 6.21712 29.6343 6.22675C29.6575 6.24587 29.6797 6.26613 29.7011 6.28725C29.7032 6.28925 29.7055 6.291 29.7074 6.29287C29.71 6.29537 29.7121 6.29825 29.7146 6.30088C29.7351 6.32175 29.7549 6.34337 29.7734 6.36587C29.7839 6.3785 29.7929 6.39175 29.8024 6.40462C29.8124 6.41787 29.8225 6.43087 29.8318 6.4445C29.8418 6.4595 29.8505 6.47525 29.8598 6.49075C29.8673 6.50325 29.8751 6.51538 29.882 6.52825C29.8905 6.544 29.8976 6.56013 29.9051 6.57625C29.9114 6.58988 29.9182 6.60313 29.924 6.617C29.9304 6.63263 29.9356 6.6485 29.9414 6.66425C29.9466 6.67925 29.9525 6.694 29.9571 6.70925C29.9619 6.72525 29.9655 6.7415 29.9695 6.75775C29.9734 6.77325 29.9778 6.7885 29.9809 6.80425C29.9846 6.82312 29.9869 6.84212 29.9896 6.86112C29.9914 6.8745 29.994 6.8875 29.9953 6.901C29.9986 6.93417 30.0002 6.96738 30.0002 7.00063V15C30.0002 15.2652 29.8949 15.5196 29.7074 15.7071C29.5198 15.8946 29.2655 16 29.0002 16C28.735 16 28.4807 15.8946 28.2931 15.7071C28.1056 15.5196 28.0002 15.2652 28.0002 15V9.41425L17.7075 19.7071C17.5199 19.8947 17.2656 20 17.0003 20C16.7351 20 16.4807 19.8947 16.2931 19.7071L12.0002 15.4143L3.7075 23.7071C3.61464 23.8 3.50439 23.8737 3.38305 23.924C3.26171 23.9742 3.13165 24.0001 3.00031 24.0001C2.86897 24.0001 2.73892 23.9742 2.61758 23.924C2.49624 23.8737 2.38599 23.8 2.29312 23.7071Z" fill="white"/>
</svg>
