<svg width="1190" height="100" viewBox="0 0 1190 100" fill="none" xmlns="http://www.w3.org/2000/svg">
<path d="M134.792 21.2009C134.792 19.8569 135.056 18.6649 135.584 17.6249C136.128 16.5849 136.864 15.7849 137.792 15.2249C138.72 14.6649 139.752 14.3849 140.888 14.3849C141.752 14.3849 142.576 14.5769 143.36 14.9609C144.144 15.3289 144.768 15.8249 145.232 16.4489V10.1369H148.64V27.8969H145.232V25.9289C144.816 26.5849 144.232 27.1129 143.48 27.5129C142.728 27.9129 141.856 28.1129 140.864 28.1129C139.744 28.1129 138.72 27.8249 137.792 27.2489C136.864 26.6729 136.128 25.8649 135.584 24.8249C135.056 23.7689 134.792 22.5609 134.792 21.2009ZM145.256 21.2489C145.256 20.4329 145.096 19.7369 144.776 19.1609C144.456 18.5689 144.024 18.1209 143.48 17.8169C142.936 17.4969 142.352 17.3369 141.728 17.3369C141.104 17.3369 140.528 17.4889 140 17.7929C139.472 18.0969 139.04 18.5449 138.704 19.1369C138.384 19.7129 138.224 20.4009 138.224 21.2009C138.224 22.0009 138.384 22.7049 138.704 23.3129C139.04 23.9049 139.472 24.3609 140 24.6809C140.544 25.0009 141.12 25.1609 141.728 25.1609C142.352 25.1609 142.936 25.0089 143.48 24.7049C144.024 24.3849 144.456 23.9369 144.776 23.3609C145.096 22.7689 145.256 22.0649 145.256 21.2489ZM164.282 20.9609C164.282 21.4409 164.25 21.8729 164.186 22.2569H154.466C154.546 23.2169 154.882 23.9689 155.474 24.5129C156.066 25.0569 156.794 25.3289 157.658 25.3289C158.906 25.3289 159.794 24.7929 160.322 23.7209H163.946C163.562 25.0009 162.826 26.0569 161.738 26.8889C160.65 27.7049 159.314 28.1129 157.73 28.1129C156.45 28.1129 155.298 27.8329 154.274 27.2729C153.266 26.6969 152.474 25.8889 151.898 24.8489C151.338 23.8089 151.058 22.6089 151.058 21.2489C151.058 19.8729 151.338 18.6649 151.898 17.6249C152.458 16.5849 153.242 15.7849 154.25 15.2249C155.258 14.6649 156.418 14.3849 157.73 14.3849C158.994 14.3849 160.122 14.6569 161.114 15.2009C162.122 15.7449 162.898 16.5209 163.442 17.5289C164.002 18.5209 164.282 19.6649 164.282 20.9609ZM160.802 20.0009C160.786 19.1369 160.474 18.4489 159.866 17.9369C159.258 17.4089 158.514 17.1449 157.634 17.1449C156.802 17.1449 156.098 17.4009 155.522 17.9129C154.962 18.4089 154.618 19.1049 154.49 20.0009H160.802ZM171.589 21.2009C171.589 19.8569 171.853 18.6649 172.381 17.6249C172.925 16.5849 173.661 15.7849 174.589 15.2249C175.517 14.6649 176.549 14.3849 177.685 14.3849C178.549 14.3849 179.373 14.5769 180.157 14.9609C180.941 15.3289 181.565 15.8249 182.029 16.4489V10.1369H185.437V27.8969H182.029V25.9289C181.613 26.5849 181.029 27.1129 180.277 27.5129C179.525 27.9129 178.653 28.1129 177.661 28.1129C176.541 28.1129 175.517 27.8249 174.589 27.2489C173.661 26.6729 172.925 25.8649 172.381 24.8249C171.853 23.7689 171.589 22.5609 171.589 21.2009ZM182.053 21.2489C182.053 20.4329 181.893 19.7369 181.573 19.1609C181.253 18.5689 180.821 18.1209 180.277 17.8169C179.733 17.4969 179.149 17.3369 178.525 17.3369C177.901 17.3369 177.325 17.4889 176.797 17.7929C176.269 18.0969 175.837 18.5449 175.501 19.1369C175.181 19.7129 175.021 20.4009 175.021 21.2009C175.021 22.0009 175.181 22.7049 175.501 23.3129C175.837 23.9049 176.269 24.3609 176.797 24.6809C177.341 25.0009 177.917 25.1609 178.525 25.1609C179.149 25.1609 179.733 25.0089 180.277 24.7049C180.821 24.3849 181.253 23.9369 181.573 23.3609C181.893 22.7689 182.053 22.0649 182.053 21.2489ZM201.079 20.9609C201.079 21.4409 201.047 21.8729 200.983 22.2569H191.263C191.343 23.2169 191.679 23.9689 192.271 24.5129C192.863 25.0569 193.591 25.3289 194.455 25.3289C195.703 25.3289 196.591 24.7929 197.119 23.7209H200.743C200.359 25.0009 199.623 26.0569 198.535 26.8889C197.447 27.7049 196.111 28.1129 194.527 28.1129C193.247 28.1129 192.095 27.8329 191.071 27.2729C190.063 26.6969 189.271 25.8889 188.695 24.8489C188.135 23.8089 187.854 22.6089 187.854 21.2489C187.854 19.8729 188.135 18.6649 188.695 17.6249C189.255 16.5849 190.039 15.7849 191.047 15.2249C192.055 14.6649 193.215 14.3849 194.527 14.3849C195.791 14.3849 196.919 14.6569 197.911 15.2009C198.919 15.7449 199.695 16.5209 200.239 17.5289C200.799 18.5209 201.079 19.6649 201.079 20.9609ZM197.599 20.0009C197.583 19.1369 197.271 18.4489 196.663 17.9369C196.055 17.4089 195.311 17.1449 194.431 17.1449C193.599 17.1449 192.895 17.4009 192.319 17.9129C191.759 18.4089 191.415 19.1049 191.287 20.0009H197.599ZM208.619 28.1129C207.531 28.1129 206.555 27.9209 205.691 27.5369C204.827 27.1369 204.139 26.6009 203.627 25.9289C203.131 25.2569 202.859 24.5129 202.811 23.6969H206.195C206.259 24.2089 206.507 24.6329 206.939 24.9689C207.387 25.3049 207.939 25.4729 208.595 25.4729C209.235 25.4729 209.731 25.3449 210.083 25.0889C210.451 24.8329 210.635 24.5049 210.635 24.1049C210.635 23.6729 210.411 23.3529 209.963 23.1449C209.531 22.9209 208.835 22.6809 207.875 22.4249C206.883 22.1849 206.067 21.9369 205.427 21.6809C204.803 21.4249 204.259 21.0329 203.795 20.5049C203.347 19.9769 203.123 19.2649 203.123 18.3689C203.123 17.6329 203.331 16.9609 203.747 16.3529C204.179 15.7449 204.787 15.2649 205.571 14.9129C206.371 14.5609 207.307 14.3849 208.379 14.3849C209.963 14.3849 211.227 14.7849 212.171 15.5849C213.115 16.3689 213.635 17.4329 213.731 18.7769H210.515C210.467 18.2489 210.243 17.8329 209.843 17.5289C209.459 17.2089 208.939 17.0489 208.283 17.0489C207.675 17.0489 207.203 17.1609 206.867 17.3849C206.547 17.6089 206.387 17.9209 206.387 18.3209C206.387 18.7689 206.611 19.1129 207.059 19.3529C207.507 19.5769 208.203 19.8089 209.147 20.0489C210.107 20.2889 210.899 20.5369 211.523 20.7929C212.147 21.0489 212.683 21.4489 213.131 21.9929C213.595 22.5209 213.835 23.2249 213.851 24.1049C213.851 24.8729 213.635 25.5609 213.203 26.1689C212.787 26.7769 212.179 27.2569 211.379 27.6089C210.595 27.9449 209.675 28.1129 208.619 28.1129ZM215.745 21.2489C215.745 19.8729 216.025 18.6729 216.585 17.6489C217.145 16.6089 217.921 15.8089 218.913 15.2489C219.905 14.6729 221.041 14.3849 222.321 14.3849C223.969 14.3849 225.329 14.8009 226.401 15.6329C227.489 16.4489 228.217 17.6009 228.585 19.0889H224.961C224.769 18.5129 224.441 18.0649 223.977 17.7449C223.529 17.4089 222.969 17.2409 222.297 17.2409C221.337 17.2409 220.577 17.5929 220.017 18.2969C219.457 18.9849 219.177 19.9689 219.177 21.2489C219.177 22.5129 219.457 23.4969 220.017 24.2009C220.577 24.8889 221.337 25.2329 222.297 25.2329C223.657 25.2329 224.545 24.6249 224.961 23.4089H228.585C228.217 24.8489 227.489 25.9929 226.401 26.8409C225.313 27.6889 223.953 28.1129 222.321 28.1129C221.041 28.1129 219.905 27.8329 218.913 27.2729C217.921 26.6969 217.145 25.8969 216.585 24.8729C216.025 23.8329 215.745 22.6249 215.745 21.2489ZM243.599 14.6009V27.8969H240.215V26.2169C239.783 26.7929 239.215 27.2489 238.511 27.5849C237.823 27.9049 237.071 28.0649 236.255 28.0649C235.215 28.0649 234.295 27.8489 233.495 27.4169C232.695 26.9689 232.063 26.3209 231.599 25.4729C231.151 24.6089 230.927 23.5849 230.927 22.4009V14.6009H234.287V21.9209C234.287 22.9769 234.551 23.7929 235.079 24.3689C235.607 24.9289 236.327 25.2089 237.239 25.2089C238.167 25.2089 238.895 24.9289 239.423 24.3689C239.951 23.7929 240.215 22.9769 240.215 21.9209V14.6009H243.599ZM259.274 20.9609C259.274 21.4409 259.242 21.8729 259.178 22.2569H249.458C249.538 23.2169 249.874 23.9689 250.466 24.5129C251.058 25.0569 251.786 25.3289 252.65 25.3289C253.898 25.3289 254.786 24.7929 255.314 23.7209H258.938C258.554 25.0009 257.818 26.0569 256.73 26.8889C255.642 27.7049 254.306 28.1129 252.722 28.1129C251.442 28.1129 250.29 27.8329 249.266 27.2729C248.258 26.6969 247.466 25.8889 246.89 24.8489C246.33 23.8089 246.05 22.6089 246.05 21.2489C246.05 19.8729 246.33 18.6649 246.89 17.6249C247.45 16.5849 248.234 15.7849 249.242 15.2249C250.25 14.6649 251.41 14.3849 252.722 14.3849C253.986 14.3849 255.114 14.6569 256.106 15.2009C257.114 15.7449 257.89 16.5209 258.434 17.5289C258.994 18.5209 259.274 19.6649 259.274 20.9609ZM255.794 20.0009C255.778 19.1369 255.466 18.4489 254.858 17.9369C254.25 17.4089 253.506 17.1449 252.626 17.1449C251.794 17.1449 251.09 17.4009 250.514 17.9129C249.954 18.4089 249.61 19.1049 249.482 20.0009H255.794ZM269.094 14.4089C270.678 14.4089 271.958 14.9129 272.934 15.9209C273.91 16.9129 274.398 18.3049 274.398 20.0969V27.8969H271.038V20.5529C271.038 19.4969 270.774 18.6889 270.246 18.1289C269.718 17.5529 268.998 17.2649 268.086 17.2649C267.158 17.2649 266.422 17.5529 265.878 18.1289C265.35 18.6889 265.086 19.4969 265.086 20.5529V27.8969H261.726V14.6009H265.086V16.2569C265.534 15.6809 266.102 15.2329 266.79 14.9129C267.494 14.5769 268.262 14.4089 269.094 14.4089ZM281.506 17.3609V23.7929C281.506 24.2409 281.61 24.5689 281.818 24.7769C282.042 24.9689 282.41 25.0649 282.922 25.0649H284.482V27.8969H282.37C279.538 27.8969 278.122 26.5209 278.122 23.7689V17.3609H276.538V14.6009H278.122V11.3129H281.506V14.6009H284.482V17.3609H281.506ZM292.802 28.1129C291.522 28.1129 290.37 27.8329 289.346 27.2729C288.322 26.6969 287.514 25.8889 286.922 24.8489C286.346 23.8089 286.058 22.6089 286.058 21.2489C286.058 19.8889 286.354 18.6889 286.946 17.6489C287.554 16.6089 288.378 15.8089 289.418 15.2489C290.458 14.6729 291.618 14.3849 292.898 14.3849C294.178 14.3849 295.338 14.6729 296.378 15.2489C297.418 15.8089 298.234 16.6089 298.826 17.6489C299.434 18.6889 299.738 19.8889 299.738 21.2489C299.738 22.6089 299.426 23.8089 298.802 24.8489C298.194 25.8889 297.362 26.6969 296.306 27.2729C295.266 27.8329 294.098 28.1129 292.802 28.1129ZM292.802 25.1849C293.41 25.1849 293.978 25.0409 294.506 24.7529C295.05 24.4489 295.482 24.0009 295.802 23.4089C296.122 22.8169 296.282 22.0969 296.282 21.2489C296.282 19.9849 295.946 19.0169 295.274 18.3449C294.618 17.6569 293.81 17.3129 292.85 17.3129C291.89 17.3129 291.082 17.6569 290.426 18.3449C289.786 19.0169 289.466 19.9849 289.466 21.2489C289.466 22.5129 289.778 23.4889 290.402 24.1769C291.042 24.8489 291.842 25.1849 292.802 25.1849ZM148.016 44.9609C148.016 45.4409 147.984 45.8729 147.92 46.2569H138.2C138.28 47.2169 138.616 47.9689 139.208 48.5129C139.8 49.0569 140.528 49.3289 141.392 49.3289C142.64 49.3289 143.528 48.7929 144.056 47.7209H147.68C147.296 49.0009 146.56 50.0569 145.472 50.8889C144.384 51.7049 143.048 52.1129 141.464 52.1129C140.184 52.1129 139.032 51.8329 138.008 51.2729C137 50.6969 136.208 49.8889 135.632 48.8489C135.072 47.8089 134.792 46.6089 134.792 45.2489C134.792 43.8729 135.072 42.6649 135.632 41.6249C136.192 40.5849 136.976 39.7849 137.984 39.2249C138.992 38.6649 140.152 38.3849 141.464 38.3849C142.728 38.3849 143.856 38.6569 144.848 39.2009C145.856 39.7449 146.632 40.5209 147.176 41.5289C147.736 42.5209 148.016 43.6649 148.016 44.9609ZM144.536 44.0009C144.52 43.1369 144.208 42.4489 143.6 41.9369C142.992 41.4089 142.248 41.1449 141.368 41.1449C140.536 41.1449 139.832 41.4009 139.256 41.9129C138.696 42.4089 138.352 43.1049 138.224 44.0009H144.536ZM157.837 38.4089C159.421 38.4089 160.701 38.9129 161.677 39.9209C162.653 40.9129 163.141 42.3049 163.141 44.0969V51.8969H159.781V44.5529C159.781 43.4969 159.517 42.6889 158.989 42.1289C158.461 41.5529 157.741 41.2649 156.829 41.2649C155.901 41.2649 155.165 41.5529 154.621 42.1289C154.093 42.6889 153.829 43.4969 153.829 44.5529V51.8969H150.469V38.6009H153.829V40.2569C154.277 39.6809 154.845 39.2329 155.533 38.9129C156.237 38.5769 157.005 38.4089 157.837 38.4089ZM175.966 41.3609V47.7929C175.966 48.2409 176.07 48.5689 176.278 48.7769C176.502 48.9689 176.87 49.0649 177.382 49.0649H178.942V51.8969H176.83C173.998 51.8969 172.582 50.5209 172.582 47.7689V41.3609H170.998V38.6009H172.582V35.3129H175.966V38.6009H178.942V41.3609H175.966ZM193.911 38.6009V51.8969H190.527V50.2169C190.095 50.7929 189.527 51.2489 188.823 51.5849C188.135 51.9049 187.383 52.0649 186.567 52.0649C185.527 52.0649 184.607 51.8489 183.807 51.4169C183.007 50.9689 182.375 50.3209 181.911 49.4729C181.463 48.6089 181.239 47.5849 181.239 46.4009V38.6009H184.599V45.9209C184.599 46.9769 184.863 47.7929 185.391 48.3689C185.919 48.9289 186.639 49.2089 187.551 49.2089C188.479 49.2089 189.207 48.9289 189.735 48.3689C190.263 47.7929 190.527 46.9769 190.527 45.9209V38.6009H193.911ZM206.305 40.5209C206.737 39.9129 207.329 39.4089 208.081 39.0089C208.849 38.5929 209.721 38.3849 210.697 38.3849C211.833 38.3849 212.857 38.6649 213.769 39.2249C214.697 39.7849 215.425 40.5849 215.953 41.6249C216.497 42.6489 216.769 43.8409 216.769 45.2009C216.769 46.5609 216.497 47.7689 215.953 48.8249C215.425 49.8649 214.697 50.6729 213.769 51.2489C212.857 51.8249 211.833 52.1129 210.697 52.1129C209.721 52.1129 208.857 51.9129 208.105 51.5129C207.369 51.1129 206.769 50.6089 206.305 50.0009V58.2329H202.945V38.6009H206.305V40.5209ZM213.337 45.2009C213.337 44.4009 213.169 43.7129 212.833 43.1369C212.513 42.5449 212.081 42.0969 211.537 41.7929C211.009 41.4889 210.433 41.3369 209.809 41.3369C209.201 41.3369 208.625 41.4969 208.081 41.8169C207.553 42.1209 207.121 42.5689 206.785 43.1609C206.465 43.7529 206.305 44.4489 206.305 45.2489C206.305 46.0489 206.465 46.7449 206.785 47.3369C207.121 47.9289 207.553 48.3849 208.081 48.7049C208.625 49.0089 209.201 49.1609 209.809 49.1609C210.433 49.1609 211.009 49.0009 211.537 48.6809C212.081 48.3609 212.513 47.9049 212.833 47.3129C213.169 46.7209 213.337 46.0169 213.337 45.2009ZM222.571 40.6649C223.003 39.9609 223.563 39.4089 224.251 39.0089C224.955 38.6089 225.755 38.4089 226.651 38.4089V41.9369H225.763C224.707 41.9369 223.907 42.1849 223.363 42.6809C222.835 43.1769 222.571 44.0409 222.571 45.2729V51.8969H219.211V38.6009H222.571V40.6649ZM230.618 37.0169C230.026 37.0169 229.53 36.8329 229.13 36.4649C228.746 36.0809 228.554 35.6089 228.554 35.0489C228.554 34.4889 228.746 34.0249 229.13 33.6569C229.53 33.2729 230.026 33.0809 230.618 33.0809C231.21 33.0809 231.698 33.2729 232.082 33.6569C232.482 34.0249 232.682 34.4889 232.682 35.0489C232.682 35.6089 232.482 36.0809 232.082 36.4649C231.698 36.8329 231.21 37.0169 230.618 37.0169ZM232.274 38.6009V51.8969H228.914V38.6009H232.274ZM252.106 38.4089C253.738 38.4089 255.05 38.9129 256.042 39.9209C257.05 40.9129 257.554 42.3049 257.554 44.0969V51.8969H254.194V44.5529C254.194 43.5129 253.93 42.7209 253.402 42.1769C252.874 41.6169 252.154 41.3369 251.242 41.3369C250.33 41.3369 249.602 41.6169 249.058 42.1769C248.53 42.7209 248.266 43.5129 248.266 44.5529V51.8969H244.906V44.5529C244.906 43.5129 244.642 42.7209 244.114 42.1769C243.586 41.6169 242.866 41.3369 241.954 41.3369C241.026 41.3369 240.29 41.6169 239.746 42.1769C239.218 42.7209 238.954 43.5129 238.954 44.5529V51.8969H235.594V38.6009H238.954V40.2089C239.386 39.6489 239.938 39.2089 240.61 38.8889C241.298 38.5689 242.05 38.4089 242.866 38.4089C243.906 38.4089 244.834 38.6329 245.65 39.0809C246.466 39.5129 247.098 40.1369 247.546 40.9529C247.978 40.1849 248.602 39.5689 249.418 39.1049C250.25 38.6409 251.146 38.4089 252.106 38.4089ZM273.102 44.9609C273.102 45.4409 273.07 45.8729 273.006 46.2569H263.286C263.366 47.2169 263.702 47.9689 264.294 48.5129C264.886 49.0569 265.614 49.3289 266.478 49.3289C267.726 49.3289 268.614 48.7929 269.142 47.7209H272.766C272.382 49.0009 271.646 50.0569 270.558 50.8889C269.47 51.7049 268.134 52.1129 266.55 52.1129C265.27 52.1129 264.118 51.8329 263.094 51.2729C262.086 50.6969 261.294 49.8889 260.718 48.8489C260.158 47.8089 259.878 46.6089 259.878 45.2489C259.878 43.8729 260.158 42.6649 260.718 41.6249C261.278 40.5849 262.062 39.7849 263.07 39.2249C264.078 38.6649 265.238 38.3849 266.55 38.3849C267.814 38.3849 268.942 38.6569 269.934 39.2009C270.942 39.7449 271.718 40.5209 272.262 41.5289C272.822 42.5209 273.102 43.6649 273.102 44.9609ZM269.622 44.0009C269.606 43.1369 269.294 42.4489 268.686 41.9369C268.078 41.4089 267.334 41.1449 266.454 41.1449C265.622 41.1449 264.918 41.4009 264.342 41.9129C263.782 42.4089 263.438 43.1049 263.31 44.0009H269.622ZM278.914 40.6649C279.346 39.9609 279.906 39.4089 280.594 39.0089C281.298 38.6089 282.098 38.4089 282.994 38.4089V41.9369H282.106C281.05 41.9369 280.25 42.1849 279.706 42.6809C279.178 43.1769 278.914 44.0409 278.914 45.2729V51.8969H275.554V38.6009H278.914V40.6649ZM294.336 40.5209C294.768 39.9129 295.36 39.4089 296.112 39.0089C296.88 38.5929 297.752 38.3849 298.728 38.3849C299.864 38.3849 300.888 38.6649 301.8 39.2249C302.728 39.7849 303.456 40.5849 303.984 41.6249C304.528 42.6489 304.8 43.8409 304.8 45.2009C304.8 46.5609 304.528 47.7689 303.984 48.8249C303.456 49.8649 302.728 50.6729 301.8 51.2489C300.888 51.8249 299.864 52.1129 298.728 52.1129C297.752 52.1129 296.888 51.9129 296.136 51.5129C295.4 51.1129 294.8 50.6089 294.336 50.0009V58.2329H290.976V38.6009H294.336V40.5209ZM301.368 45.2009C301.368 44.4009 301.2 43.7129 300.864 43.1369C300.544 42.5449 300.112 42.0969 299.568 41.7929C299.04 41.4889 298.464 41.3369 297.84 41.3369C297.232 41.3369 296.656 41.4969 296.112 41.8169C295.584 42.1209 295.152 42.5689 294.816 43.1609C294.496 43.7529 294.336 44.4489 294.336 45.2489C294.336 46.0489 294.496 46.7449 294.816 47.3369C295.152 47.9289 295.584 48.3849 296.112 48.7049C296.656 49.0089 297.232 49.1609 297.84 49.1609C298.464 49.1609 299.04 49.0009 299.568 48.6809C300.112 48.3609 300.544 47.9049 300.864 47.3129C301.2 46.7209 301.368 46.0169 301.368 45.2009ZM319.602 44.9609C319.602 45.4409 319.57 45.8729 319.506 46.2569H309.786C309.866 47.2169 310.202 47.9689 310.794 48.5129C311.386 49.0569 312.114 49.3289 312.978 49.3289C314.226 49.3289 315.114 48.7929 315.642 47.7209H319.266C318.882 49.0009 318.146 50.0569 317.058 50.8889C315.97 51.7049 314.634 52.1129 313.05 52.1129C311.77 52.1129 310.618 51.8329 309.594 51.2729C308.586 50.6969 307.794 49.8889 307.218 48.8489C306.658 47.8089 306.378 46.6089 306.378 45.2489C306.378 43.8729 306.658 42.6649 307.218 41.6249C307.778 40.5849 308.562 39.7849 309.57 39.2249C310.578 38.6649 311.738 38.3849 313.05 38.3849C314.314 38.3849 315.442 38.6569 316.434 39.2009C317.442 39.7449 318.218 40.5209 318.762 41.5289C319.322 42.5209 319.602 43.6649 319.602 44.9609ZM316.122 44.0009C316.106 43.1369 315.794 42.4489 315.186 41.9369C314.578 41.4089 313.834 41.1449 312.954 41.1449C312.122 41.1449 311.418 41.4009 310.842 41.9129C310.282 42.4089 309.938 43.1049 309.81 44.0009H316.122ZM321.19 45.2009C321.19 43.8569 321.454 42.6649 321.982 41.6249C322.526 40.5849 323.262 39.7849 324.19 39.2249C325.118 38.6649 326.15 38.3849 327.286 38.3849C328.15 38.3849 328.974 38.5769 329.758 38.9609C330.542 39.3289 331.166 39.8249 331.63 40.4489V34.1369H335.038V51.8969H331.63V49.9289C331.214 50.5849 330.63 51.1129 329.878 51.5129C329.126 51.9129 328.254 52.1129 327.262 52.1129C326.142 52.1129 325.118 51.8249 324.19 51.2489C323.262 50.6729 322.526 49.8649 321.982 48.8249C321.454 47.7689 321.19 46.5609 321.19 45.2009ZM331.654 45.2489C331.654 44.4329 331.494 43.7369 331.174 43.1609C330.854 42.5689 330.422 42.1209 329.878 41.8169C329.334 41.4969 328.75 41.3369 328.126 41.3369C327.502 41.3369 326.926 41.4889 326.398 41.7929C325.87 42.0969 325.438 42.5449 325.102 43.1369C324.782 43.7129 324.622 44.4009 324.622 45.2009C324.622 46.0009 324.782 46.7049 325.102 47.3129C325.438 47.9049 325.87 48.3609 326.398 48.6809C326.942 49.0009 327.518 49.1609 328.126 49.1609C328.75 49.1609 329.334 49.0089 329.878 48.7049C330.422 48.3849 330.854 47.9369 331.174 47.3609C331.494 46.7689 331.654 46.0649 331.654 45.2489ZM340.024 37.0169C339.432 37.0169 338.936 36.8329 338.536 36.4649C338.152 36.0809 337.96 35.6089 337.96 35.0489C337.96 34.4889 338.152 34.0249 338.536 33.6569C338.936 33.2729 339.432 33.0809 340.024 33.0809C340.616 33.0809 341.104 33.2729 341.488 33.6569C341.888 34.0249 342.088 34.4889 342.088 35.0489C342.088 35.6089 341.888 36.0809 341.488 36.4649C341.104 36.8329 340.616 37.0169 340.024 37.0169ZM341.68 38.6009V51.8969H338.32V38.6009H341.68ZM344.136 45.2009C344.136 43.8569 344.4 42.6649 344.928 41.6249C345.472 40.5849 346.208 39.7849 347.136 39.2249C348.064 38.6649 349.096 38.3849 350.232 38.3849C351.096 38.3849 351.92 38.5769 352.704 38.9609C353.488 39.3289 354.112 39.8249 354.576 40.4489V34.1369H357.984V51.8969H354.576V49.9289C354.16 50.5849 353.576 51.1129 352.824 51.5129C352.072 51.9129 351.2 52.1129 350.208 52.1129C349.088 52.1129 348.064 51.8249 347.136 51.2489C346.208 50.6729 345.472 49.8649 344.928 48.8249C344.4 47.7689 344.136 46.5609 344.136 45.2009ZM354.6 45.2489C354.6 44.4329 354.44 43.7369 354.12 43.1609C353.8 42.5689 353.368 42.1209 352.824 41.8169C352.28 41.4969 351.696 41.3369 351.072 41.3369C350.448 41.3369 349.872 41.4889 349.344 41.7929C348.816 42.0969 348.384 42.5449 348.048 43.1369C347.728 43.7129 347.568 44.4009 347.568 45.2009C347.568 46.0009 347.728 46.7049 348.048 47.3129C348.384 47.9049 348.816 48.3609 349.344 48.6809C349.888 49.0009 350.464 49.1609 351.072 49.1609C351.696 49.1609 352.28 49.0089 352.824 48.7049C353.368 48.3849 353.8 47.9369 354.12 47.3609C354.44 46.7689 354.6 46.0649 354.6 45.2489ZM367.169 52.1129C365.889 52.1129 364.737 51.8329 363.713 51.2729C362.689 50.6969 361.881 49.8889 361.289 48.8489C360.713 47.8089 360.425 46.6089 360.425 45.2489C360.425 43.8889 360.721 42.6889 361.313 41.6489C361.921 40.6089 362.745 39.8089 363.785 39.2489C364.825 38.6729 365.985 38.3849 367.265 38.3849C368.545 38.3849 369.705 38.6729 370.745 39.2489C371.785 39.8089 372.601 40.6089 373.193 41.6489C373.801 42.6889 374.105 43.8889 374.105 45.2489C374.105 46.6089 373.793 47.8089 373.169 48.8489C372.561 49.8889 371.729 50.6969 370.673 51.2729C369.633 51.8329 368.465 52.1129 367.169 52.1129ZM367.169 49.1849C367.777 49.1849 368.345 49.0409 368.873 48.7529C369.417 48.4489 369.849 48.0009 370.169 47.4089C370.489 46.8169 370.649 46.0969 370.649 45.2489C370.649 43.9849 370.313 43.0169 369.641 42.3449C368.985 41.6569 368.177 41.3129 367.217 41.3129C366.257 41.3129 365.449 41.6569 364.793 42.3449C364.153 43.0169 363.833 43.9849 363.833 45.2489C363.833 46.5129 364.145 47.4889 364.769 48.1769C365.409 48.8489 366.209 49.1849 367.169 49.1849Z" fill="#5046AA"/>
<path d="M2.496 74.1289C3.94667 72.9769 4.608 72.4436 4.48 72.5289C8.66133 69.0729 11.9467 66.2356 14.336 64.0169C16.768 61.7982 18.816 59.4729 20.48 57.0409C22.144 54.6089 22.976 52.2409 22.976 49.9369C22.976 48.1876 22.5707 46.8222 21.76 45.8409C20.9493 44.8596 19.7333 44.3689 18.112 44.3689C16.4907 44.3689 15.2107 44.9876 14.272 46.2249C13.376 47.4196 12.928 49.1262 12.928 51.3449H2.368C2.45333 47.7182 3.22133 44.6889 4.672 42.2569C6.16533 39.8249 8.10667 38.0329 10.496 36.8809C12.928 35.7289 15.616 35.1529 18.56 35.1529C23.6373 35.1529 27.456 36.4542 30.016 39.0569C32.6187 41.6596 33.92 45.0516 33.92 49.2329C33.92 53.7982 32.3627 58.0436 29.248 61.9689C26.1333 65.8516 22.1653 69.6489 17.344 73.3609H34.624V82.2569H2.496V74.1289ZM72.3385 45.7129H52.3705V54.5449C53.2238 53.6062 54.4185 52.8382 55.9545 52.2409C57.4905 51.6436 59.1545 51.3449 60.9465 51.3449C64.1465 51.3449 66.7918 52.0702 68.8825 53.5209C71.0158 54.9716 72.5732 56.8489 73.5545 59.1529C74.5358 61.4569 75.0265 63.9529 75.0265 66.6409C75.0265 71.6329 73.6185 75.6009 70.8025 78.5449C67.9865 81.4462 64.0185 82.8969 58.8985 82.8969C55.4852 82.8969 52.5198 82.3209 50.0025 81.1689C47.4852 79.9742 45.5438 78.3316 44.1785 76.2409C42.8132 74.1502 42.0665 71.7396 41.9385 69.0089H52.6265C52.8825 70.3316 53.5012 71.4409 54.4825 72.3369C55.4638 73.1902 56.8078 73.6169 58.5145 73.6169C60.5198 73.6169 62.0132 72.9769 62.9945 71.6969C63.9758 70.4169 64.4665 68.7102 64.4665 66.5769C64.4665 64.4862 63.9545 62.8862 62.9305 61.7769C61.9065 60.6676 60.4132 60.1129 58.4505 60.1129C56.9998 60.1129 55.8052 60.4756 54.8665 61.2009C53.9278 61.8836 53.3092 62.8009 53.0105 63.9529H42.4505V36.1129H72.3385V45.7129ZM80.1715 47.9529C80.1715 44.4969 81.1528 41.8302 83.1155 39.9529C85.1208 38.0756 87.7022 37.1369 90.8595 37.1369C94.0168 37.1369 96.5768 38.0756 98.5395 39.9529C100.502 41.8302 101.484 44.4969 101.484 47.9529C101.484 51.4089 100.502 54.0756 98.5395 55.9529C96.5768 57.8302 94.0168 58.7689 90.8595 58.7689C87.7022 58.7689 85.1208 57.8302 83.1155 55.9529C81.1528 54.0756 80.1715 51.4089 80.1715 47.9529ZM123.628 37.8409L98.9875 82.8969H88.4275L113.068 37.8409H123.628ZM90.7955 43.5369C88.7475 43.5369 87.7235 45.0089 87.7235 47.9529C87.7235 50.8542 88.7475 52.3049 90.7955 52.3049C91.7768 52.3049 92.5448 51.9422 93.0995 51.2169C93.6542 50.4916 93.9315 49.4036 93.9315 47.9529C93.9315 45.0089 92.8862 43.5369 90.7955 43.5369ZM110.636 72.7849C110.636 69.3289 111.617 66.6622 113.58 64.7849C115.542 62.9076 118.102 61.9689 121.26 61.9689C124.417 61.9689 126.977 62.9076 128.94 64.7849C130.902 66.6622 131.884 69.3289 131.884 72.7849C131.884 76.2409 130.902 78.9076 128.94 80.7849C126.977 82.6622 124.417 83.6009 121.26 83.6009C118.102 83.6009 115.542 82.6622 113.58 80.7849C111.617 78.9076 110.636 76.2409 110.636 72.7849ZM121.196 68.3689C120.214 68.3689 119.446 68.7316 118.892 69.4569C118.38 70.1822 118.124 71.2916 118.124 72.7849C118.124 75.6862 119.148 77.1369 121.196 77.1369C122.177 77.1369 122.945 76.7742 123.5 76.0489C124.054 75.3236 124.332 74.2356 124.332 72.7849C124.332 71.3342 124.054 70.2462 123.5 69.5209C122.945 68.7529 122.177 68.3689 121.196 68.3689Z" fill="#5046AA"/>
<path d="M11.664 12.3329V24.8969H9.144V19.5509H3.762V24.8969H1.242V12.3329H3.762V17.4989H9.144V12.3329H11.664ZM13.4963 19.8749C13.4963 18.8669 13.6943 17.9729 14.0903 17.1929C14.4983 16.4129 15.0443 15.8129 15.7283 15.3929C16.4243 14.9729 17.1983 14.7629 18.0503 14.7629C18.7943 14.7629 19.4423 14.9129 19.9943 15.2129C20.5583 15.5129 21.0083 15.8909 21.3443 16.3469V14.9249H23.8823V24.8969H21.3443V23.4389C21.0203 23.9069 20.5703 24.2969 19.9943 24.6089C19.4303 24.9089 18.7763 25.0589 18.0323 25.0589C17.1923 25.0589 16.4243 24.8429 15.7283 24.4109C15.0443 23.9789 14.4983 23.3729 14.0903 22.5929C13.6943 21.8009 13.4963 20.8949 13.4963 19.8749ZM21.3443 19.9109C21.3443 19.2989 21.2243 18.7769 20.9843 18.3449C20.7443 17.9009 20.4203 17.5649 20.0123 17.3369C19.6043 17.0969 19.1663 16.9769 18.6983 16.9769C18.2303 16.9769 17.7983 17.0909 17.4023 17.3189C17.0063 17.5469 16.6823 17.8829 16.4303 18.3269C16.1903 18.7589 16.0703 19.2749 16.0703 19.8749C16.0703 20.4749 16.1903 21.0029 16.4303 21.4589C16.6823 21.9029 17.0063 22.2449 17.4023 22.4849C17.8103 22.7249 18.2423 22.8449 18.6983 22.8449C19.1663 22.8449 19.6043 22.7309 20.0123 22.5029C20.4203 22.2629 20.7443 21.9269 20.9843 21.4949C21.2243 21.0509 21.3443 20.5229 21.3443 19.9109ZM30.1596 25.0589C29.3436 25.0589 28.6116 24.9149 27.9636 24.6269C27.3156 24.3269 26.7996 23.9249 26.4156 23.4209C26.0436 22.9169 25.8396 22.3589 25.8036 21.7469H28.3416C28.3896 22.1309 28.5756 22.4489 28.8996 22.7009C29.2356 22.9529 29.6496 23.0789 30.1416 23.0789C30.6216 23.0789 30.9936 22.9829 31.2576 22.7909C31.5336 22.5989 31.6716 22.3529 31.6716 22.0529C31.6716 21.7289 31.5036 21.4889 31.1676 21.3329C30.8436 21.1649 30.3216 20.9849 29.6016 20.7929C28.8576 20.6129 28.2456 20.4269 27.7656 20.2349C27.2976 20.0429 26.8896 19.7489 26.5416 19.3529C26.2056 18.9569 26.0376 18.4229 26.0376 17.7509C26.0376 17.1989 26.1936 16.6949 26.5056 16.2389C26.8296 15.7829 27.2856 15.4229 27.8736 15.1589C28.4736 14.8949 29.1756 14.7629 29.9796 14.7629C31.1676 14.7629 32.1156 15.0629 32.8236 15.6629C33.5316 16.2509 33.9216 17.0489 33.9936 18.0569H31.5816C31.5456 17.6609 31.3776 17.3489 31.0776 17.1209C30.7896 16.8809 30.3996 16.7609 29.9076 16.7609C29.4516 16.7609 29.0976 16.8449 28.8456 17.0129C28.6056 17.1809 28.4856 17.4149 28.4856 17.7149C28.4856 18.0509 28.6536 18.3089 28.9896 18.4889C29.3256 18.6569 29.8476 18.8309 30.5556 19.0109C31.2756 19.1909 31.8696 19.3769 32.3376 19.5689C32.8056 19.7609 33.2076 20.0609 33.5436 20.4689C33.8916 20.8649 34.0716 21.3929 34.0836 22.0529C34.0836 22.6289 33.9216 23.1449 33.5976 23.6009C33.2856 24.0569 32.8296 24.4169 32.2296 24.6809C31.6416 24.9329 30.9516 25.0589 30.1596 25.0589ZM39.0862 16.9949V21.8189C39.0862 22.1549 39.1642 22.4009 39.3202 22.5569C39.4882 22.7009 39.7642 22.7729 40.1482 22.7729H41.3182V24.8969H39.7342C37.6102 24.8969 36.5482 23.8649 36.5482 21.8009V16.9949H35.3602V14.9249H36.5482V12.4589H39.0862V14.9249H41.3182V16.9949H39.0862ZM42.4827 19.8749C42.4827 18.8669 42.6807 17.9729 43.0767 17.1929C43.4847 16.4129 44.0307 15.8129 44.7147 15.3929C45.4107 14.9729 46.1847 14.7629 47.0367 14.7629C47.7807 14.7629 48.4287 14.9129 48.9807 15.2129C49.5447 15.5129 49.9947 15.8909 50.3307 16.3469V14.9249H52.8687V24.8969H50.3307V23.4389C50.0067 23.9069 49.5567 24.2969 48.9807 24.6089C48.4167 24.9089 47.7627 25.0589 47.0187 25.0589C46.1787 25.0589 45.4107 24.8429 44.7147 24.4109C44.0307 23.9789 43.4847 23.3729 43.0767 22.5929C42.6807 21.8009 42.4827 20.8949 42.4827 19.8749ZM50.3307 19.9109C50.3307 19.2989 50.2107 18.7769 49.9707 18.3449C49.7307 17.9009 49.4067 17.5649 48.9987 17.3369C48.5907 17.0969 48.1527 16.9769 47.6847 16.9769C47.2167 16.9769 46.7847 17.0909 46.3887 17.3189C45.9927 17.5469 45.6687 17.8829 45.4167 18.3269C45.1767 18.7589 45.0567 19.2749 45.0567 19.8749C45.0567 20.4749 45.1767 21.0029 45.4167 21.4589C45.6687 21.9029 45.9927 22.2449 46.3887 22.4849C46.7967 22.7249 47.2287 22.8449 47.6847 22.8449C48.1527 22.8449 48.5907 22.7309 48.9987 22.5029C49.4067 22.2629 49.7307 21.9269 49.9707 21.4949C50.2107 21.0509 50.3307 20.5229 50.3307 19.9109ZM69.033 14.9249V24.8969H66.495V23.6369C66.171 24.0689 65.745 24.4109 65.217 24.6629C64.701 24.9029 64.137 25.0229 63.525 25.0229C62.745 25.0229 62.055 24.8609 61.455 24.5369C60.855 24.2009 60.381 23.7149 60.033 23.0789C59.697 22.4309 59.529 21.6629 59.529 20.7749V14.9249H62.049V20.4149C62.049 21.2069 62.247 21.8189 62.643 22.2509C63.039 22.6709 63.579 22.8809 64.263 22.8809C64.959 22.8809 65.505 22.6709 65.901 22.2509C66.297 21.8189 66.495 21.2069 66.495 20.4149V14.9249H69.033ZM77.0453 14.7809C78.2333 14.7809 79.1933 15.1589 79.9253 15.9149C80.6573 16.6589 81.0233 17.7029 81.0233 19.0469V24.8969H78.5033V19.3889C78.5033 18.5969 78.3053 17.9909 77.9093 17.5709C77.5133 17.1389 76.9733 16.9229 76.2893 16.9229C75.5933 16.9229 75.0413 17.1389 74.6333 17.5709C74.2373 17.9909 74.0393 18.5969 74.0393 19.3889V24.8969H71.5193V14.9249H74.0393V16.1669C74.3753 15.7349 74.8013 15.3989 75.3173 15.1589C75.8453 14.9069 76.4213 14.7809 77.0453 14.7809Z" fill="#5046AA"/>
<g clip-path="url(#clip0)">
<path d="M316.997 49.7616L318.28 51.8145L314.125 54.4107L312.842 52.3578L316.997 49.7616ZM322.189 58.071L318.28 51.8145L320.332 50.5317L324.242 56.7882L332.551 51.5959L333.834 53.6489L331.781 54.9317L334.377 59.0864L332.276 60.3997L329.679 56.245L325.525 58.8412L328.121 62.9959L326.068 64.2787L322.189 58.071ZM316.476 67.418L317.759 69.4709L313.604 72.0671L312.321 70.0142L316.476 67.418ZM338.532 56.4902L336.43 57.8036L333.834 53.6489L337.989 51.0527L339.302 53.1545L337.249 54.4373L338.532 56.4902ZM340.585 55.2074L339.302 53.1545L341.404 51.8412L347.879 62.2035L345.777 63.5168L340.585 55.2074ZM311.502 73.3804L313.604 72.0671L316.2 76.2218L314.098 77.5351L311.502 73.3804ZM322.408 72.3428L321.125 70.2899L319.072 71.5727L317.759 69.4709L319.811 68.1881L312.023 55.724L314.125 54.4107L324.509 71.0295L322.408 72.3428ZM317.513 78.3236L316.2 76.2218L318.253 74.939L319.566 77.0408L317.513 78.3236ZM331.26 72.5881L328.664 68.4334L330.717 67.1506L335.909 75.46L333.856 76.7428L331.26 72.5881ZM335.415 69.9919L332.819 65.8372L334.872 64.5544L340.064 72.8638L338.011 74.1466L335.415 69.9919ZM319.566 77.0408L321.668 75.7274L324.264 79.8821L322.162 81.1955L319.566 77.0408ZM340.34 64.0601L344.219 70.2677L342.166 71.5505L336.974 63.2411L339.026 61.9583L340.34 64.0601ZM346.321 68.9543L343.724 64.7996L345.777 63.5168L348.373 67.6715L346.321 68.9543ZM325.547 81.9351L324.264 79.8821L326.317 78.5993L327.6 80.6523L325.547 81.9351ZM328.913 82.754L327.6 80.6523L329.702 79.3389L331.015 81.4407L328.913 82.754ZM346.845 74.4712L344.219 70.2677L346.321 68.9543L350.23 75.2108L346.075 77.807L344.793 75.7541L346.845 74.4712ZM342.691 77.0674L341.377 74.9656L343.479 73.6523L344.793 75.7541L342.691 77.0674ZM336.483 80.9463L342.691 77.0674L343.974 79.1203L333.611 85.5954L331.015 81.4407L333.068 80.1579L334.381 82.2597L336.483 80.9463Z" fill="black"/>
</g>
<path d="M210.58 78.8167C209.704 78.8167 208.912 78.6667 208.204 78.3667C207.508 78.0667 206.956 77.6347 206.548 77.0707C206.14 76.5067 205.93 75.8407 205.918 75.0727H208.618C208.654 75.5887 208.834 75.9967 209.158 76.2967C209.494 76.5967 209.95 76.7467 210.526 76.7467C211.114 76.7467 211.576 76.6087 211.912 76.3327C212.248 76.0447 212.416 75.6727 212.416 75.2167C212.416 74.8447 212.302 74.5387 212.074 74.2987C211.846 74.0587 211.558 73.8727 211.21 73.7407C210.874 73.5967 210.406 73.4407 209.806 73.2727C208.99 73.0327 208.324 72.7987 207.808 72.5707C207.304 72.3307 206.866 71.9767 206.494 71.5087C206.134 71.0287 205.954 70.3927 205.954 69.6007C205.954 68.8567 206.14 68.2087 206.512 67.6567C206.884 67.1047 207.406 66.6847 208.078 66.3967C208.75 66.0967 209.518 65.9467 210.382 65.9467C211.678 65.9467 212.728 66.2647 213.532 66.9007C214.348 67.5247 214.798 68.4007 214.882 69.5287H212.11C212.086 69.0967 211.9 68.7427 211.552 68.4667C211.216 68.1787 210.766 68.0347 210.202 68.0347C209.71 68.0347 209.314 68.1607 209.014 68.4127C208.726 68.6647 208.582 69.0307 208.582 69.5107C208.582 69.8467 208.69 70.1287 208.906 70.3567C209.134 70.5727 209.41 70.7527 209.734 70.8967C210.07 71.0287 210.538 71.1847 211.138 71.3647C211.954 71.6047 212.62 71.8447 213.136 72.0847C213.652 72.3247 214.096 72.6847 214.468 73.1647C214.84 73.6447 215.026 74.2747 215.026 75.0547C215.026 75.7267 214.852 76.3507 214.504 76.9267C214.156 77.5027 213.646 77.9647 212.974 78.3127C212.302 78.6487 211.504 78.8167 210.58 78.8167ZM216.563 73.6687C216.563 72.6607 216.761 71.7667 217.157 70.9867C217.565 70.2067 218.111 69.6067 218.795 69.1867C219.491 68.7667 220.265 68.5567 221.117 68.5567C221.861 68.5567 222.509 68.7067 223.061 69.0067C223.625 69.3067 224.075 69.6847 224.411 70.1407V68.7187H226.949V78.6907H224.411V77.2327C224.087 77.7007 223.637 78.0907 223.061 78.4027C222.497 78.7027 221.843 78.8527 221.099 78.8527C220.259 78.8527 219.491 78.6367 218.795 78.2047C218.111 77.7727 217.565 77.1667 217.157 76.3867C216.761 75.5947 216.563 74.6887 216.563 73.6687ZM224.411 73.7047C224.411 73.0927 224.291 72.5707 224.051 72.1387C223.811 71.6947 223.487 71.3587 223.079 71.1307C222.671 70.8907 222.233 70.7707 221.765 70.7707C221.297 70.7707 220.865 70.8847 220.469 71.1127C220.073 71.3407 219.749 71.6767 219.497 72.1207C219.257 72.5527 219.137 73.0687 219.137 73.6687C219.137 74.2687 219.257 74.7967 219.497 75.2527C219.749 75.6967 220.073 76.0387 220.469 76.2787C220.877 76.5187 221.309 76.6387 221.765 76.6387C222.233 76.6387 222.671 76.5247 223.079 76.2967C223.487 76.0567 223.811 75.7207 224.051 75.2887C224.291 74.8447 224.411 74.3167 224.411 73.7047ZM231.93 70.1767C232.254 69.6967 232.698 69.3067 233.262 69.0067C233.838 68.7067 234.492 68.5567 235.224 68.5567C236.076 68.5567 236.844 68.7667 237.528 69.1867C238.224 69.6067 238.77 70.2067 239.166 70.9867C239.574 71.7547 239.778 72.6487 239.778 73.6687C239.778 74.6887 239.574 75.5947 239.166 76.3867C238.77 77.1667 238.224 77.7727 237.528 78.2047C236.844 78.6367 236.076 78.8527 235.224 78.8527C234.48 78.8527 233.826 78.7087 233.262 78.4207C232.71 78.1207 232.266 77.7367 231.93 77.2687V78.6907H229.41V65.3707H231.93V70.1767ZM237.204 73.6687C237.204 73.0687 237.078 72.5527 236.826 72.1207C236.586 71.6767 236.262 71.3407 235.854 71.1127C235.458 70.8847 235.026 70.7707 234.558 70.7707C234.102 70.7707 233.67 70.8907 233.262 71.1307C232.866 71.3587 232.542 71.6947 232.29 72.1387C232.05 72.5827 231.93 73.1047 231.93 73.7047C231.93 74.3047 232.05 74.8267 232.29 75.2707C232.542 75.7147 232.866 76.0567 233.262 76.2967C233.67 76.5247 234.102 76.6387 234.558 76.6387C235.026 76.6387 235.458 76.5187 235.854 76.2787C236.262 76.0387 236.586 75.6967 236.826 75.2527C237.078 74.8087 237.204 74.2807 237.204 73.6687ZM250.879 73.4887C250.879 73.8487 250.855 74.1727 250.807 74.4607H243.517C243.577 75.1807 243.829 75.7447 244.273 76.1527C244.717 76.5607 245.263 76.7647 245.911 76.7647C246.847 76.7647 247.513 76.3627 247.909 75.5587H250.627C250.339 76.5187 249.787 77.3107 248.971 77.9347C248.155 78.5467 247.153 78.8527 245.965 78.8527C245.005 78.8527 244.141 78.6427 243.373 78.2227C242.617 77.7907 242.023 77.1847 241.591 76.4047C241.171 75.6247 240.961 74.7247 240.961 73.7047C240.961 72.6727 241.171 71.7667 241.591 70.9867C242.011 70.2067 242.599 69.6067 243.355 69.1867C244.111 68.7667 244.981 68.5567 245.965 68.5567C246.913 68.5567 247.759 68.7607 248.503 69.1687C249.259 69.5767 249.841 70.1587 250.249 70.9147C250.669 71.6587 250.879 72.5167 250.879 73.4887ZM248.269 72.7687C248.257 72.1207 248.023 71.6047 247.567 71.2207C247.111 70.8247 246.553 70.6267 245.893 70.6267C245.269 70.6267 244.741 70.8187 244.309 71.2027C243.889 71.5747 243.631 72.0967 243.535 72.7687H248.269ZM255.239 70.2667C255.563 69.7387 255.983 69.3247 256.499 69.0247C257.027 68.7247 257.627 68.5747 258.299 68.5747V71.2207H257.633C256.841 71.2207 256.241 71.4067 255.833 71.7787C255.437 72.1507 255.239 72.7987 255.239 73.7227V78.6907H252.719V68.7187H255.239V70.2667ZM276.669 68.5747C277.893 68.5747 278.877 68.9527 279.621 69.7087C280.377 70.4527 280.755 71.4967 280.755 72.8407V78.6907H278.235V73.1827C278.235 72.4027 278.037 71.8087 277.641 71.4007C277.245 70.9807 276.705 70.7707 276.021 70.7707C275.337 70.7707 274.791 70.9807 274.383 71.4007C273.987 71.8087 273.789 72.4027 273.789 73.1827V78.6907H271.269V73.1827C271.269 72.4027 271.071 71.8087 270.675 71.4007C270.279 70.9807 269.739 70.7707 269.055 70.7707C268.359 70.7707 267.807 70.9807 267.399 71.4007C267.003 71.8087 266.805 72.4027 266.805 73.1827V78.6907H264.285V68.7187H266.805V69.9247C267.129 69.5047 267.543 69.1747 268.047 68.9347C268.563 68.6947 269.127 68.5747 269.739 68.5747C270.519 68.5747 271.215 68.7427 271.827 69.0787C272.439 69.4027 272.913 69.8707 273.249 70.4827C273.573 69.9067 274.041 69.4447 274.653 69.0967C275.277 68.7487 275.949 68.5747 276.669 68.5747ZM282.498 73.6687C282.498 72.6607 282.696 71.7667 283.092 70.9867C283.5 70.2067 284.046 69.6067 284.73 69.1867C285.426 68.7667 286.2 68.5567 287.052 68.5567C287.796 68.5567 288.444 68.7067 288.996 69.0067C289.56 69.3067 290.01 69.6847 290.346 70.1407V68.7187H292.884V78.6907H290.346V77.2327C290.022 77.7007 289.572 78.0907 288.996 78.4027C288.432 78.7027 287.778 78.8527 287.034 78.8527C286.194 78.8527 285.426 78.6367 284.73 78.2047C284.046 77.7727 283.5 77.1667 283.092 76.3867C282.696 75.5947 282.498 74.6887 282.498 73.6687ZM290.346 73.7047C290.346 73.0927 290.226 72.5707 289.986 72.1387C289.746 71.6947 289.422 71.3587 289.014 71.1307C288.606 70.8907 288.168 70.7707 287.7 70.7707C287.232 70.7707 286.8 70.8847 286.404 71.1127C286.008 71.3407 285.684 71.6767 285.432 72.1207C285.192 72.5527 285.072 73.0687 285.072 73.6687C285.072 74.2687 285.192 74.7967 285.432 75.2527C285.684 75.6967 286.008 76.0387 286.404 76.2787C286.812 76.5187 287.244 76.6387 287.7 76.6387C288.168 76.6387 288.606 76.5247 289.014 76.2967C289.422 76.0567 289.746 75.7207 289.986 75.2887C290.226 74.8447 290.346 74.3167 290.346 73.7047ZM290.004 66.1267L285.864 68.0167V66.2167L290.004 64.0747V66.1267ZM299.162 78.8527C298.346 78.8527 297.614 78.7087 296.966 78.4207C296.318 78.1207 295.802 77.7187 295.418 77.2147C295.046 76.7107 294.842 76.1527 294.806 75.5407H297.344C297.392 75.9247 297.578 76.2427 297.902 76.4947C298.238 76.7467 298.652 76.8727 299.144 76.8727C299.624 76.8727 299.996 76.7767 300.26 76.5847C300.536 76.3927 300.674 76.1467 300.674 75.8467C300.674 75.5227 300.506 75.2827 300.17 75.1267C299.846 74.9587 299.324 74.7787 298.604 74.5867C297.86 74.4067 297.248 74.2207 296.768 74.0287C296.3 73.8367 295.892 73.5427 295.544 73.1467C295.208 72.7507 295.04 72.2167 295.04 71.5447C295.04 70.9927 295.196 70.4887 295.508 70.0327C295.832 69.5767 296.288 69.2167 296.876 68.9527C297.476 68.6887 298.178 68.5567 298.982 68.5567C300.17 68.5567 301.118 68.8567 301.826 69.4567C302.534 70.0447 302.924 70.8427 302.996 71.8507H300.584C300.548 71.4547 300.38 71.1427 300.08 70.9147C299.792 70.6747 299.402 70.5547 298.91 70.5547C298.454 70.5547 298.1 70.6387 297.848 70.8067C297.608 70.9747 297.488 71.2087 297.488 71.5087C297.488 71.8447 297.656 72.1027 297.992 72.2827C298.328 72.4507 298.85 72.6247 299.558 72.8047C300.278 72.9847 300.872 73.1707 301.34 73.3627C301.808 73.5547 302.21 73.8547 302.546 74.2627C302.894 74.6587 303.074 75.1867 303.086 75.8467C303.086 76.4227 302.924 76.9387 302.6 77.3947C302.288 77.8507 301.832 78.2107 301.232 78.4747C300.644 78.7267 299.954 78.8527 299.162 78.8527Z" fill="#FFC120"/>
<path d="M446.388 26.7501V31.8621H454.632V36.6141H446.388V42.1581H455.712V47.0901H440.232V21.8181H455.712V26.7501H446.388ZM482.317 47.0901H476.161L465.865 31.5021V47.0901H459.709V21.8181H465.865L476.161 37.4781V21.8181H482.317V47.0901ZM510.503 21.8181L501.539 47.0901H493.835L484.871 21.8181H491.423L497.687 40.8981L503.987 21.8181H510.503ZM519.232 21.8181V47.0901H513.076V21.8181H519.232ZM535.645 47.3421C533.269 47.3421 531.085 46.7901 529.093 45.6861C527.125 44.5821 525.553 43.0461 524.377 41.0781C523.225 39.0861 522.649 36.8541 522.649 34.3821C522.649 31.9101 523.225 29.6901 524.377 27.7221C525.553 25.7541 527.125 24.2181 529.093 23.1141C531.085 22.0101 533.269 21.4581 535.645 21.4581C538.021 21.4581 540.193 22.0101 542.161 23.1141C544.153 24.2181 545.713 25.7541 546.841 27.7221C547.993 29.6901 548.569 31.9101 548.569 34.3821C548.569 36.8541 547.993 39.0861 546.841 41.0781C545.689 43.0461 544.129 44.5821 542.161 45.6861C540.193 46.7901 538.021 47.3421 535.645 47.3421ZM535.645 41.7261C537.661 41.7261 539.269 41.0541 540.469 39.7101C541.693 38.3661 542.305 36.5901 542.305 34.3821C542.305 32.1501 541.693 30.3741 540.469 29.0541C539.269 27.7101 537.661 27.0381 535.645 27.0381C533.605 27.0381 531.973 27.6981 530.749 29.0181C529.549 30.3381 528.949 32.1261 528.949 34.3821C528.949 36.6141 529.549 38.4021 530.749 39.7461C531.973 41.0661 533.605 41.7261 535.645 41.7261ZM457.008 67.8101C456.552 66.9701 455.892 66.3341 455.028 65.9021C454.188 65.4461 453.192 65.2181 452.04 65.2181C450.048 65.2181 448.452 65.8781 447.252 67.1981C446.052 68.4941 445.452 70.2341 445.452 72.4181C445.452 74.7461 446.076 76.5701 447.324 77.8901C448.596 79.1861 450.336 79.8341 452.544 79.8341C454.056 79.8341 455.328 79.4501 456.36 78.6821C457.416 77.9141 458.184 76.8101 458.664 75.3701H450.852V70.8341H464.244V76.5581C463.788 78.0941 463.008 79.5221 461.904 80.8421C460.824 82.1621 459.444 83.2301 457.764 84.0461C456.084 84.8621 454.188 85.2701 452.076 85.2701C449.58 85.2701 447.348 84.7301 445.38 83.6501C443.436 82.5461 441.912 81.0221 440.808 79.0781C439.728 77.1341 439.188 74.9141 439.188 72.4181C439.188 69.9221 439.728 67.7021 440.808 65.7581C441.912 63.7901 443.436 62.2661 445.38 61.1861C447.324 60.0821 449.544 59.5301 452.04 59.5301C455.064 59.5301 457.608 60.2621 459.672 61.7261C461.76 63.1901 463.14 65.2181 463.812 67.8101H457.008ZM480.542 85.0901L475.286 75.5501H473.81V85.0901H467.654V59.8181H477.986C479.978 59.8181 481.67 60.1661 483.062 60.8621C484.478 61.5581 485.534 62.5181 486.23 63.7421C486.926 64.9421 487.274 66.2861 487.274 67.7741C487.274 69.4541 486.794 70.9541 485.834 72.2741C484.898 73.5941 483.506 74.5301 481.658 75.0821L487.49 85.0901H480.542ZM473.81 71.1941H477.626C478.754 71.1941 479.594 70.9181 480.146 70.3661C480.722 69.8141 481.01 69.0341 481.01 68.0261C481.01 67.0661 480.722 66.3101 480.146 65.7581C479.594 65.2061 478.754 64.9301 477.626 64.9301H473.81V71.1941ZM506.87 80.6261H497.438L495.926 85.0901H489.482L498.626 59.8181H505.754L514.898 85.0901H508.382L506.87 80.6261ZM505.286 75.8741L502.154 66.6221L499.058 75.8741H505.286ZM535.861 59.8181V64.7501H529.165V85.0901H523.009V64.7501H516.313V59.8181H535.861ZM545.107 59.8181V85.0901H538.951V59.8181H545.107ZM558.712 85.3421C556.864 85.3421 555.208 85.0421 553.744 84.4421C552.28 83.8421 551.104 82.9541 550.216 81.7781C549.352 80.6021 548.896 79.1861 548.848 77.5301H555.4C555.496 78.4661 555.82 79.1861 556.372 79.6901C556.924 80.1701 557.644 80.4101 558.532 80.4101C559.444 80.4101 560.164 80.2061 560.692 79.7981C561.22 79.3661 561.484 78.7781 561.484 78.0341C561.484 77.4101 561.268 76.8941 560.836 76.4861C560.428 76.0781 559.912 75.7421 559.288 75.4781C558.688 75.2141 557.824 74.9141 556.696 74.5781C555.064 74.0741 553.732 73.5701 552.7 73.0661C551.668 72.5621 550.78 71.8181 550.036 70.8341C549.292 69.8501 548.92 68.5661 548.92 66.9821C548.92 64.6301 549.772 62.7941 551.476 61.4741C553.18 60.1301 555.4 59.4581 558.136 59.4581C560.92 59.4581 563.164 60.1301 564.868 61.4741C566.572 62.7941 567.484 64.6421 567.604 67.0181H560.944C560.896 66.2021 560.596 65.5661 560.044 65.1101C559.492 64.6301 558.784 64.3901 557.92 64.3901C557.176 64.3901 556.576 64.5941 556.12 65.0021C555.664 65.3861 555.436 65.9501 555.436 66.6941C555.436 67.5101 555.82 68.1461 556.588 68.6021C557.356 69.0581 558.556 69.5501 560.188 70.0781C561.82 70.6301 563.14 71.1581 564.148 71.6621C565.18 72.1661 566.068 72.8981 566.812 73.8581C567.556 74.8181 567.928 76.0541 567.928 77.5661C567.928 79.0061 567.556 80.3141 566.812 81.4901C566.092 82.6661 565.036 83.6021 563.644 84.2981C562.252 84.9941 560.608 85.3421 558.712 85.3421Z" fill="#5046AA"/>
<path d="M580 18.75V25H639.375V71.875H620.138C618.744 66.5031 613.912 62.5 608.125 62.5C602.337 62.5 597.506 66.5031 596.113 71.875H592.5V56.25H586.25V78.125H596.113C597.506 83.4969 602.337 87.5 608.125 87.5C613.912 87.5 618.744 83.4969 620.138 78.125H646.113C647.506 83.4969 652.338 87.5 658.125 87.5C663.912 87.5 668.744 83.4969 670.137 78.125H680V52.6375L679.803 52.1469L673.553 33.3969L672.875 31.25H645.625V18.75H580ZM583.125 31.25V37.5H611.25V31.25H583.125ZM645.625 37.5H668.378L673.75 53.5156V71.875H670.137C668.744 66.5031 663.912 62.5 658.125 62.5C652.338 62.5 647.506 66.5031 646.113 71.875H645.625V37.5ZM586.25 43.75V50H605V43.75H586.25ZM608.125 68.75C611.616 68.75 614.375 71.5094 614.375 75C614.375 78.4906 611.616 81.25 608.125 81.25C604.634 81.25 601.875 78.4906 601.875 75C601.875 71.5094 604.634 68.75 608.125 68.75ZM658.125 68.75C661.616 68.75 664.375 71.5094 664.375 75C664.375 78.4906 661.616 81.25 658.125 81.25C654.634 81.25 651.875 78.4906 651.875 75C651.875 71.5094 654.634 68.75 658.125 68.75Z" fill="#707070"/>
<path d="M701.669 21.728C704.333 21.728 706.661 22.256 708.653 23.312C710.645 24.368 712.181 25.856 713.261 27.776C714.365 29.672 714.917 31.868 714.917 34.364C714.917 36.836 714.365 39.032 713.261 40.952C712.181 42.872 710.633 44.36 708.617 45.416C706.625 46.472 704.309 47 701.669 47H692.201V21.728H701.669ZM701.273 41.672C703.601 41.672 705.413 41.036 706.709 39.764C708.005 38.492 708.653 36.692 708.653 34.364C708.653 32.036 708.005 30.224 706.709 28.928C705.413 27.632 703.601 26.984 701.273 26.984H698.357V41.672H701.273ZM737.293 36.632C737.293 37.208 737.257 37.808 737.185 38.432H723.253C723.349 39.68 723.745 40.64 724.441 41.312C725.161 41.96 726.037 42.284 727.069 42.284C728.605 42.284 729.673 41.636 730.273 40.34H736.825C736.489 41.66 735.877 42.848 734.989 43.904C734.125 44.96 733.033 45.788 731.713 46.388C730.393 46.988 728.917 47.288 727.285 47.288C725.317 47.288 723.565 46.868 722.029 46.028C720.493 45.188 719.293 43.988 718.429 42.428C717.565 40.868 717.133 39.044 717.133 36.956C717.133 34.868 717.553 33.044 718.393 31.484C719.257 29.924 720.457 28.724 721.993 27.884C723.529 27.044 725.293 26.624 727.285 26.624C729.229 26.624 730.957 27.032 732.469 27.848C733.981 28.664 735.157 29.828 735.997 31.34C736.861 32.852 737.293 34.616 737.293 36.632ZM730.993 35.012C730.993 33.956 730.633 33.116 729.913 32.492C729.193 31.868 728.293 31.556 727.213 31.556C726.181 31.556 725.305 31.856 724.585 32.456C723.889 33.056 723.457 33.908 723.289 35.012H730.993ZM748.713 47.288C746.961 47.288 745.401 46.988 744.033 46.388C742.665 45.788 741.585 44.972 740.793 43.94C740.001 42.884 739.557 41.708 739.461 40.412H745.545C745.617 41.108 745.941 41.672 746.517 42.104C747.093 42.536 747.801 42.752 748.641 42.752C749.409 42.752 749.997 42.608 750.405 42.32C750.837 42.008 751.053 41.612 751.053 41.132C751.053 40.556 750.753 40.136 750.153 39.872C749.553 39.584 748.581 39.272 747.237 38.936C745.797 38.6 744.597 38.252 743.637 37.892C742.677 37.508 741.849 36.92 741.153 36.128C740.457 35.312 740.109 34.22 740.109 32.852C740.109 31.7 740.421 30.656 741.045 29.72C741.693 28.76 742.629 28.004 743.853 27.452C745.101 26.9 746.577 26.624 748.281 26.624C750.801 26.624 752.781 27.248 754.221 28.496C755.685 29.744 756.525 31.4 756.741 33.464H751.053C750.957 32.768 750.645 32.216 750.117 31.808C749.613 31.4 748.941 31.196 748.101 31.196C747.381 31.196 746.829 31.34 746.445 31.628C746.061 31.892 745.869 32.264 745.869 32.744C745.869 33.32 746.169 33.752 746.769 34.04C747.393 34.328 748.353 34.616 749.649 34.904C751.137 35.288 752.349 35.672 753.285 36.056C754.221 36.416 755.037 37.016 755.733 37.856C756.453 38.672 756.825 39.776 756.849 41.168C756.849 42.344 756.513 43.4 755.841 44.336C755.193 45.248 754.245 45.968 752.997 46.496C751.773 47.024 750.345 47.288 748.713 47.288ZM759.391 36.92C759.391 34.856 759.775 33.044 760.543 31.484C761.335 29.924 762.403 28.724 763.747 27.884C765.091 27.044 766.591 26.624 768.247 26.624C769.567 26.624 770.767 26.9 771.847 27.452C772.951 28.004 773.815 28.748 774.439 29.684V20.36H780.595V47H774.439V44.12C773.863 45.08 773.035 45.848 771.955 46.424C770.899 47 769.663 47.288 768.247 47.288C766.591 47.288 765.091 46.868 763.747 46.028C762.403 45.164 761.335 43.952 760.543 42.392C759.775 40.808 759.391 38.984 759.391 36.92ZM774.439 36.956C774.439 35.42 774.007 34.208 773.143 33.32C772.303 32.432 771.271 31.988 770.047 31.988C768.823 31.988 767.779 32.432 766.915 33.32C766.075 34.184 765.655 35.384 765.655 36.92C765.655 38.456 766.075 39.68 766.915 40.592C767.779 41.48 768.823 41.924 770.047 41.924C771.271 41.924 772.303 41.48 773.143 40.592C774.007 39.704 774.439 38.492 774.439 36.956ZM803.984 36.632C803.984 37.208 803.948 37.808 803.876 38.432H789.944C790.04 39.68 790.436 40.64 791.132 41.312C791.852 41.96 792.728 42.284 793.76 42.284C795.296 42.284 796.364 41.636 796.964 40.34H803.516C803.18 41.66 802.568 42.848 801.68 43.904C800.816 44.96 799.724 45.788 798.404 46.388C797.084 46.988 795.608 47.288 793.976 47.288C792.008 47.288 790.256 46.868 788.72 46.028C787.184 45.188 785.984 43.988 785.12 42.428C784.256 40.868 783.824 39.044 783.824 36.956C783.824 34.868 784.244 33.044 785.084 31.484C785.948 29.924 787.148 28.724 788.684 27.884C790.22 27.044 791.984 26.624 793.976 26.624C795.92 26.624 797.648 27.032 799.16 27.848C800.672 28.664 801.848 29.828 802.688 31.34C803.552 32.852 803.984 34.616 803.984 36.632ZM797.684 35.012C797.684 33.956 797.324 33.116 796.604 32.492C795.884 31.868 794.984 31.556 793.904 31.556C792.872 31.556 791.996 31.856 791.276 32.456C790.58 33.056 790.148 33.908 789.98 35.012H797.684ZM737.754 77.656C737.754 78.976 737.406 80.2 736.71 81.328C736.038 82.432 735.03 83.344 733.686 84.064C732.366 84.76 730.794 85.144 728.97 85.216V88.132H726.666V85.18C724.122 84.964 722.07 84.208 720.51 82.912C718.95 81.592 718.122 79.804 718.026 77.548H724.578C724.722 78.988 725.418 79.912 726.666 80.32V74.632C724.794 74.152 723.294 73.684 722.166 73.228C721.062 72.772 720.09 72.04 719.25 71.032C718.41 70.024 717.99 68.644 717.99 66.892C717.99 64.708 718.794 62.956 720.402 61.636C722.034 60.316 724.122 59.572 726.666 59.404V56.488H728.97V59.404C731.49 59.596 733.482 60.328 734.946 61.6C736.41 62.872 737.226 64.636 737.394 66.892H730.806C730.662 65.596 730.05 64.756 728.97 64.372V69.952C730.962 70.504 732.498 70.996 733.578 71.428C734.658 71.86 735.618 72.58 736.458 73.588C737.322 74.572 737.754 75.928 737.754 77.656ZM724.506 66.604C724.506 67.204 724.686 67.708 725.046 68.116C725.43 68.524 725.97 68.884 726.666 69.196V64.192C725.994 64.312 725.466 64.576 725.082 64.984C724.698 65.368 724.506 65.908 724.506 66.604ZM728.97 80.428C729.69 80.308 730.254 80.02 730.662 79.564C731.094 79.108 731.31 78.544 731.31 77.872C731.31 77.248 731.106 76.744 730.698 76.36C730.314 75.952 729.738 75.604 728.97 75.316V80.428ZM758.498 63.328L749.462 85H743.162L752.306 64.012H741.11V58.756H758.498V63.328ZM767.611 77.296C767.971 79.192 769.075 80.14 770.923 80.14C772.195 80.14 773.095 79.576 773.623 78.448C774.151 77.32 774.415 75.484 774.415 72.94C773.887 73.684 773.167 74.26 772.255 74.668C771.343 75.076 770.323 75.28 769.195 75.28C767.659 75.28 766.291 74.968 765.091 74.344C763.891 73.696 762.943 72.748 762.247 71.5C761.575 70.228 761.239 68.692 761.239 66.892C761.239 65.116 761.599 63.568 762.319 62.248C763.063 60.928 764.107 59.908 765.451 59.188C766.819 58.468 768.427 58.108 770.275 58.108C773.827 58.108 776.311 59.212 777.727 61.42C779.143 63.628 779.851 66.88 779.851 71.176C779.851 74.296 779.563 76.876 778.987 78.916C778.435 80.932 777.487 82.468 776.143 83.524C774.823 84.58 773.011 85.108 770.707 85.108C768.883 85.108 767.323 84.748 766.027 84.028C764.755 83.308 763.771 82.36 763.075 81.184C762.403 80.008 762.019 78.712 761.923 77.296H767.611ZM770.599 70.42C771.607 70.42 772.411 70.12 773.011 69.52C773.611 68.896 773.911 68.056 773.911 67C773.911 65.848 773.599 64.96 772.975 64.336C772.351 63.712 771.511 63.4 770.455 63.4C769.399 63.4 768.559 63.724 767.935 64.372C767.335 64.996 767.035 65.86 767.035 66.964C767.035 67.996 767.335 68.836 767.935 69.484C768.559 70.108 769.447 70.42 770.599 70.42ZM783.136 71.5C783.136 67.372 783.928 64.12 785.512 61.744C787.12 59.368 789.7 58.18 793.252 58.18C796.804 58.18 799.372 59.368 800.956 61.744C802.564 64.12 803.368 67.372 803.368 71.5C803.368 75.676 802.564 78.952 800.956 81.328C799.372 83.704 796.804 84.892 793.252 84.892C789.7 84.892 787.12 83.704 785.512 81.328C783.928 78.952 783.136 75.676 783.136 71.5ZM797.32 71.5C797.32 69.076 797.056 67.216 796.528 65.92C796 64.6 794.908 63.94 793.252 63.94C791.596 63.94 790.504 64.6 789.976 65.92C789.448 67.216 789.184 69.076 789.184 71.5C789.184 73.132 789.28 74.488 789.472 75.568C789.664 76.624 790.048 77.488 790.624 78.16C791.224 78.808 792.1 79.132 793.252 79.132C794.404 79.132 795.268 78.808 795.844 78.16C796.444 77.488 796.84 76.624 797.032 75.568C797.224 74.488 797.32 73.132 797.32 71.5Z" fill="#FFC120"/>
<path d="M872.34 54.598C871.659 54.598 871.043 54.4813 870.492 54.248C869.951 54.0147 869.521 53.6787 869.204 53.24C868.887 52.8013 868.723 52.2833 868.714 51.686H870.814C870.842 52.0873 870.982 52.4047 871.234 52.638C871.495 52.8713 871.85 52.988 872.298 52.988C872.755 52.988 873.115 52.8807 873.376 52.666C873.637 52.442 873.768 52.1527 873.768 51.798C873.768 51.5087 873.679 51.2707 873.502 51.084C873.325 50.8973 873.101 50.7527 872.83 50.65C872.569 50.538 872.205 50.4167 871.738 50.286C871.103 50.0993 870.585 49.9173 870.184 49.74C869.792 49.5533 869.451 49.278 869.162 48.914C868.882 48.5407 868.742 48.046 868.742 47.43C868.742 46.8513 868.887 46.3473 869.176 45.918C869.465 45.4887 869.871 45.162 870.394 44.938C870.917 44.7047 871.514 44.588 872.186 44.588C873.194 44.588 874.011 44.8353 874.636 45.33C875.271 45.8153 875.621 46.4967 875.686 47.374H873.53C873.511 47.038 873.367 46.7627 873.096 46.548C872.835 46.324 872.485 46.212 872.046 46.212C871.663 46.212 871.355 46.31 871.122 46.506C870.898 46.702 870.786 46.9867 870.786 47.36C870.786 47.6213 870.87 47.8407 871.038 48.018C871.215 48.186 871.43 48.326 871.682 48.438C871.943 48.5407 872.307 48.662 872.774 48.802C873.409 48.9887 873.927 49.1753 874.328 49.362C874.729 49.5487 875.075 49.8287 875.364 50.202C875.653 50.5753 875.798 51.0653 875.798 51.672C875.798 52.1947 875.663 52.68 875.392 53.128C875.121 53.576 874.725 53.9353 874.202 54.206C873.679 54.4673 873.059 54.598 872.34 54.598ZM878.491 45.82C878.146 45.82 877.857 45.7127 877.623 45.498C877.399 45.274 877.287 44.9987 877.287 44.672C877.287 44.3453 877.399 44.0747 877.623 43.86C877.857 43.636 878.146 43.524 878.491 43.524C878.837 43.524 879.121 43.636 879.345 43.86C879.579 44.0747 879.695 44.3453 879.695 44.672C879.695 44.9987 879.579 45.274 879.345 45.498C879.121 45.7127 878.837 45.82 878.491 45.82ZM879.457 46.744V54.5H877.497V46.744H879.457ZM889.028 46.632C889.952 46.632 890.698 46.926 891.268 47.514C891.837 48.0927 892.122 48.9047 892.122 49.95V54.5H890.162V50.216C890.162 49.6 890.008 49.1287 889.7 48.802C889.392 48.466 888.972 48.298 888.44 48.298C887.898 48.298 887.469 48.466 887.152 48.802C886.844 49.1287 886.69 49.6 886.69 50.216V54.5H884.73V46.744H886.69V47.71C886.951 47.374 887.282 47.1127 887.684 46.926C888.094 46.73 888.542 46.632 889.028 46.632ZM897.43 54.626C896.683 54.626 896.011 54.4627 895.414 54.136C894.816 53.8 894.345 53.3287 894 52.722C893.664 52.1153 893.496 51.4153 893.496 50.622C893.496 49.8287 893.668 49.1287 894.014 48.522C894.368 47.9153 894.849 47.4487 895.456 47.122C896.062 46.786 896.739 46.618 897.486 46.618C898.232 46.618 898.909 46.786 899.516 47.122C900.122 47.4487 900.598 47.9153 900.944 48.522C901.298 49.1287 901.476 49.8287 901.476 50.622C901.476 51.4153 901.294 52.1153 900.93 52.722C900.575 53.3287 900.09 53.8 899.474 54.136C898.867 54.4627 898.186 54.626 897.43 54.626ZM897.43 52.918C897.784 52.918 898.116 52.834 898.424 52.666C898.741 52.4887 898.993 52.2273 899.18 51.882C899.366 51.5367 899.46 51.1167 899.46 50.622C899.46 49.8847 899.264 49.32 898.872 48.928C898.489 48.5267 898.018 48.326 897.458 48.326C896.898 48.326 896.426 48.5267 896.044 48.928C895.67 49.32 895.484 49.8847 895.484 50.622C895.484 51.3593 895.666 51.9287 896.03 52.33C896.403 52.722 896.87 52.918 897.43 52.918ZM908.531 48.354V52.106C908.531 52.3673 908.592 52.5587 908.713 52.68C908.844 52.792 909.059 52.848 909.357 52.848H910.267V54.5H909.035C907.383 54.5 906.557 53.6973 906.557 52.092V48.354H905.633V46.744H906.557V44.826H908.531V46.744H910.267V48.354H908.531ZM918.887 50.454C918.887 50.734 918.868 50.986 918.831 51.21H913.161C913.208 51.77 913.404 52.2087 913.749 52.526C914.094 52.8433 914.519 53.002 915.023 53.002C915.751 53.002 916.269 52.6893 916.577 52.064H918.691C918.467 52.8107 918.038 53.4267 917.403 53.912C916.768 54.388 915.989 54.626 915.065 54.626C914.318 54.626 913.646 54.4627 913.049 54.136C912.461 53.8 911.999 53.3287 911.663 52.722C911.336 52.1153 911.173 51.4153 911.173 50.622C911.173 49.8193 911.336 49.1147 911.663 48.508C911.99 47.9013 912.447 47.4347 913.035 47.108C913.623 46.7813 914.3 46.618 915.065 46.618C915.802 46.618 916.46 46.7767 917.039 47.094C917.627 47.4113 918.08 47.864 918.397 48.452C918.724 49.0307 918.887 49.698 918.887 50.454ZM916.857 49.894C916.848 49.39 916.666 48.9887 916.311 48.69C915.956 48.382 915.522 48.228 915.009 48.228C914.524 48.228 914.113 48.3773 913.777 48.676C913.45 48.9653 913.25 49.3713 913.175 49.894H916.857ZM926.692 46.618C927.27 46.618 927.779 46.7347 928.218 46.968C928.656 47.192 929.002 47.486 929.254 47.85V46.744H931.228V54.556C931.228 55.2747 931.083 55.914 930.794 56.474C930.504 57.0433 930.07 57.4913 929.492 57.818C928.913 58.154 928.213 58.322 927.392 58.322C926.29 58.322 925.385 58.0653 924.676 57.552C923.976 57.0387 923.579 56.3387 923.486 55.452H925.432C925.534 55.8067 925.754 56.0867 926.09 56.292C926.435 56.5067 926.85 56.614 927.336 56.614C927.905 56.614 928.367 56.4413 928.722 56.096C929.076 55.76 929.254 55.2467 929.254 54.556V53.352C929.002 53.716 928.652 54.0193 928.204 54.262C927.765 54.5047 927.261 54.626 926.692 54.626C926.038 54.626 925.441 54.458 924.9 54.122C924.358 53.786 923.929 53.3147 923.611 52.708C923.303 52.092 923.149 51.3873 923.149 50.594C923.149 49.81 923.303 49.1147 923.611 48.508C923.929 47.9013 924.354 47.4347 924.886 47.108C925.427 46.7813 926.029 46.618 926.692 46.618ZM929.254 50.622C929.254 50.146 929.16 49.74 928.974 49.404C928.787 49.0587 928.535 48.7973 928.218 48.62C927.9 48.4333 927.56 48.34 927.196 48.34C926.832 48.34 926.496 48.4287 926.188 48.606C925.88 48.7833 925.628 49.0447 925.432 49.39C925.245 49.726 925.152 50.1273 925.152 50.594C925.152 51.0607 925.245 51.4713 925.432 51.826C925.628 52.1713 925.88 52.4373 926.188 52.624C926.505 52.8107 926.841 52.904 927.196 52.904C927.56 52.904 927.9 52.8153 928.218 52.638C928.535 52.4513 928.787 52.19 928.974 51.854C929.16 51.5087 929.254 51.098 929.254 50.622ZM940.464 46.744V54.5H938.49V53.52C938.238 53.856 937.906 54.122 937.496 54.318C937.094 54.5047 936.656 54.598 936.18 54.598C935.573 54.598 935.036 54.472 934.57 54.22C934.103 53.9587 933.734 53.5807 933.464 53.086C933.202 52.582 933.072 51.9847 933.072 51.294V46.744H935.032V51.014C935.032 51.63 935.186 52.106 935.494 52.442C935.802 52.7687 936.222 52.932 936.754 52.932C937.295 52.932 937.72 52.7687 938.028 52.442C938.336 52.106 938.49 51.63 938.49 51.014V46.744H940.464ZM945.366 54.626C944.731 54.626 944.162 54.514 943.658 54.29C943.154 54.0567 942.752 53.744 942.454 53.352C942.164 52.96 942.006 52.526 941.978 52.05H943.952C943.989 52.3487 944.134 52.596 944.386 52.792C944.647 52.988 944.969 53.086 945.352 53.086C945.725 53.086 946.014 53.0113 946.22 52.862C946.434 52.7127 946.542 52.5213 946.542 52.288C946.542 52.036 946.411 51.8493 946.15 51.728C945.898 51.5973 945.492 51.4573 944.932 51.308C944.353 51.168 943.877 51.0233 943.504 50.874C943.14 50.7247 942.822 50.496 942.552 50.188C942.29 49.88 942.16 49.4647 942.16 48.942C942.16 48.5127 942.281 48.1207 942.524 47.766C942.776 47.4113 943.13 47.1313 943.588 46.926C944.054 46.7207 944.6 46.618 945.226 46.618C946.15 46.618 946.887 46.8513 947.438 47.318C947.988 47.7753 948.292 48.396 948.348 49.18H946.472C946.444 48.872 946.313 48.6293 946.08 48.452C945.856 48.2653 945.552 48.172 945.17 48.172C944.815 48.172 944.54 48.2373 944.344 48.368C944.157 48.4987 944.064 48.6807 944.064 48.914C944.064 49.1753 944.194 49.376 944.456 49.516C944.717 49.6467 945.123 49.782 945.674 49.922C946.234 50.062 946.696 50.2067 947.06 50.356C947.424 50.5053 947.736 50.7387 947.998 51.056C948.268 51.364 948.408 51.7747 948.418 52.288C948.418 52.736 948.292 53.1373 948.04 53.492C947.797 53.8467 947.442 54.1267 946.976 54.332C946.518 54.528 945.982 54.626 945.366 54.626ZM952.309 48.354V52.106C952.309 52.3673 952.369 52.5587 952.491 52.68C952.621 52.792 952.836 52.848 953.135 52.848H954.045V54.5H952.813C951.161 54.5 950.335 53.6973 950.335 52.092V48.354H949.411V46.744H950.335V44.826H952.309V46.744H954.045V48.354H952.309ZM954.95 50.594C954.95 49.81 955.104 49.1147 955.412 48.508C955.73 47.9013 956.154 47.4347 956.686 47.108C957.228 46.7813 957.83 46.618 958.492 46.618C959.071 46.618 959.575 46.7347 960.004 46.968C960.443 47.2013 960.793 47.4953 961.054 47.85V46.744H963.028V54.5H961.054V53.366C960.802 53.73 960.452 54.0333 960.004 54.276C959.566 54.5093 959.057 54.626 958.478 54.626C957.825 54.626 957.228 54.458 956.686 54.122C956.154 53.786 955.73 53.3147 955.412 52.708C955.104 52.092 954.95 51.3873 954.95 50.594ZM961.054 50.622C961.054 50.146 960.961 49.74 960.774 49.404C960.588 49.0587 960.336 48.7973 960.018 48.62C959.701 48.4333 959.36 48.34 958.996 48.34C958.632 48.34 958.296 48.4287 957.988 48.606C957.68 48.7833 957.428 49.0447 957.232 49.39C957.046 49.726 956.952 50.1273 956.952 50.594C956.952 51.0607 957.046 51.4713 957.232 51.826C957.428 52.1713 957.68 52.4373 957.988 52.624C958.306 52.8107 958.642 52.904 958.996 52.904C959.36 52.904 959.701 52.8153 960.018 52.638C960.336 52.4513 960.588 52.19 960.774 51.854C960.961 51.5087 961.054 51.098 961.054 50.622ZM970.239 44.14V54.5H968.279V44.14H970.239ZM975.619 54.626C974.872 54.626 974.2 54.4627 973.603 54.136C973.006 53.8 972.534 53.3287 972.189 52.722C971.853 52.1153 971.685 51.4153 971.685 50.622C971.685 49.8287 971.858 49.1287 972.203 48.522C972.558 47.9153 973.038 47.4487 973.645 47.122C974.252 46.786 974.928 46.618 975.675 46.618C976.422 46.618 977.098 46.786 977.705 47.122C978.312 47.4487 978.788 47.9153 979.133 48.522C979.488 49.1287 979.665 49.8287 979.665 50.622C979.665 51.4153 979.483 52.1153 979.119 52.722C978.764 53.3287 978.279 53.8 977.663 54.136C977.056 54.4627 976.375 54.626 975.619 54.626ZM975.619 52.918C975.974 52.918 976.305 52.834 976.613 52.666C976.93 52.4887 977.182 52.2273 977.369 51.882C977.556 51.5367 977.649 51.1167 977.649 50.622C977.649 49.8847 977.453 49.32 977.061 48.928C976.678 48.5267 976.207 48.326 975.647 48.326C975.087 48.326 974.616 48.5267 974.233 48.928C973.86 49.32 973.673 49.8847 973.673 50.622C973.673 51.3593 973.855 51.9287 974.219 52.33C974.592 52.722 975.059 52.918 975.619 52.918ZM983.935 50.608C983.935 49.8333 984.093 49.1473 984.411 48.55C984.737 47.9433 985.176 47.472 985.727 47.136C986.277 46.8 986.884 46.632 987.547 46.632C988.097 46.632 988.583 46.7393 989.003 46.954C989.432 47.1593 989.777 47.4253 990.039 47.752V46.744H992.013V58.196H990.039V53.436C989.777 53.772 989.427 54.052 988.989 54.276C988.55 54.5 988.055 54.612 987.505 54.612C986.851 54.612 986.249 54.444 985.699 54.108C985.157 53.7627 984.728 53.2867 984.411 52.68C984.093 52.0733 983.935 51.3827 983.935 50.608ZM990.039 50.622C990.039 50.146 989.941 49.7353 989.745 49.39C989.549 49.0447 989.292 48.7833 988.975 48.606C988.667 48.4287 988.335 48.34 987.981 48.34C987.635 48.34 987.304 48.4287 986.987 48.606C986.679 48.7833 986.427 49.0447 986.231 49.39C986.035 49.726 985.937 50.132 985.937 50.608C985.937 51.084 986.035 51.4993 986.231 51.854C986.427 52.1993 986.679 52.4607 986.987 52.638C987.304 52.8153 987.635 52.904 987.981 52.904C988.335 52.904 988.667 52.8153 988.975 52.638C989.292 52.4607 989.549 52.1993 989.745 51.854C989.941 51.5087 990.039 51.098 990.039 50.622ZM1001.25 46.744V54.5H999.275V53.52C999.023 53.856 998.692 54.122 998.281 54.318C997.88 54.5047 997.441 54.598 996.965 54.598C996.358 54.598 995.822 54.472 995.355 54.22C994.888 53.9587 994.52 53.5807 994.249 53.086C993.988 52.582 993.857 51.9847 993.857 51.294V46.744H995.817V51.014C995.817 51.63 995.971 52.106 996.279 52.442C996.587 52.7687 997.007 52.932 997.539 52.932C998.08 52.932 998.505 52.7687 998.813 52.442C999.121 52.106 999.275 51.63 999.275 51.014V46.744H1001.25ZM1010.39 50.454C1010.39 50.734 1010.37 50.986 1010.34 51.21H1004.67C1004.71 51.77 1004.91 52.2087 1005.25 52.526C1005.6 52.8433 1006.02 53.002 1006.53 53.002C1007.26 53.002 1007.77 52.6893 1008.08 52.064H1010.2C1009.97 52.8107 1009.54 53.4267 1008.91 53.912C1008.27 54.388 1007.49 54.626 1006.57 54.626C1005.82 54.626 1005.15 54.4627 1004.55 54.136C1003.97 53.8 1003.5 53.3287 1003.17 52.722C1002.84 52.1153 1002.68 51.4153 1002.68 50.622C1002.68 49.8193 1002.84 49.1147 1003.17 48.508C1003.5 47.9013 1003.95 47.4347 1004.54 47.108C1005.13 46.7813 1005.81 46.618 1006.57 46.618C1007.31 46.618 1007.97 46.7767 1008.54 47.094C1009.13 47.4113 1009.59 47.864 1009.9 48.452C1010.23 49.0307 1010.39 49.698 1010.39 50.454ZM1008.36 49.894C1008.35 49.39 1008.17 48.9887 1007.82 48.69C1007.46 48.382 1007.03 48.228 1006.51 48.228C1006.03 48.228 1005.62 48.3773 1005.28 48.676C1004.96 48.9653 1004.76 49.3713 1004.68 49.894H1008.36ZM1017.12 47.948C1017.37 47.5373 1017.7 47.2153 1018.1 46.982C1018.51 46.7487 1018.98 46.632 1019.5 46.632V48.69H1018.98C1018.37 48.69 1017.9 48.8347 1017.58 49.124C1017.27 49.4133 1017.12 49.9173 1017.12 50.636V54.5H1015.16V46.744H1017.12V47.948ZM1028.03 50.454C1028.03 50.734 1028.01 50.986 1027.97 51.21H1022.3C1022.35 51.77 1022.55 52.2087 1022.89 52.526C1023.24 52.8433 1023.66 53.002 1024.17 53.002C1024.89 53.002 1025.41 52.6893 1025.72 52.064H1027.83C1027.61 52.8107 1027.18 53.4267 1026.55 53.912C1025.91 54.388 1025.13 54.626 1024.21 54.626C1023.46 54.626 1022.79 54.4627 1022.19 54.136C1021.6 53.8 1021.14 53.3287 1020.81 52.722C1020.48 52.1153 1020.32 51.4153 1020.32 50.622C1020.32 49.8193 1020.48 49.1147 1020.81 48.508C1021.13 47.9013 1021.59 47.4347 1022.18 47.108C1022.77 46.7813 1023.44 46.618 1024.21 46.618C1024.94 46.618 1025.6 46.7767 1026.18 47.094C1026.77 47.4113 1027.22 47.864 1027.54 48.452C1027.87 49.0307 1028.03 49.698 1028.03 50.454ZM1026 49.894C1025.99 49.39 1025.81 48.9887 1025.45 48.69C1025.1 48.382 1024.66 48.228 1024.15 48.228C1023.67 48.228 1023.26 48.3773 1022.92 48.676C1022.59 48.9653 1022.39 49.3713 1022.32 49.894H1026ZM1028.96 50.622C1028.96 49.8193 1029.12 49.1193 1029.45 48.522C1029.77 47.9153 1030.23 47.4487 1030.8 47.122C1031.38 46.786 1032.05 46.618 1032.79 46.618C1033.75 46.618 1034.55 46.8607 1035.17 47.346C1035.81 47.822 1036.23 48.494 1036.45 49.362H1034.33C1034.22 49.026 1034.03 48.7647 1033.76 48.578C1033.5 48.382 1033.17 48.284 1032.78 48.284C1032.22 48.284 1031.77 48.4893 1031.45 48.9C1031.12 49.3013 1030.96 49.8753 1030.96 50.622C1030.96 51.3593 1031.12 51.9333 1031.45 52.344C1031.77 52.7453 1032.22 52.946 1032.78 52.946C1033.57 52.946 1034.09 52.5913 1034.33 51.882H1036.45C1036.23 52.722 1035.81 53.3893 1035.17 53.884C1034.54 54.3787 1033.74 54.626 1032.79 54.626C1032.05 54.626 1031.38 54.4627 1030.8 54.136C1030.23 53.8 1029.77 53.3333 1029.45 52.736C1029.12 52.1293 1028.96 51.4247 1028.96 50.622ZM1038.88 45.82C1038.53 45.82 1038.24 45.7127 1038.01 45.498C1037.78 45.274 1037.67 44.9987 1037.67 44.672C1037.67 44.3453 1037.78 44.0747 1038.01 43.86C1038.24 43.636 1038.53 43.524 1038.88 43.524C1039.22 43.524 1039.51 43.636 1039.73 43.86C1039.96 44.0747 1040.08 44.3453 1040.08 44.672C1040.08 44.9987 1039.96 45.274 1039.73 45.498C1039.51 45.7127 1039.22 45.82 1038.88 45.82ZM1039.84 46.744V54.5H1037.88V46.744H1039.84ZM1043.74 47.878C1043.99 47.5047 1044.34 47.2013 1044.77 46.968C1045.22 46.7347 1045.73 46.618 1046.3 46.618C1046.96 46.618 1047.56 46.7813 1048.09 47.108C1048.63 47.4347 1049.06 47.9013 1049.37 48.508C1049.68 49.1053 1049.84 49.8007 1049.84 50.594C1049.84 51.3873 1049.68 52.092 1049.37 52.708C1049.06 53.3147 1048.63 53.786 1048.09 54.122C1047.56 54.458 1046.96 54.626 1046.3 54.626C1045.72 54.626 1045.21 54.514 1044.77 54.29C1044.35 54.0567 1044 53.758 1043.74 53.394V54.5H1041.78V44.14H1043.74V47.878ZM1047.84 50.594C1047.84 50.1273 1047.74 49.726 1047.55 49.39C1047.36 49.0447 1047.11 48.7833 1046.79 48.606C1046.48 48.4287 1046.15 48.34 1045.78 48.34C1045.43 48.34 1045.09 48.4333 1044.77 48.62C1044.47 48.7973 1044.21 49.0587 1044.02 49.404C1043.83 49.7493 1043.74 50.1553 1043.74 50.622C1043.74 51.0887 1043.83 51.4947 1044.02 51.84C1044.21 52.1853 1044.47 52.4513 1044.77 52.638C1045.09 52.8153 1045.43 52.904 1045.78 52.904C1046.15 52.904 1046.48 52.8107 1046.79 52.624C1047.11 52.4373 1047.36 52.1713 1047.55 51.826C1047.74 51.4807 1047.84 51.07 1047.84 50.594ZM1058.48 50.454C1058.48 50.734 1058.46 50.986 1058.42 51.21H1052.75C1052.8 51.77 1052.99 52.2087 1053.34 52.526C1053.68 52.8433 1054.11 53.002 1054.61 53.002C1055.34 53.002 1055.86 52.6893 1056.17 52.064H1058.28C1058.06 52.8107 1057.63 53.4267 1056.99 53.912C1056.36 54.388 1055.58 54.626 1054.65 54.626C1053.91 54.626 1053.24 54.4627 1052.64 54.136C1052.05 53.8 1051.59 53.3287 1051.25 52.722C1050.93 52.1153 1050.76 51.4153 1050.76 50.622C1050.76 49.8193 1050.93 49.1147 1051.25 48.508C1051.58 47.9013 1052.04 47.4347 1052.62 47.108C1053.21 46.7813 1053.89 46.618 1054.65 46.618C1055.39 46.618 1056.05 46.7767 1056.63 47.094C1057.22 47.4113 1057.67 47.864 1057.99 48.452C1058.31 49.0307 1058.48 49.698 1058.48 50.454ZM1056.45 49.894C1056.44 49.39 1056.26 48.9887 1055.9 48.69C1055.55 48.382 1055.11 48.228 1054.6 48.228C1054.11 48.228 1053.7 48.3773 1053.37 48.676C1053.04 48.9653 1052.84 49.3713 1052.76 49.894H1056.45ZM1062.88 54.626C1062.24 54.626 1061.67 54.514 1061.17 54.29C1060.66 54.0567 1060.26 53.744 1059.96 53.352C1059.67 52.96 1059.52 52.526 1059.49 52.05H1061.46C1061.5 52.3487 1061.64 52.596 1061.9 52.792C1062.16 52.988 1062.48 53.086 1062.86 53.086C1063.23 53.086 1063.52 53.0113 1063.73 52.862C1063.94 52.7127 1064.05 52.5213 1064.05 52.288C1064.05 52.036 1063.92 51.8493 1063.66 51.728C1063.41 51.5973 1063 51.4573 1062.44 51.308C1061.86 51.168 1061.39 51.0233 1061.01 50.874C1060.65 50.7247 1060.33 50.496 1060.06 50.188C1059.8 49.88 1059.67 49.4647 1059.67 48.942C1059.67 48.5127 1059.79 48.1207 1060.03 47.766C1060.29 47.4113 1060.64 47.1313 1061.1 46.926C1061.56 46.7207 1062.11 46.618 1062.74 46.618C1063.66 46.618 1064.4 46.8513 1064.95 47.318C1065.5 47.7753 1065.8 48.396 1065.86 49.18H1063.98C1063.95 48.872 1063.82 48.6293 1063.59 48.452C1063.37 48.2653 1063.06 48.172 1062.68 48.172C1062.32 48.172 1062.05 48.2373 1061.85 48.368C1061.67 48.4987 1061.57 48.6807 1061.57 48.914C1061.57 49.1753 1061.7 49.376 1061.97 49.516C1062.23 49.6467 1062.63 49.782 1063.18 49.922C1063.74 50.062 1064.21 50.2067 1064.57 50.356C1064.93 50.5053 1065.25 50.7387 1065.51 51.056C1065.78 51.364 1065.92 51.7747 1065.93 52.288C1065.93 52.736 1065.8 53.1373 1065.55 53.492C1065.31 53.8467 1064.95 54.1267 1064.49 54.332C1064.03 54.528 1063.49 54.626 1062.88 54.626Z" fill="#5046AA"/>
<g clip-path="url(#clip1)">
<path d="M1155 43.9938C1157 43.9938 1159 46.0738 1159 48.5005V60.6338C1159 62.7138 1157 64.7938 1154.67 64.7938H1136.33C1134.33 64.7938 1132.33 62.7138 1132.33 60.2872V48.1538C1132.33 46.0738 1134.33 43.9938 1136.33 43.9938V38.7938C1136.33 33.9405 1141 30.1272 1145.67 30.1272C1150.33 30.1272 1155 33.9405 1155 38.7938V43.9938ZM1150.67 43.9938V38.7938C1150.67 36.0205 1148.33 34.2872 1145.67 34.2872C1143 34.2872 1140.67 36.0205 1140.67 38.7938V43.9938H1150.67ZM1089 12.7938H1149V23.5405L1145.67 23.1938C1142.93 23.1938 1140.37 23.8872 1138.1 25.0658C1136.6 23.8178 1135.67 21.8765 1135.67 19.7272H1102.33C1102.33 23.5752 1099.37 26.6605 1095.67 26.6605V40.5272C1097.43 40.5272 1099.13 41.2576 1100.38 42.5579C1101.63 43.8581 1102.33 45.6217 1102.33 47.4605H1125.8L1125.67 49.1938V54.3938H1089V12.7938ZM1119 23.1938C1124.53 23.1938 1129 27.8392 1129 33.5938C1129 39.3485 1124.53 43.9938 1119 43.9938C1113.47 43.9938 1109 39.3485 1109 33.5938C1109 27.8392 1113.47 23.1938 1119 23.1938Z" fill="#0F9B00"/>
</g>
<path d="M872.728 69.772C873.432 69.772 874.008 69.988 874.456 70.42C874.92 70.836 875.152 71.356 875.152 71.98C875.152 72.62 874.92 73.156 874.456 73.588C874.008 74.02 873.432 74.236 872.728 74.236C872.008 74.236 871.416 74.02 870.952 73.588C870.504 73.156 870.28 72.62 870.28 71.98C870.28 71.356 870.504 70.836 870.952 70.42C871.416 69.988 872.008 69.772 872.728 69.772ZM870.928 75.916H874.408L874.888 87.412H870.448L870.928 75.916ZM891.006 66.652V69.94H886.542V83.5H882.438V69.94H877.974V66.652H891.006ZM905.69 76.588C905.69 76.972 905.666 77.372 905.618 77.788H896.33C896.394 78.62 896.658 79.26 897.122 79.708C897.602 80.14 898.186 80.356 898.874 80.356C899.898 80.356 900.61 79.924 901.01 79.06H905.378C905.154 79.94 904.746 80.732 904.154 81.436C903.578 82.14 902.85 82.692 901.97 83.092C901.09 83.492 900.106 83.692 899.018 83.692C897.706 83.692 896.538 83.412 895.514 82.852C894.49 82.292 893.69 81.492 893.114 80.452C892.538 79.412 892.25 78.196 892.25 76.804C892.25 75.412 892.53 74.196 893.09 73.156C893.666 72.116 894.466 71.316 895.49 70.756C896.514 70.196 897.69 69.916 899.018 69.916C900.314 69.916 901.466 70.188 902.474 70.732C903.482 71.276 904.266 72.052 904.826 73.06C905.402 74.068 905.69 75.244 905.69 76.588ZM901.49 75.508C901.49 74.804 901.25 74.244 900.77 73.828C900.29 73.412 899.69 73.204 898.97 73.204C898.282 73.204 897.698 73.404 897.218 73.804C896.754 74.204 896.466 74.772 896.354 75.508H901.49ZM912.125 76.78C912.125 75.404 912.381 74.196 912.893 73.156C913.421 72.116 914.133 71.316 915.029 70.756C915.925 70.196 916.925 69.916 918.029 69.916C918.909 69.916 919.709 70.1 920.429 70.468C921.165 70.836 921.741 71.332 922.157 71.956V65.74H926.261V83.5H922.157V81.58C921.773 82.22 921.221 82.732 920.501 83.116C919.797 83.5 918.973 83.692 918.029 83.692C916.925 83.692 915.925 83.412 915.029 82.852C914.133 82.276 913.421 81.468 912.893 80.428C912.381 79.372 912.125 78.156 912.125 76.78ZM922.157 76.804C922.157 75.78 921.869 74.972 921.293 74.38C920.733 73.788 920.045 73.492 919.229 73.492C918.413 73.492 917.717 73.788 917.141 74.38C916.581 74.956 916.301 75.756 916.301 76.78C916.301 77.804 916.581 78.62 917.141 79.228C917.717 79.82 918.413 80.116 919.229 80.116C920.045 80.116 920.733 79.82 921.293 79.228C921.869 78.636 922.157 77.828 922.157 76.804ZM941.854 76.588C941.854 76.972 941.83 77.372 941.782 77.788H932.494C932.558 78.62 932.822 79.26 933.286 79.708C933.766 80.14 934.35 80.356 935.038 80.356C936.062 80.356 936.774 79.924 937.174 79.06H941.542C941.318 79.94 940.91 80.732 940.318 81.436C939.742 82.14 939.014 82.692 938.134 83.092C937.254 83.492 936.27 83.692 935.182 83.692C933.87 83.692 932.702 83.412 931.678 82.852C930.654 82.292 929.854 81.492 929.278 80.452C928.702 79.412 928.414 78.196 928.414 76.804C928.414 75.412 928.694 74.196 929.254 73.156C929.83 72.116 930.63 71.316 931.654 70.756C932.678 70.196 933.854 69.916 935.182 69.916C936.478 69.916 937.63 70.188 938.638 70.732C939.646 71.276 940.43 72.052 940.99 73.06C941.566 74.068 941.854 75.244 941.854 76.588ZM937.654 75.508C937.654 74.804 937.414 74.244 936.934 73.828C936.454 73.412 935.854 73.204 935.134 73.204C934.446 73.204 933.862 73.404 933.382 73.804C932.918 74.204 932.63 74.772 932.518 75.508H937.654ZM950.043 79.66L952.947 70.108H957.315L952.563 83.5H947.499L942.747 70.108H947.139L950.043 79.66ZM965.139 83.692C963.827 83.692 962.643 83.412 961.587 82.852C960.547 82.292 959.723 81.492 959.115 80.452C958.523 79.412 958.227 78.196 958.227 76.804C958.227 75.428 958.531 74.22 959.139 73.18C959.747 72.124 960.579 71.316 961.635 70.756C962.691 70.196 963.875 69.916 965.187 69.916C966.499 69.916 967.683 70.196 968.739 70.756C969.795 71.316 970.627 72.124 971.235 73.18C971.843 74.22 972.147 75.428 972.147 76.804C972.147 78.18 971.835 79.396 971.211 80.452C970.603 81.492 969.763 82.292 968.691 82.852C967.635 83.412 966.451 83.692 965.139 83.692ZM965.139 80.14C965.923 80.14 966.587 79.852 967.131 79.276C967.691 78.7 967.971 77.876 967.971 76.804C967.971 75.732 967.699 74.908 967.155 74.332C966.627 73.756 965.971 73.468 965.187 73.468C964.387 73.468 963.723 73.756 963.195 74.332C962.667 74.892 962.403 75.716 962.403 76.804C962.403 77.876 962.659 78.7 963.171 79.276C963.699 79.852 964.355 80.14 965.139 80.14ZM978.428 65.74V83.5H974.324V65.74H978.428ZM987.426 79.66L990.33 70.108H994.698L989.946 83.5H984.882L980.13 70.108H984.522L987.426 79.66ZM1009.05 76.588C1009.05 76.972 1009.03 77.372 1008.98 77.788H999.69C999.754 78.62 1000.02 79.26 1000.48 79.708C1000.96 80.14 1001.55 80.356 1002.23 80.356C1003.26 80.356 1003.97 79.924 1004.37 79.06H1008.74C1008.51 79.94 1008.11 80.732 1007.51 81.436C1006.94 82.14 1006.21 82.692 1005.33 83.092C1004.45 83.492 1003.47 83.692 1002.38 83.692C1001.07 83.692 999.898 83.412 998.874 82.852C997.85 82.292 997.05 81.492 996.474 80.452C995.898 79.412 995.61 78.196 995.61 76.804C995.61 75.412 995.89 74.196 996.45 73.156C997.026 72.116 997.826 71.316 998.85 70.756C999.874 70.196 1001.05 69.916 1002.38 69.916C1003.67 69.916 1004.83 70.188 1005.83 70.732C1006.84 71.276 1007.63 72.052 1008.19 73.06C1008.76 74.068 1009.05 75.244 1009.05 76.588ZM1004.85 75.508C1004.85 74.804 1004.61 74.244 1004.13 73.828C1003.65 73.412 1003.05 73.204 1002.33 73.204C1001.64 73.204 1001.06 73.404 1000.58 73.804C1000.11 74.204 999.826 74.772 999.714 75.508H1004.85ZM1028.3 69.964C1029.97 69.964 1031.29 70.468 1032.26 71.476C1033.25 72.484 1033.75 73.884 1033.75 75.676V83.5H1029.67V76.228C1029.67 75.364 1029.44 74.7 1028.97 74.236C1028.53 73.756 1027.9 73.516 1027.1 73.516C1026.3 73.516 1025.67 73.756 1025.21 74.236C1024.76 74.7 1024.53 75.364 1024.53 76.228V83.5H1020.45V76.228C1020.45 75.364 1020.22 74.7 1019.76 74.236C1019.31 73.756 1018.69 73.516 1017.89 73.516C1017.09 73.516 1016.45 73.756 1015.99 74.236C1015.54 74.7 1015.32 75.364 1015.32 76.228V83.5H1011.21V70.108H1015.32V71.788C1015.73 71.228 1016.28 70.788 1016.95 70.468C1017.62 70.132 1018.38 69.964 1019.23 69.964C1020.24 69.964 1021.13 70.18 1021.92 70.612C1022.72 71.044 1023.34 71.66 1023.79 72.46C1024.25 71.724 1024.89 71.124 1025.69 70.66C1026.49 70.196 1027.36 69.964 1028.3 69.964ZM1042.72 83.692C1041.4 83.692 1040.22 83.412 1039.16 82.852C1038.12 82.292 1037.3 81.492 1036.69 80.452C1036.1 79.412 1035.8 78.196 1035.8 76.804C1035.8 75.428 1036.11 74.22 1036.72 73.18C1037.32 72.124 1038.16 71.316 1039.21 70.756C1040.27 70.196 1041.45 69.916 1042.76 69.916C1044.08 69.916 1045.26 70.196 1046.32 70.756C1047.37 71.316 1048.2 72.124 1048.81 73.18C1049.42 74.22 1049.72 75.428 1049.72 76.804C1049.72 78.18 1049.41 79.396 1048.79 80.452C1048.18 81.492 1047.34 82.292 1046.27 82.852C1045.21 83.412 1044.03 83.692 1042.72 83.692ZM1042.72 80.14C1043.5 80.14 1044.16 79.852 1044.71 79.276C1045.27 78.7 1045.55 77.876 1045.55 76.804C1045.55 75.732 1045.28 74.908 1044.73 74.332C1044.2 73.756 1043.55 73.468 1042.76 73.468C1041.96 73.468 1041.3 73.756 1040.77 74.332C1040.24 74.892 1039.98 75.716 1039.98 76.804C1039.98 77.876 1040.24 78.7 1040.75 79.276C1041.28 79.852 1041.93 80.14 1042.72 80.14ZM1057.35 83.692C1056.18 83.692 1055.14 83.492 1054.23 83.092C1053.32 82.692 1052.6 82.148 1052.07 81.46C1051.54 80.756 1051.25 79.972 1051.18 79.108H1055.24C1055.29 79.572 1055.5 79.948 1055.89 80.236C1056.27 80.524 1056.74 80.668 1057.3 80.668C1057.81 80.668 1058.21 80.572 1058.48 80.38C1058.77 80.172 1058.91 79.908 1058.91 79.588C1058.91 79.204 1058.71 78.924 1058.31 78.748C1057.91 78.556 1057.26 78.348 1056.37 78.124C1055.41 77.9 1054.61 77.668 1053.97 77.428C1053.33 77.172 1052.77 76.78 1052.31 76.252C1051.85 75.708 1051.61 74.98 1051.61 74.068C1051.61 73.3 1051.82 72.604 1052.24 71.98C1052.67 71.34 1053.29 70.836 1054.11 70.468C1054.94 70.1 1055.93 69.916 1057.06 69.916C1058.74 69.916 1060.06 70.332 1061.02 71.164C1062 71.996 1062.56 73.1 1062.7 74.476H1058.91C1058.85 74.012 1058.64 73.644 1058.29 73.372C1057.95 73.1 1057.5 72.964 1056.94 72.964C1056.46 72.964 1056.09 73.06 1055.84 73.252C1055.58 73.428 1055.45 73.676 1055.45 73.996C1055.45 74.38 1055.65 74.668 1056.05 74.86C1056.47 75.052 1057.11 75.244 1057.97 75.436C1058.97 75.692 1059.77 75.948 1060.4 76.204C1061.02 76.444 1061.57 76.844 1062.03 77.404C1062.51 77.948 1062.76 78.684 1062.77 79.612C1062.77 80.396 1062.55 81.1 1062.1 81.724C1061.67 82.332 1061.04 82.812 1060.21 83.164C1059.39 83.516 1058.44 83.692 1057.35 83.692ZM1077.83 80.02V83.5H1075.75C1074.26 83.5 1073.1 83.14 1072.27 82.42C1071.43 81.684 1071.02 80.492 1071.02 78.844V73.516H1069.39V70.108H1071.02V66.844H1075.12V70.108H1077.81V73.516H1075.12V78.892C1075.12 79.292 1075.22 79.58 1075.41 79.756C1075.6 79.932 1075.92 80.02 1076.37 80.02H1077.83ZM1093.34 70.108V83.5H1089.24V81.676C1088.82 82.268 1088.26 82.748 1087.54 83.116C1086.83 83.468 1086.05 83.644 1085.18 83.644C1084.16 83.644 1083.26 83.42 1082.47 82.972C1081.69 82.508 1081.08 81.844 1080.65 80.98C1080.22 80.116 1080 79.1 1080 77.932V70.108H1084.08V77.38C1084.08 78.276 1084.31 78.972 1084.78 79.468C1085.24 79.964 1085.86 80.212 1086.65 80.212C1087.45 80.212 1088.08 79.964 1088.54 79.468C1089.01 78.972 1089.24 78.276 1089.24 77.38V70.108H1093.34ZM1100.56 76.78C1100.56 75.404 1100.82 74.196 1101.33 73.156C1101.86 72.116 1102.57 71.316 1103.47 70.756C1104.36 70.196 1105.36 69.916 1106.47 69.916C1107.35 69.916 1108.15 70.1 1108.87 70.468C1109.6 70.836 1110.18 71.332 1110.59 71.956V65.74H1114.7V83.5H1110.59V81.58C1110.21 82.22 1109.66 82.732 1108.94 83.116C1108.23 83.5 1107.41 83.692 1106.47 83.692C1105.36 83.692 1104.36 83.412 1103.47 82.852C1102.57 82.276 1101.86 81.468 1101.33 80.428C1100.82 79.372 1100.56 78.156 1100.56 76.78ZM1110.59 76.804C1110.59 75.78 1110.31 74.972 1109.73 74.38C1109.17 73.788 1108.48 73.492 1107.67 73.492C1106.85 73.492 1106.15 73.788 1105.58 74.38C1105.02 74.956 1104.74 75.756 1104.74 76.78C1104.74 77.804 1105.02 78.62 1105.58 79.228C1106.15 79.82 1106.85 80.116 1107.67 80.116C1108.48 80.116 1109.17 79.82 1109.73 79.228C1110.31 78.636 1110.59 77.828 1110.59 76.804ZM1119.73 68.716C1119.01 68.716 1118.42 68.508 1117.96 68.092C1117.51 67.66 1117.28 67.132 1117.28 66.508C1117.28 65.868 1117.51 65.34 1117.96 64.924C1118.42 64.492 1119.01 64.276 1119.73 64.276C1120.44 64.276 1121.01 64.492 1121.46 64.924C1121.92 65.34 1122.16 65.868 1122.16 66.508C1122.16 67.132 1121.92 67.66 1121.46 68.092C1121.01 68.508 1120.44 68.716 1119.73 68.716ZM1121.77 70.108V83.5H1117.67V70.108H1121.77ZM1132.91 69.964C1134.47 69.964 1135.72 70.476 1136.65 71.5C1137.59 72.508 1138.07 73.9 1138.07 75.676V83.5H1133.99V76.228C1133.99 75.332 1133.75 74.636 1133.29 74.14C1132.83 73.644 1132.2 73.396 1131.42 73.396C1130.63 73.396 1130.01 73.644 1129.55 74.14C1129.08 74.636 1128.85 75.332 1128.85 76.228V83.5H1124.75V70.108H1128.85V71.884C1129.27 71.292 1129.83 70.828 1130.53 70.492C1131.23 70.14 1132.03 69.964 1132.91 69.964ZM1153.54 76.588C1153.54 76.972 1153.52 77.372 1153.47 77.788H1144.18C1144.25 78.62 1144.51 79.26 1144.97 79.708C1145.45 80.14 1146.04 80.356 1146.73 80.356C1147.75 80.356 1148.46 79.924 1148.86 79.06H1153.23C1153.01 79.94 1152.6 80.732 1152.01 81.436C1151.43 82.14 1150.7 82.692 1149.82 83.092C1148.94 83.492 1147.96 83.692 1146.87 83.692C1145.56 83.692 1144.39 83.412 1143.37 82.852C1142.34 82.292 1141.54 81.492 1140.97 80.452C1140.39 79.412 1140.1 78.196 1140.1 76.804C1140.1 75.412 1140.38 74.196 1140.94 73.156C1141.52 72.116 1142.32 71.316 1143.34 70.756C1144.37 70.196 1145.54 69.916 1146.87 69.916C1148.17 69.916 1149.32 70.188 1150.33 70.732C1151.33 71.276 1152.12 72.052 1152.68 73.06C1153.25 74.068 1153.54 75.244 1153.54 76.588ZM1149.34 75.508C1149.34 74.804 1149.1 74.244 1148.62 73.828C1148.14 73.412 1147.54 73.204 1146.82 73.204C1146.13 73.204 1145.55 73.404 1145.07 73.804C1144.61 74.204 1144.32 74.772 1144.21 75.508H1149.34ZM1159.81 72.34C1160.29 71.604 1160.89 71.028 1161.61 70.612C1162.33 70.18 1163.13 69.964 1164.01 69.964V74.308H1162.88C1161.86 74.308 1161.09 74.532 1160.58 74.98C1160.07 75.412 1159.81 76.18 1159.81 77.284V83.5H1155.71V70.108H1159.81V72.34ZM1172.07 83.692C1170.76 83.692 1169.57 83.412 1168.52 82.852C1167.48 82.292 1166.65 81.492 1166.04 80.452C1165.45 79.412 1165.16 78.196 1165.16 76.804C1165.16 75.428 1165.46 74.22 1166.07 73.18C1166.68 72.124 1167.51 71.316 1168.56 70.756C1169.62 70.196 1170.8 69.916 1172.12 69.916C1173.43 69.916 1174.61 70.196 1175.67 70.756C1176.72 71.316 1177.56 72.124 1178.16 73.18C1178.77 74.22 1179.08 75.428 1179.08 76.804C1179.08 78.18 1178.76 79.396 1178.14 80.452C1177.53 81.492 1176.69 82.292 1175.62 82.852C1174.56 83.412 1173.38 83.692 1172.07 83.692ZM1172.07 80.14C1172.85 80.14 1173.52 79.852 1174.06 79.276C1174.62 78.7 1174.9 77.876 1174.9 76.804C1174.9 75.732 1174.63 74.908 1174.08 74.332C1173.56 73.756 1172.9 73.468 1172.12 73.468C1171.32 73.468 1170.65 73.756 1170.12 74.332C1169.6 74.892 1169.33 75.716 1169.33 76.804C1169.33 77.876 1169.59 78.7 1170.1 79.276C1170.63 79.852 1171.28 80.14 1172.07 80.14ZM1186.65 66.052L1186.17 77.548H1182.69L1182.21 66.052H1186.65ZM1184.49 83.692C1183.77 83.692 1183.18 83.484 1182.72 83.068C1182.27 82.636 1182.05 82.108 1182.05 81.484C1182.05 80.844 1182.27 80.308 1182.72 79.876C1183.18 79.444 1183.77 79.228 1184.49 79.228C1185.2 79.228 1185.77 79.444 1186.22 79.876C1186.69 80.308 1186.92 80.844 1186.92 81.484C1186.92 82.108 1186.69 82.636 1186.22 83.068C1185.77 83.484 1185.2 83.692 1184.49 83.692Z" fill="#FFC120"/>
<path d="M880.672 20.98C880.368 20.42 879.928 19.996 879.352 19.708C878.792 19.404 878.128 19.252 877.36 19.252C876.032 19.252 874.968 19.692 874.168 20.572C873.368 21.436 872.968 22.596 872.968 24.052C872.968 25.604 873.384 26.82 874.216 27.7C875.064 28.564 876.224 28.996 877.696 28.996C878.704 28.996 879.552 28.74 880.24 28.228C880.944 27.716 881.456 26.98 881.776 26.02H876.568V22.996H885.496V26.812C885.192 27.836 884.672 28.788 883.936 29.668C883.216 30.548 882.296 31.26 881.176 31.804C880.056 32.348 878.792 32.62 877.384 32.62C875.72 32.62 874.232 32.26 872.92 31.54C871.624 30.804 870.608 29.788 869.872 28.492C869.152 27.196 868.792 25.716 868.792 24.052C868.792 22.388 869.152 20.908 869.872 19.612C870.608 18.3 871.624 17.284 872.92 16.564C874.216 15.828 875.696 15.46 877.36 15.46C879.376 15.46 881.072 15.948 882.448 16.924C883.84 17.9 884.76 19.252 885.208 20.98H880.672ZM898.257 29.524H891.969L890.961 32.5H886.665L892.761 15.652H897.513L903.609 32.5H899.265L898.257 29.524ZM897.201 26.356L895.113 20.188L893.049 26.356H897.201ZM914.057 32.5L910.553 26.14H909.569V32.5H905.465V15.652H912.353C913.681 15.652 914.809 15.884 915.737 16.348C916.681 16.812 917.385 17.452 917.849 18.268C918.313 19.068 918.545 19.964 918.545 20.956C918.545 22.076 918.225 23.076 917.585 23.956C916.961 24.836 916.033 25.46 914.801 25.828L918.689 32.5H914.057ZM909.569 23.236H912.113C912.865 23.236 913.425 23.052 913.793 22.684C914.177 22.316 914.369 21.796 914.369 21.124C914.369 20.484 914.177 19.98 913.793 19.612C913.425 19.244 912.865 19.06 912.113 19.06H909.569V23.236ZM931.609 29.524H925.321L924.313 32.5H920.017L926.113 15.652H930.865L936.961 32.5H932.617L931.609 29.524ZM930.553 26.356L928.465 20.188L926.401 26.356H930.553ZM953.888 32.5H949.784L942.92 22.108V32.5H938.816V15.652H942.92L949.784 26.092V15.652H953.888V32.5ZM968.983 15.652V18.94H964.519V32.5H960.415V18.94H955.951V15.652H968.983ZM975.147 15.652V32.5H971.043V15.652H975.147ZM982.489 29.14H989.737V32.5H977.833V29.38L985.033 19.012H977.833V15.652H989.737V18.772L982.489 29.14ZM1002.91 29.524H996.618L995.61 32.5H991.314L997.41 15.652H1002.16L1008.26 32.5H1003.91L1002.91 29.524ZM1001.85 26.356L999.762 20.188L997.698 26.356H1001.85ZM1016.43 15.652C1018.2 15.652 1019.75 16.004 1021.08 16.708C1022.41 17.412 1023.43 18.404 1024.15 19.684C1024.89 20.948 1025.26 22.412 1025.26 24.076C1025.26 25.724 1024.89 27.188 1024.15 28.468C1023.43 29.748 1022.4 30.74 1021.06 31.444C1019.73 32.148 1018.19 32.5 1016.43 32.5H1010.11V15.652H1016.43ZM1016.16 28.948C1017.71 28.948 1018.92 28.524 1019.79 27.676C1020.65 26.828 1021.08 25.628 1021.08 24.076C1021.08 22.524 1020.65 21.316 1019.79 20.452C1018.92 19.588 1017.71 19.156 1016.16 19.156H1014.22V28.948H1016.16ZM1035.52 32.668C1033.93 32.668 1032.48 32.3 1031.15 31.564C1029.84 30.828 1028.79 29.804 1028.01 28.492C1027.24 27.164 1026.85 25.676 1026.85 24.028C1026.85 22.38 1027.24 20.9 1028.01 19.588C1028.79 18.276 1029.84 17.252 1031.15 16.516C1032.48 15.78 1033.93 15.412 1035.52 15.412C1037.1 15.412 1038.55 15.78 1039.86 16.516C1041.19 17.252 1042.23 18.276 1042.98 19.588C1043.75 20.9 1044.13 22.38 1044.13 24.028C1044.13 25.676 1043.75 27.164 1042.98 28.492C1042.21 29.804 1041.17 30.828 1039.86 31.564C1038.55 32.3 1037.1 32.668 1035.52 32.668ZM1035.52 28.924C1036.86 28.924 1037.93 28.476 1038.73 27.58C1039.55 26.684 1039.96 25.5 1039.96 24.028C1039.96 22.54 1039.55 21.356 1038.73 20.476C1037.93 19.58 1036.86 19.132 1035.52 19.132C1034.16 19.132 1033.07 19.572 1032.25 20.452C1031.45 21.332 1031.05 22.524 1031.05 24.028C1031.05 25.516 1031.45 26.708 1032.25 27.604C1033.07 28.484 1034.16 28.924 1035.52 28.924Z" fill="#5046AA"/>
<defs>
<clipPath id="clip0">
<rect width="36.78" height="40" fill="white" transform="translate(302 58.1812) rotate(-32)"/>
</clipPath>
<clipPath id="clip1">
<rect width="80" height="60" fill="white" transform="translate(1082 12.5)"/>
</clipPath>
</defs>
</svg>
