<svg width="371" height="94" viewBox="0 0 371 94" fill="none" xmlns="http://www.w3.org/2000/svg">
<path d="M89.924 15.188C89.924 13.62 90.232 12.2293 90.848 11.016C91.4827 9.80267 92.3413 8.86933 93.424 8.216C94.5067 7.56267 95.7107 7.236 97.036 7.236C98.044 7.236 99.0053 7.46 99.92 7.908C100.835 8.33733 101.563 8.916 102.104 9.644V2.28H106.08V23H102.104V20.704C101.619 21.4693 100.937 22.0853 100.06 22.552C99.1827 23.0187 98.1653 23.252 97.008 23.252C95.7013 23.252 94.5067 22.916 93.424 22.244C92.3413 21.572 91.4827 20.6293 90.848 19.416C90.232 18.184 89.924 16.7747 89.924 15.188ZM102.132 15.244C102.132 14.292 101.945 13.48 101.572 12.808C101.199 12.1173 100.695 11.5947 100.06 11.24C99.4253 10.8667 98.744 10.68 98.016 10.68C97.288 10.68 96.616 10.8573 96 11.212C95.384 11.5667 94.88 12.0893 94.488 12.78C94.1147 13.452 93.928 14.2547 93.928 15.188C93.928 16.1213 94.1147 16.9427 94.488 17.652C94.88 18.3427 95.384 18.8747 96 19.248C96.6347 19.6213 97.3067 19.808 98.016 19.808C98.744 19.808 99.4253 19.6307 100.06 19.276C100.695 18.9027 101.199 18.38 101.572 17.708C101.945 17.0173 102.132 16.196 102.132 15.244ZM124.329 14.908C124.329 15.468 124.291 15.972 124.217 16.42H112.877C112.97 17.54 113.362 18.4173 114.053 19.052C114.743 19.6867 115.593 20.004 116.601 20.004C118.057 20.004 119.093 19.3787 119.709 18.128H123.937C123.489 19.6213 122.63 20.8533 121.361 21.824C120.091 22.776 118.533 23.252 116.685 23.252C115.191 23.252 113.847 22.9253 112.653 22.272C111.477 21.6 110.553 20.6573 109.881 19.444C109.227 18.2307 108.901 16.8307 108.901 15.244C108.901 13.6387 109.227 12.2293 109.881 11.016C110.534 9.80267 111.449 8.86933 112.625 8.216C113.801 7.56267 115.154 7.236 116.685 7.236C118.159 7.236 119.475 7.55333 120.633 8.188C121.809 8.82267 122.714 9.728 123.349 10.904C124.002 12.0613 124.329 13.396 124.329 14.908ZM120.269 13.788C120.25 12.78 119.886 11.9773 119.177 11.38C118.467 10.764 117.599 10.456 116.573 10.456C115.602 10.456 114.781 10.7547 114.109 11.352C113.455 11.9307 113.054 12.7427 112.905 13.788H120.269ZM132.854 15.188C132.854 13.62 133.162 12.2293 133.778 11.016C134.412 9.80267 135.271 8.86933 136.354 8.216C137.436 7.56267 138.64 7.236 139.966 7.236C140.974 7.236 141.935 7.46 142.85 7.908C143.764 8.33733 144.492 8.916 145.034 9.644V2.28H149.01V23H145.034V20.704C144.548 21.4693 143.867 22.0853 142.99 22.552C142.112 23.0187 141.095 23.252 139.938 23.252C138.631 23.252 137.436 22.916 136.354 22.244C135.271 21.572 134.412 20.6293 133.778 19.416C133.162 18.184 132.854 16.7747 132.854 15.188ZM145.062 15.244C145.062 14.292 144.875 13.48 144.502 12.808C144.128 12.1173 143.624 11.5947 142.99 11.24C142.355 10.8667 141.674 10.68 140.946 10.68C140.218 10.68 139.546 10.8573 138.93 11.212C138.314 11.5667 137.81 12.0893 137.418 12.78C137.044 13.452 136.858 14.2547 136.858 15.188C136.858 16.1213 137.044 16.9427 137.418 17.652C137.81 18.3427 138.314 18.8747 138.93 19.248C139.564 19.6213 140.236 19.808 140.946 19.808C141.674 19.808 142.355 19.6307 142.99 19.276C143.624 18.9027 144.128 18.38 144.502 17.708C144.875 17.0173 145.062 16.196 145.062 15.244ZM167.258 14.908C167.258 15.468 167.221 15.972 167.146 16.42H155.806C155.9 17.54 156.292 18.4173 156.982 19.052C157.673 19.6867 158.522 20.004 159.53 20.004C160.986 20.004 162.022 19.3787 162.638 18.128H166.866C166.418 19.6213 165.56 20.8533 164.29 21.824C163.021 22.776 161.462 23.252 159.614 23.252C158.121 23.252 156.777 22.9253 155.582 22.272C154.406 21.6 153.482 20.6573 152.81 19.444C152.157 18.2307 151.83 16.8307 151.83 15.244C151.83 13.6387 152.157 12.2293 152.81 11.016C153.464 9.80267 154.378 8.86933 155.554 8.216C156.73 7.56267 158.084 7.236 159.614 7.236C161.089 7.236 162.405 7.55333 163.562 8.188C164.738 8.82267 165.644 9.728 166.278 10.904C166.932 12.0613 167.258 13.396 167.258 14.908ZM163.198 13.788C163.18 12.78 162.816 11.9773 162.106 11.38C161.397 10.764 160.529 10.456 159.502 10.456C158.532 10.456 157.71 10.7547 157.038 11.352C156.385 11.9307 155.984 12.7427 155.834 13.788H163.198ZM176.056 23.252C174.786 23.252 173.648 23.028 172.64 22.58C171.632 22.1133 170.829 21.488 170.232 20.704C169.653 19.92 169.336 19.052 169.28 18.1H173.228C173.302 18.6973 173.592 19.192 174.096 19.584C174.618 19.976 175.262 20.172 176.028 20.172C176.774 20.172 177.353 20.0227 177.764 19.724C178.193 19.4253 178.408 19.0427 178.408 18.576C178.408 18.072 178.146 17.6987 177.624 17.456C177.12 17.1947 176.308 16.9147 175.188 16.616C174.03 16.336 173.078 16.0467 172.332 15.748C171.604 15.4493 170.969 14.992 170.428 14.376C169.905 13.76 169.644 12.9293 169.644 11.884C169.644 11.0253 169.886 10.2413 170.372 9.532C170.876 8.82267 171.585 8.26267 172.5 7.852C173.433 7.44133 174.525 7.236 175.776 7.236C177.624 7.236 179.098 7.70267 180.2 8.636C181.301 9.55067 181.908 10.792 182.02 12.36H178.268C178.212 11.744 177.95 11.2587 177.484 10.904C177.036 10.5307 176.429 10.344 175.664 10.344C174.954 10.344 174.404 10.4747 174.012 10.736C173.638 10.9973 173.452 11.3613 173.452 11.828C173.452 12.3507 173.713 12.752 174.236 13.032C174.758 13.2933 175.57 13.564 176.672 13.844C177.792 14.124 178.716 14.4133 179.444 14.712C180.172 15.0107 180.797 15.4773 181.32 16.112C181.861 16.728 182.141 17.5493 182.16 18.576C182.16 19.472 181.908 20.2747 181.404 20.984C180.918 21.6933 180.209 22.2533 179.276 22.664C178.361 23.056 177.288 23.252 176.056 23.252ZM184.369 15.244C184.369 13.6387 184.696 12.2387 185.349 11.044C186.003 9.83067 186.908 8.89733 188.065 8.244C189.223 7.572 190.548 7.236 192.041 7.236C193.964 7.236 195.551 7.72133 196.801 8.692C198.071 9.644 198.92 10.988 199.349 12.724H195.121C194.897 12.052 194.515 11.5293 193.973 11.156C193.451 10.764 192.797 10.568 192.013 10.568C190.893 10.568 190.007 10.9787 189.353 11.8C188.7 12.6027 188.373 13.7507 188.373 15.244C188.373 16.7187 188.7 17.8667 189.353 18.688C190.007 19.4907 190.893 19.892 192.013 19.892C193.6 19.892 194.636 19.1827 195.121 17.764H199.349C198.92 19.444 198.071 20.7787 196.801 21.768C195.532 22.7573 193.945 23.252 192.041 23.252C190.548 23.252 189.223 22.9253 188.065 22.272C186.908 21.6 186.003 20.6667 185.349 19.472C184.696 18.2587 184.369 16.8493 184.369 15.244ZM216.865 7.488V23H212.917V21.04C212.413 21.712 211.75 22.244 210.929 22.636C210.126 23.0093 209.249 23.196 208.297 23.196C207.084 23.196 206.01 22.944 205.077 22.44C204.144 21.9173 203.406 21.1613 202.865 20.172C202.342 19.164 202.081 17.9693 202.081 16.588V7.488H206.001V16.028C206.001 17.26 206.309 18.212 206.925 18.884C207.541 19.5373 208.381 19.864 209.445 19.864C210.528 19.864 211.377 19.5373 211.993 18.884C212.609 18.212 212.917 17.26 212.917 16.028V7.488H216.865ZM235.153 14.908C235.153 15.468 235.115 15.972 235.041 16.42H223.701C223.794 17.54 224.186 18.4173 224.877 19.052C225.567 19.6867 226.417 20.004 227.425 20.004C228.881 20.004 229.917 19.3787 230.533 18.128H234.761C234.313 19.6213 233.454 20.8533 232.185 21.824C230.915 22.776 229.357 23.252 227.509 23.252C226.015 23.252 224.671 22.9253 223.477 22.272C222.301 21.6 221.377 20.6573 220.705 19.444C220.051 18.2307 219.725 16.8307 219.725 15.244C219.725 13.6387 220.051 12.2293 220.705 11.016C221.358 9.80267 222.273 8.86933 223.449 8.216C224.625 7.56267 225.978 7.236 227.509 7.236C228.983 7.236 230.299 7.55333 231.457 8.188C232.633 8.82267 233.538 9.728 234.173 10.904C234.826 12.0613 235.153 13.396 235.153 14.908ZM231.093 13.788C231.074 12.78 230.71 11.9773 230.001 11.38C229.291 10.764 228.423 10.456 227.397 10.456C226.426 10.456 225.605 10.7547 224.933 11.352C224.279 11.9307 223.878 12.7427 223.729 13.788H231.093ZM246.61 7.264C248.458 7.264 249.951 7.852 251.09 9.028C252.229 10.1853 252.798 11.8093 252.798 13.9V23H248.878V14.432C248.878 13.2 248.57 12.2573 247.954 11.604C247.338 10.932 246.498 10.596 245.434 10.596C244.351 10.596 243.493 10.932 242.858 11.604C242.242 12.2573 241.934 13.2 241.934 14.432V23H238.014V7.488H241.934V9.42C242.457 8.748 243.119 8.22533 243.922 7.852C244.743 7.46 245.639 7.264 246.61 7.264ZM261.09 10.708V18.212C261.09 18.7347 261.211 19.1173 261.454 19.36C261.715 19.584 262.144 19.696 262.742 19.696H264.562V23H262.098C258.794 23 257.142 21.3947 257.142 18.184V10.708H255.294V7.488H257.142V3.652H261.09V7.488H264.562V10.708H261.09ZM274.269 23.252C272.776 23.252 271.432 22.9253 270.237 22.272C269.043 21.6 268.1 20.6573 267.409 19.444C266.737 18.2307 266.401 16.8307 266.401 15.244C266.401 13.6573 266.747 12.2573 267.437 11.044C268.147 9.83067 269.108 8.89733 270.321 8.244C271.535 7.572 272.888 7.236 274.381 7.236C275.875 7.236 277.228 7.572 278.441 8.244C279.655 8.89733 280.607 9.83067 281.297 11.044C282.007 12.2573 282.361 13.6573 282.361 15.244C282.361 16.8307 281.997 18.2307 281.269 19.444C280.56 20.6573 279.589 21.6 278.357 22.272C277.144 22.9253 275.781 23.252 274.269 23.252ZM274.269 19.836C274.979 19.836 275.641 19.668 276.257 19.332C276.892 18.9773 277.396 18.4547 277.769 17.764C278.143 17.0733 278.329 16.2333 278.329 15.244C278.329 13.7693 277.937 12.64 277.153 11.856C276.388 11.0533 275.445 10.652 274.325 10.652C273.205 10.652 272.263 11.0533 271.497 11.856C270.751 12.64 270.377 13.7693 270.377 15.244C270.377 16.7187 270.741 17.8573 271.469 18.66C272.216 19.444 273.149 19.836 274.269 19.836ZM105.352 38.908C105.352 39.468 105.315 39.972 105.24 40.42H93.9C93.9933 41.54 94.3853 42.4173 95.076 43.052C95.7667 43.6867 96.616 44.004 97.624 44.004C99.08 44.004 100.116 43.3787 100.732 42.128H104.96C104.512 43.6213 103.653 44.8533 102.384 45.824C101.115 46.776 99.556 47.252 97.708 47.252C96.2147 47.252 94.8707 46.9253 93.676 46.272C92.5 45.6 91.576 44.6573 90.904 43.444C90.2507 42.2307 89.924 40.8307 89.924 39.244C89.924 37.6387 90.2507 36.2293 90.904 35.016C91.5573 33.8027 92.472 32.8693 93.648 32.216C94.824 31.5627 96.1773 31.236 97.708 31.236C99.1827 31.236 100.499 31.5533 101.656 32.188C102.832 32.8227 103.737 33.728 104.372 34.904C105.025 36.0613 105.352 37.396 105.352 38.908ZM101.292 37.788C101.273 36.78 100.909 35.9773 100.2 35.38C99.4907 34.764 98.6227 34.456 97.596 34.456C96.6253 34.456 95.804 34.7547 95.132 35.352C94.4787 35.9307 94.0773 36.7427 93.928 37.788H101.292ZM116.809 31.264C118.657 31.264 120.151 31.852 121.289 33.028C122.428 34.1853 122.997 35.8093 122.997 37.9V47H119.077V38.432C119.077 37.2 118.769 36.2573 118.153 35.604C117.537 34.932 116.697 34.596 115.633 34.596C114.551 34.596 113.692 34.932 113.057 35.604C112.441 36.2573 112.133 37.2 112.133 38.432V47H108.213V31.488H112.133V33.42C112.656 32.748 113.319 32.2253 114.121 31.852C114.943 31.46 115.839 31.264 116.809 31.264ZM137.961 34.708V42.212C137.961 42.7347 138.082 43.1173 138.325 43.36C138.586 43.584 139.016 43.696 139.613 43.696H141.433V47H138.969C135.665 47 134.013 45.3947 134.013 42.184V34.708H132.165V31.488H134.013V27.652H137.961V31.488H141.433V34.708H137.961ZM158.896 31.488V47H154.948V45.04C154.444 45.712 153.782 46.244 152.96 46.636C152.158 47.0093 151.28 47.196 150.328 47.196C149.115 47.196 148.042 46.944 147.108 46.44C146.175 45.9173 145.438 45.1613 144.896 44.172C144.374 43.164 144.112 41.9693 144.112 40.588V31.488H148.032V40.028C148.032 41.26 148.34 42.212 148.956 42.884C149.572 43.5373 150.412 43.864 151.476 43.864C152.559 43.864 153.408 43.5373 154.024 42.884C154.64 42.212 154.948 41.26 154.948 40.028V31.488H158.896ZM173.356 33.728C173.86 33.0187 174.551 32.4307 175.428 31.964C176.324 31.4787 177.341 31.236 178.48 31.236C179.805 31.236 181 31.5627 182.064 32.216C183.147 32.8693 183.996 33.8027 184.612 35.016C185.247 36.2107 185.564 37.6013 185.564 39.188C185.564 40.7747 185.247 42.184 184.612 43.416C183.996 44.6293 183.147 45.572 182.064 46.244C181 46.916 179.805 47.252 178.48 47.252C177.341 47.252 176.333 47.0187 175.456 46.552C174.597 46.0853 173.897 45.4973 173.356 44.788V54.392H169.436V31.488H173.356V33.728ZM181.56 39.188C181.56 38.2547 181.364 37.452 180.972 36.78C180.599 36.0893 180.095 35.5667 179.46 35.212C178.844 34.8573 178.172 34.68 177.444 34.68C176.735 34.68 176.063 34.8667 175.428 35.24C174.812 35.5947 174.308 36.1173 173.916 36.808C173.543 37.4987 173.356 38.3107 173.356 39.244C173.356 40.1773 173.543 40.9893 173.916 41.68C174.308 42.3707 174.812 42.9027 175.428 43.276C176.063 43.6307 176.735 43.808 177.444 43.808C178.172 43.808 178.844 43.6213 179.46 43.248C180.095 42.8747 180.599 42.3427 180.972 41.652C181.364 40.9613 181.56 40.14 181.56 39.188ZM192.332 33.896C192.836 33.0747 193.49 32.4307 194.292 31.964C195.114 31.4973 196.047 31.264 197.092 31.264V35.38H196.056C194.824 35.38 193.891 35.6693 193.256 36.248C192.64 36.8267 192.332 37.8347 192.332 39.272V47H188.412V31.488H192.332V33.896ZM201.721 29.64C201.03 29.64 200.451 29.4253 199.985 28.996C199.537 28.548 199.313 27.9973 199.313 27.344C199.313 26.6907 199.537 26.1493 199.985 25.72C200.451 25.272 201.03 25.048 201.721 25.048C202.411 25.048 202.981 25.272 203.429 25.72C203.895 26.1493 204.129 26.6907 204.129 27.344C204.129 27.9973 203.895 28.548 203.429 28.996C202.981 29.4253 202.411 29.64 201.721 29.64ZM203.653 31.488V47H199.733V31.488H203.653ZM226.79 31.264C228.694 31.264 230.224 31.852 231.382 33.028C232.558 34.1853 233.146 35.8093 233.146 37.9V47H229.226V38.432C229.226 37.2187 228.918 36.2947 228.302 35.66C227.686 35.0067 226.846 34.68 225.782 34.68C224.718 34.68 223.868 35.0067 223.234 35.66C222.618 36.2947 222.31 37.2187 222.31 38.432V47H218.39V38.432C218.39 37.2187 218.082 36.2947 217.466 35.66C216.85 35.0067 216.01 34.68 214.946 34.68C213.863 34.68 213.004 35.0067 212.37 35.66C211.754 36.2947 211.446 37.2187 211.446 38.432V47H207.526V31.488H211.446V33.364C211.95 32.7107 212.594 32.1973 213.378 31.824C214.18 31.4507 215.058 31.264 216.01 31.264C217.223 31.264 218.306 31.5253 219.258 32.048C220.21 32.552 220.947 33.28 221.47 34.232C221.974 33.336 222.702 32.6173 223.654 32.076C224.624 31.5347 225.67 31.264 226.79 31.264ZM251.286 38.908C251.286 39.468 251.248 39.972 251.174 40.42H239.834C239.927 41.54 240.319 42.4173 241.01 43.052C241.7 43.6867 242.55 44.004 243.558 44.004C245.014 44.004 246.05 43.3787 246.666 42.128H250.894C250.446 43.6213 249.587 44.8533 248.318 45.824C247.048 46.776 245.49 47.252 243.642 47.252C242.148 47.252 240.804 46.9253 239.61 46.272C238.434 45.6 237.51 44.6573 236.838 43.444C236.184 42.2307 235.858 40.8307 235.858 39.244C235.858 37.6387 236.184 36.2293 236.838 35.016C237.491 33.8027 238.406 32.8693 239.582 32.216C240.758 31.5627 242.111 31.236 243.642 31.236C245.116 31.236 246.432 31.5533 247.59 32.188C248.766 32.8227 249.671 33.728 250.306 34.904C250.959 36.0613 251.286 37.396 251.286 38.908ZM247.226 37.788C247.207 36.78 246.843 35.9773 246.134 35.38C245.424 34.764 244.556 34.456 243.53 34.456C242.559 34.456 241.738 34.7547 241.066 35.352C240.412 35.9307 240.011 36.7427 239.862 37.788H247.226ZM258.067 33.896C258.571 33.0747 259.224 32.4307 260.027 31.964C260.848 31.4973 261.782 31.264 262.827 31.264V35.38H261.791C260.559 35.38 259.626 35.6693 258.991 36.248C258.375 36.8267 258.067 37.8347 258.067 39.272V47H254.147V31.488H258.067V33.896ZM276.059 33.728C276.563 33.0187 277.254 32.4307 278.131 31.964C279.027 31.4787 280.044 31.236 281.183 31.236C282.508 31.236 283.703 31.5627 284.767 32.216C285.85 32.8693 286.699 33.8027 287.315 35.016C287.95 36.2107 288.267 37.6013 288.267 39.188C288.267 40.7747 287.95 42.184 287.315 43.416C286.699 44.6293 285.85 45.572 284.767 46.244C283.703 46.916 282.508 47.252 281.183 47.252C280.044 47.252 279.036 47.0187 278.159 46.552C277.3 46.0853 276.6 45.4973 276.059 44.788V54.392H272.139V31.488H276.059V33.728ZM284.263 39.188C284.263 38.2547 284.067 37.452 283.675 36.78C283.302 36.0893 282.798 35.5667 282.163 35.212C281.547 34.8573 280.875 34.68 280.147 34.68C279.438 34.68 278.766 34.8667 278.131 35.24C277.515 35.5947 277.011 36.1173 276.619 36.808C276.246 37.4987 276.059 38.3107 276.059 39.244C276.059 40.1773 276.246 40.9893 276.619 41.68C277.011 42.3707 277.515 42.9027 278.131 43.276C278.766 43.6307 279.438 43.808 280.147 43.808C280.875 43.808 281.547 43.6213 282.163 43.248C282.798 42.8747 283.302 42.3427 283.675 41.652C284.067 40.9613 284.263 40.14 284.263 39.188ZM305.536 38.908C305.536 39.468 305.498 39.972 305.424 40.42H294.084C294.177 41.54 294.569 42.4173 295.26 43.052C295.95 43.6867 296.8 44.004 297.808 44.004C299.264 44.004 300.3 43.3787 300.916 42.128H305.144C304.696 43.6213 303.837 44.8533 302.568 45.824C301.298 46.776 299.74 47.252 297.892 47.252C296.398 47.252 295.054 46.9253 293.86 46.272C292.684 45.6 291.76 44.6573 291.088 43.444C290.434 42.2307 290.108 40.8307 290.108 39.244C290.108 37.6387 290.434 36.2293 291.088 35.016C291.741 33.8027 292.656 32.8693 293.832 32.216C295.008 31.5627 296.361 31.236 297.892 31.236C299.366 31.236 300.682 31.5533 301.84 32.188C303.016 32.8227 303.921 33.728 304.556 34.904C305.209 36.0613 305.536 37.396 305.536 38.908ZM301.476 37.788C301.457 36.78 301.093 35.9773 300.384 35.38C299.674 34.764 298.806 34.456 297.78 34.456C296.809 34.456 295.988 34.7547 295.316 35.352C294.662 35.9307 294.261 36.7427 294.112 37.788H301.476ZM307.389 39.188C307.389 37.62 307.697 36.2293 308.313 35.016C308.948 33.8027 309.806 32.8693 310.889 32.216C311.972 31.5627 313.176 31.236 314.501 31.236C315.509 31.236 316.47 31.46 317.385 31.908C318.3 32.3373 319.028 32.916 319.569 33.644V26.28H323.545V47H319.569V44.704C319.084 45.4693 318.402 46.0853 317.525 46.552C316.648 47.0187 315.63 47.252 314.473 47.252C313.166 47.252 311.972 46.916 310.889 46.244C309.806 45.572 308.948 44.6293 308.313 43.416C307.697 42.184 307.389 40.7747 307.389 39.188ZM319.597 39.244C319.597 38.292 319.41 37.48 319.037 36.808C318.664 36.1173 318.16 35.5947 317.525 35.24C316.89 34.8667 316.209 34.68 315.481 34.68C314.753 34.68 314.081 34.8573 313.465 35.212C312.849 35.5667 312.345 36.0893 311.953 36.78C311.58 37.452 311.393 38.2547 311.393 39.188C311.393 40.1213 311.58 40.9427 311.953 41.652C312.345 42.3427 312.849 42.8747 313.465 43.248C314.1 43.6213 314.772 43.808 315.481 43.808C316.209 43.808 316.89 43.6307 317.525 43.276C318.16 42.9027 318.664 42.38 319.037 41.708C319.41 41.0173 319.597 40.196 319.597 39.244ZM329.361 29.64C328.671 29.64 328.092 29.4253 327.625 28.996C327.177 28.548 326.953 27.9973 326.953 27.344C326.953 26.6907 327.177 26.1493 327.625 25.72C328.092 25.272 328.671 25.048 329.361 25.048C330.052 25.048 330.621 25.272 331.069 25.72C331.536 26.1493 331.769 26.6907 331.769 27.344C331.769 27.9973 331.536 28.548 331.069 28.996C330.621 29.4253 330.052 29.64 329.361 29.64ZM331.293 31.488V47H327.373V31.488H331.293ZM334.158 39.188C334.158 37.62 334.466 36.2293 335.082 35.016C335.717 33.8027 336.576 32.8693 337.658 32.216C338.741 31.5627 339.945 31.236 341.27 31.236C342.278 31.236 343.24 31.46 344.154 31.908C345.069 32.3373 345.797 32.916 346.338 33.644V26.28H350.314V47H346.338V44.704C345.853 45.4693 345.172 46.0853 344.294 46.552C343.417 47.0187 342.4 47.252 341.242 47.252C339.936 47.252 338.741 46.916 337.658 46.244C336.576 45.572 335.717 44.6293 335.082 43.416C334.466 42.184 334.158 40.7747 334.158 39.188ZM346.366 39.244C346.366 38.292 346.18 37.48 345.806 36.808C345.433 36.1173 344.929 35.5947 344.294 35.24C343.66 34.8667 342.978 34.68 342.25 34.68C341.522 34.68 340.85 34.8573 340.234 35.212C339.618 35.5667 339.114 36.0893 338.722 36.78C338.349 37.452 338.162 38.2547 338.162 39.188C338.162 40.1213 338.349 40.9427 338.722 41.652C339.114 42.3427 339.618 42.8747 340.234 43.248C340.869 43.6213 341.541 43.808 342.25 43.808C342.978 43.808 343.66 43.6307 344.294 43.276C344.929 42.9027 345.433 42.38 345.806 41.708C346.18 41.0173 346.366 40.196 346.366 39.244ZM361.031 47.252C359.538 47.252 358.194 46.9253 356.999 46.272C355.804 45.6 354.862 44.6573 354.171 43.444C353.499 42.2307 353.163 40.8307 353.163 39.244C353.163 37.6573 353.508 36.2573 354.199 35.044C354.908 33.8307 355.87 32.8973 357.083 32.244C358.296 31.572 359.65 31.236 361.143 31.236C362.636 31.236 363.99 31.572 365.203 32.244C366.416 32.8973 367.368 33.8307 368.059 35.044C368.768 36.2573 369.123 37.6573 369.123 39.244C369.123 40.8307 368.759 42.2307 368.031 43.444C367.322 44.6573 366.351 45.6 365.119 46.272C363.906 46.9253 362.543 47.252 361.031 47.252ZM361.031 43.836C361.74 43.836 362.403 43.668 363.019 43.332C363.654 42.9773 364.158 42.4547 364.531 41.764C364.904 41.0733 365.091 40.2333 365.091 39.244C365.091 37.7693 364.699 36.64 363.915 35.856C363.15 35.0533 362.207 34.652 361.087 34.652C359.967 34.652 359.024 35.0533 358.259 35.856C357.512 36.64 357.139 37.7693 357.139 39.244C357.139 40.7187 357.503 41.8573 358.231 42.66C358.978 43.444 359.911 43.836 361.031 43.836Z" fill="#5046AA"/>
<path d="M2.482 43.794C3.34333 43.11 3.736 42.7933 3.66 42.844C6.14267 40.792 8.09333 39.1073 9.512 37.79C10.956 36.4727 12.172 35.092 13.16 33.648C14.148 32.204 14.642 30.798 14.642 29.43C14.642 28.3913 14.4013 27.5807 13.92 26.998C13.4387 26.4153 12.7167 26.124 11.754 26.124C10.7913 26.124 10.0313 26.4913 9.474 27.226C8.942 27.9353 8.676 28.9487 8.676 30.266H2.406C2.45667 28.1127 2.91267 26.314 3.774 24.87C4.66067 23.426 5.81333 22.362 7.232 21.678C8.676 20.994 10.272 20.652 12.02 20.652C15.0347 20.652 17.302 21.4247 18.822 22.97C20.3673 24.5153 21.14 26.5293 21.14 29.012C21.14 31.7227 20.2153 34.2433 18.366 36.574C16.5167 38.8793 14.1607 41.134 11.298 43.338H21.558V48.62H2.482V43.794ZM43.951 26.922H32.095V32.166C32.6017 31.6087 33.311 31.1527 34.223 30.798C35.135 30.4433 36.123 30.266 37.187 30.266C39.087 30.266 40.6577 30.6967 41.899 31.558C43.1657 32.4193 44.0903 33.534 44.673 34.902C45.2557 36.27 45.547 37.752 45.547 39.348C45.547 42.312 44.711 44.668 43.039 46.416C41.367 48.1387 39.011 49 35.971 49C33.9443 49 32.1837 48.658 30.689 47.974C29.1943 47.2647 28.0417 46.2893 27.231 45.048C26.4203 43.8067 25.977 42.3753 25.901 40.754H32.247C32.399 41.5393 32.7663 42.198 33.349 42.73C33.9317 43.2367 34.7297 43.49 35.743 43.49C36.9337 43.49 37.8203 43.11 38.403 42.35C38.9857 41.59 39.277 40.5767 39.277 39.31C39.277 38.0687 38.973 37.1187 38.365 36.46C37.757 35.8013 36.8703 35.472 35.705 35.472C34.8437 35.472 34.1343 35.6873 33.577 36.118C33.0197 36.5233 32.6523 37.068 32.475 37.752H26.205V21.222H43.951V26.922ZM48.6018 28.252C48.6018 26.2 49.1845 24.6167 50.3498 23.502C51.5405 22.3873 53.0732 21.83 54.9478 21.83C56.8225 21.83 58.3425 22.3873 59.5078 23.502C60.6732 24.6167 61.2558 26.2 61.2558 28.252C61.2558 30.304 60.6732 31.8873 59.5078 33.002C58.3425 34.1167 56.8225 34.674 54.9478 34.674C53.0732 34.674 51.5405 34.1167 50.3498 33.002C49.1845 31.8873 48.6018 30.304 48.6018 28.252ZM74.4038 22.248L59.7738 49H53.5038L68.1338 22.248H74.4038ZM54.9098 25.63C53.6938 25.63 53.0858 26.504 53.0858 28.252C53.0858 29.9747 53.6938 30.836 54.9098 30.836C55.4925 30.836 55.9485 30.6207 56.2778 30.19C56.6072 29.7593 56.7718 29.1133 56.7718 28.252C56.7718 26.504 56.1512 25.63 54.9098 25.63ZM66.6898 42.996C66.6898 40.944 67.2725 39.3607 68.4378 38.246C69.6032 37.1313 71.1232 36.574 72.9978 36.574C74.8725 36.574 76.3925 37.1313 77.5578 38.246C78.7232 39.3607 79.3058 40.944 79.3058 42.996C79.3058 45.048 78.7232 46.6313 77.5578 47.746C76.3925 48.8607 74.8725 49.418 72.9978 49.418C71.1232 49.418 69.6032 48.8607 68.4378 47.746C67.2725 46.6313 66.6898 45.048 66.6898 42.996ZM72.9598 40.374C72.3772 40.374 71.9212 40.5893 71.5918 41.02C71.2878 41.4507 71.1358 42.1093 71.1358 42.996C71.1358 44.7187 71.7438 45.58 72.9598 45.58C73.5425 45.58 73.9985 45.3647 74.3278 44.934C74.6572 44.5033 74.8218 43.8573 74.8218 42.996C74.8218 42.1347 74.6572 41.4887 74.3278 41.058C73.9985 40.602 73.5425 40.374 72.9598 40.374Z" fill="#5046AA"/>
<path d="M11.664 1.436V14H9.144V8.654H3.762V14H1.242V1.436H3.762V6.602H9.144V1.436H11.664ZM13.4963 8.978C13.4963 7.97 13.6943 7.076 14.0903 6.296C14.4983 5.516 15.0443 4.916 15.7283 4.496C16.4243 4.076 17.1983 3.866 18.0503 3.866C18.7943 3.866 19.4423 4.016 19.9943 4.316C20.5583 4.616 21.0083 4.994 21.3443 5.45V4.028H23.8823V14H21.3443V12.542C21.0203 13.01 20.5703 13.4 19.9943 13.712C19.4303 14.012 18.7763 14.162 18.0323 14.162C17.1923 14.162 16.4243 13.946 15.7283 13.514C15.0443 13.082 14.4983 12.476 14.0903 11.696C13.6943 10.904 13.4963 9.998 13.4963 8.978ZM21.3443 9.014C21.3443 8.402 21.2243 7.88 20.9843 7.448C20.7443 7.004 20.4203 6.668 20.0123 6.44C19.6043 6.2 19.1663 6.08 18.6983 6.08C18.2303 6.08 17.7983 6.194 17.4023 6.422C17.0063 6.65 16.6823 6.986 16.4303 7.43C16.1903 7.862 16.0703 8.378 16.0703 8.978C16.0703 9.578 16.1903 10.106 16.4303 10.562C16.6823 11.006 17.0063 11.348 17.4023 11.588C17.8103 11.828 18.2423 11.948 18.6983 11.948C19.1663 11.948 19.6043 11.834 20.0123 11.606C20.4203 11.366 20.7443 11.03 20.9843 10.598C21.2243 10.154 21.3443 9.626 21.3443 9.014ZM30.1596 14.162C29.3436 14.162 28.6116 14.018 27.9636 13.73C27.3156 13.43 26.7996 13.028 26.4156 12.524C26.0436 12.02 25.8396 11.462 25.8036 10.85H28.3416C28.3896 11.234 28.5756 11.552 28.8996 11.804C29.2356 12.056 29.6496 12.182 30.1416 12.182C30.6216 12.182 30.9936 12.086 31.2576 11.894C31.5336 11.702 31.6716 11.456 31.6716 11.156C31.6716 10.832 31.5036 10.592 31.1676 10.436C30.8436 10.268 30.3216 10.088 29.6016 9.896C28.8576 9.716 28.2456 9.53 27.7656 9.338C27.2976 9.146 26.8896 8.852 26.5416 8.456C26.2056 8.06 26.0376 7.526 26.0376 6.854C26.0376 6.302 26.1936 5.798 26.5056 5.342C26.8296 4.886 27.2856 4.526 27.8736 4.262C28.4736 3.998 29.1756 3.866 29.9796 3.866C31.1676 3.866 32.1156 4.166 32.8236 4.766C33.5316 5.354 33.9216 6.152 33.9936 7.16H31.5816C31.5456 6.764 31.3776 6.452 31.0776 6.224C30.7896 5.984 30.3996 5.864 29.9076 5.864C29.4516 5.864 29.0976 5.948 28.8456 6.116C28.6056 6.284 28.4856 6.518 28.4856 6.818C28.4856 7.154 28.6536 7.412 28.9896 7.592C29.3256 7.76 29.8476 7.934 30.5556 8.114C31.2756 8.294 31.8696 8.48 32.3376 8.672C32.8056 8.864 33.2076 9.164 33.5436 9.572C33.8916 9.968 34.0716 10.496 34.0836 11.156C34.0836 11.732 33.9216 12.248 33.5976 12.704C33.2856 13.16 32.8296 13.52 32.2296 13.784C31.6416 14.036 30.9516 14.162 30.1596 14.162ZM39.0862 6.098V10.922C39.0862 11.258 39.1642 11.504 39.3202 11.66C39.4882 11.804 39.7642 11.876 40.1482 11.876H41.3182V14H39.7342C37.6102 14 36.5482 12.968 36.5482 10.904V6.098H35.3602V4.028H36.5482V1.562H39.0862V4.028H41.3182V6.098H39.0862ZM42.4827 8.978C42.4827 7.97 42.6807 7.076 43.0767 6.296C43.4847 5.516 44.0307 4.916 44.7147 4.496C45.4107 4.076 46.1847 3.866 47.0367 3.866C47.7807 3.866 48.4287 4.016 48.9807 4.316C49.5447 4.616 49.9947 4.994 50.3307 5.45V4.028H52.8687V14H50.3307V12.542C50.0067 13.01 49.5567 13.4 48.9807 13.712C48.4167 14.012 47.7627 14.162 47.0187 14.162C46.1787 14.162 45.4107 13.946 44.7147 13.514C44.0307 13.082 43.4847 12.476 43.0767 11.696C42.6807 10.904 42.4827 9.998 42.4827 8.978ZM50.3307 9.014C50.3307 8.402 50.2107 7.88 49.9707 7.448C49.7307 7.004 49.4067 6.668 48.9987 6.44C48.5907 6.2 48.1527 6.08 47.6847 6.08C47.2167 6.08 46.7847 6.194 46.3887 6.422C45.9927 6.65 45.6687 6.986 45.4167 7.43C45.1767 7.862 45.0567 8.378 45.0567 8.978C45.0567 9.578 45.1767 10.106 45.4167 10.562C45.6687 11.006 45.9927 11.348 46.3887 11.588C46.7967 11.828 47.2287 11.948 47.6847 11.948C48.1527 11.948 48.5907 11.834 48.9987 11.606C49.4067 11.366 49.7307 11.03 49.9707 10.598C50.2107 10.154 50.3307 9.626 50.3307 9.014ZM69.033 4.028V14H66.495V12.74C66.171 13.172 65.745 13.514 65.217 13.766C64.701 14.006 64.137 14.126 63.525 14.126C62.745 14.126 62.055 13.964 61.455 13.64C60.855 13.304 60.381 12.818 60.033 12.182C59.697 11.534 59.529 10.766 59.529 9.878V4.028H62.049V9.518C62.049 10.31 62.247 10.922 62.643 11.354C63.039 11.774 63.579 11.984 64.263 11.984C64.959 11.984 65.505 11.774 65.901 11.354C66.297 10.922 66.495 10.31 66.495 9.518V4.028H69.033ZM77.0453 3.884C78.2333 3.884 79.1933 4.262 79.9253 5.018C80.6573 5.762 81.0233 6.806 81.0233 8.15V14H78.5033V8.492C78.5033 7.7 78.3053 7.094 77.9093 6.674C77.5133 6.242 76.9733 6.026 76.2893 6.026C75.5933 6.026 75.0413 6.242 74.6333 6.674C74.2373 7.094 74.0393 7.7 74.0393 8.492V14H71.5193V4.028H74.0393V5.27C74.3753 4.838 74.8013 4.502 75.3173 4.262C75.8453 4.01 76.4213 3.884 77.0453 3.884Z" fill="#5046AA"/>
<g clip-path="url(#clip0)">
<path d="M315.997 51.0709L317.28 53.1238L313.125 55.72L311.842 53.667L315.997 51.0709ZM321.189 59.3803L317.28 53.1238L319.332 51.841L323.242 58.0975L331.551 52.9052L332.834 54.9581L330.781 56.2409L333.377 60.3956L331.276 61.709L328.679 57.5543L324.525 60.1504L327.121 64.3051L325.068 65.5879L321.189 59.3803ZM315.476 68.7273L316.759 70.7802L312.604 73.3764L311.321 71.3234L315.476 68.7273ZM337.532 57.7995L335.43 59.1128L332.834 54.9581L336.989 52.362L338.302 54.4638L336.249 55.7466L337.532 57.7995ZM339.585 56.5167L338.302 54.4638L340.404 53.1504L346.879 63.5127L344.777 64.8261L339.585 56.5167ZM310.502 74.6897L312.604 73.3764L315.2 77.5311L313.098 78.8444L310.502 74.6897ZM321.408 73.6521L320.125 71.5992L318.072 72.882L316.759 70.7802L318.811 69.4974L311.023 57.0333L313.125 55.72L323.509 72.3388L321.408 73.6521ZM316.513 79.6329L315.2 77.5311L317.253 76.2483L318.566 78.3501L316.513 79.6329ZM330.26 73.8973L327.664 69.7426L329.717 68.4598L334.909 76.7692L332.856 78.052L330.26 73.8973ZM334.415 71.3012L331.819 67.1465L333.872 65.8637L339.064 74.1731L337.011 75.4559L334.415 71.3012ZM318.566 78.3501L320.668 77.0367L323.264 81.1914L321.162 82.5048L318.566 78.3501ZM339.34 65.3693L343.219 71.5769L341.166 72.8597L335.974 64.5503L338.026 63.2675L339.34 65.3693ZM345.321 70.2636L342.724 66.1089L344.777 64.8261L347.373 68.9808L345.321 70.2636ZM324.547 83.2443L323.264 81.1914L325.317 79.9086L326.6 81.9615L324.547 83.2443ZM327.913 84.0633L326.6 81.9615L328.702 80.6482L330.015 82.75L327.913 84.0633ZM345.845 75.7805L343.219 71.5769L345.321 70.2636L349.23 76.5201L345.075 79.1162L343.793 77.0633L345.845 75.7805ZM341.691 78.3767L340.377 76.2749L342.479 74.9615L343.793 77.0633L341.691 78.3767ZM335.483 82.2556L341.691 78.3767L342.974 80.4296L332.611 86.9047L330.015 82.75L332.068 81.4672L333.381 83.569L335.483 82.2556Z" fill="black"/>
</g>
<path d="M209.58 80.126C208.704 80.126 207.912 79.976 207.204 79.676C206.508 79.376 205.956 78.944 205.548 78.38C205.14 77.816 204.93 77.15 204.918 76.382H207.618C207.654 76.898 207.834 77.306 208.158 77.606C208.494 77.906 208.95 78.056 209.526 78.056C210.114 78.056 210.576 77.918 210.912 77.642C211.248 77.354 211.416 76.982 211.416 76.526C211.416 76.154 211.302 75.848 211.074 75.608C210.846 75.368 210.558 75.182 210.21 75.05C209.874 74.906 209.406 74.75 208.806 74.582C207.99 74.342 207.324 74.108 206.808 73.88C206.304 73.64 205.866 73.286 205.494 72.818C205.134 72.338 204.954 71.702 204.954 70.91C204.954 70.166 205.14 69.518 205.512 68.966C205.884 68.414 206.406 67.994 207.078 67.706C207.75 67.406 208.518 67.256 209.382 67.256C210.678 67.256 211.728 67.574 212.532 68.21C213.348 68.834 213.798 69.71 213.882 70.838H211.11C211.086 70.406 210.9 70.052 210.552 69.776C210.216 69.488 209.766 69.344 209.202 69.344C208.71 69.344 208.314 69.47 208.014 69.722C207.726 69.974 207.582 70.34 207.582 70.82C207.582 71.156 207.69 71.438 207.906 71.666C208.134 71.882 208.41 72.062 208.734 72.206C209.07 72.338 209.538 72.494 210.138 72.674C210.954 72.914 211.62 73.154 212.136 73.394C212.652 73.634 213.096 73.994 213.468 74.474C213.84 74.954 214.026 75.584 214.026 76.364C214.026 77.036 213.852 77.66 213.504 78.236C213.156 78.812 212.646 79.274 211.974 79.622C211.302 79.958 210.504 80.126 209.58 80.126ZM215.563 74.978C215.563 73.97 215.761 73.076 216.157 72.296C216.565 71.516 217.111 70.916 217.795 70.496C218.491 70.076 219.265 69.866 220.117 69.866C220.861 69.866 221.509 70.016 222.061 70.316C222.625 70.616 223.075 70.994 223.411 71.45V70.028H225.949V80H223.411V78.542C223.087 79.01 222.637 79.4 222.061 79.712C221.497 80.012 220.843 80.162 220.099 80.162C219.259 80.162 218.491 79.946 217.795 79.514C217.111 79.082 216.565 78.476 216.157 77.696C215.761 76.904 215.563 75.998 215.563 74.978ZM223.411 75.014C223.411 74.402 223.291 73.88 223.051 73.448C222.811 73.004 222.487 72.668 222.079 72.44C221.671 72.2 221.233 72.08 220.765 72.08C220.297 72.08 219.865 72.194 219.469 72.422C219.073 72.65 218.749 72.986 218.497 73.43C218.257 73.862 218.137 74.378 218.137 74.978C218.137 75.578 218.257 76.106 218.497 76.562C218.749 77.006 219.073 77.348 219.469 77.588C219.877 77.828 220.309 77.948 220.765 77.948C221.233 77.948 221.671 77.834 222.079 77.606C222.487 77.366 222.811 77.03 223.051 76.598C223.291 76.154 223.411 75.626 223.411 75.014ZM230.93 71.486C231.254 71.006 231.698 70.616 232.262 70.316C232.838 70.016 233.492 69.866 234.224 69.866C235.076 69.866 235.844 70.076 236.528 70.496C237.224 70.916 237.77 71.516 238.166 72.296C238.574 73.064 238.778 73.958 238.778 74.978C238.778 75.998 238.574 76.904 238.166 77.696C237.77 78.476 237.224 79.082 236.528 79.514C235.844 79.946 235.076 80.162 234.224 80.162C233.48 80.162 232.826 80.018 232.262 79.73C231.71 79.43 231.266 79.046 230.93 78.578V80H228.41V66.68H230.93V71.486ZM236.204 74.978C236.204 74.378 236.078 73.862 235.826 73.43C235.586 72.986 235.262 72.65 234.854 72.422C234.458 72.194 234.026 72.08 233.558 72.08C233.102 72.08 232.67 72.2 232.262 72.44C231.866 72.668 231.542 73.004 231.29 73.448C231.05 73.892 230.93 74.414 230.93 75.014C230.93 75.614 231.05 76.136 231.29 76.58C231.542 77.024 231.866 77.366 232.262 77.606C232.67 77.834 233.102 77.948 233.558 77.948C234.026 77.948 234.458 77.828 234.854 77.588C235.262 77.348 235.586 77.006 235.826 76.562C236.078 76.118 236.204 75.59 236.204 74.978ZM249.879 74.798C249.879 75.158 249.855 75.482 249.807 75.77H242.517C242.577 76.49 242.829 77.054 243.273 77.462C243.717 77.87 244.263 78.074 244.911 78.074C245.847 78.074 246.513 77.672 246.909 76.868H249.627C249.339 77.828 248.787 78.62 247.971 79.244C247.155 79.856 246.153 80.162 244.965 80.162C244.005 80.162 243.141 79.952 242.373 79.532C241.617 79.1 241.023 78.494 240.591 77.714C240.171 76.934 239.961 76.034 239.961 75.014C239.961 73.982 240.171 73.076 240.591 72.296C241.011 71.516 241.599 70.916 242.355 70.496C243.111 70.076 243.981 69.866 244.965 69.866C245.913 69.866 246.759 70.07 247.503 70.478C248.259 70.886 248.841 71.468 249.249 72.224C249.669 72.968 249.879 73.826 249.879 74.798ZM247.269 74.078C247.257 73.43 247.023 72.914 246.567 72.53C246.111 72.134 245.553 71.936 244.893 71.936C244.269 71.936 243.741 72.128 243.309 72.512C242.889 72.884 242.631 73.406 242.535 74.078H247.269ZM254.239 71.576C254.563 71.048 254.983 70.634 255.499 70.334C256.027 70.034 256.627 69.884 257.299 69.884V72.53H256.633C255.841 72.53 255.241 72.716 254.833 73.088C254.437 73.46 254.239 74.108 254.239 75.032V80H251.719V70.028H254.239V71.576ZM275.669 69.884C276.893 69.884 277.877 70.262 278.621 71.018C279.377 71.762 279.755 72.806 279.755 74.15V80H277.235V74.492C277.235 73.712 277.037 73.118 276.641 72.71C276.245 72.29 275.705 72.08 275.021 72.08C274.337 72.08 273.791 72.29 273.383 72.71C272.987 73.118 272.789 73.712 272.789 74.492V80H270.269V74.492C270.269 73.712 270.071 73.118 269.675 72.71C269.279 72.29 268.739 72.08 268.055 72.08C267.359 72.08 266.807 72.29 266.399 72.71C266.003 73.118 265.805 73.712 265.805 74.492V80H263.285V70.028H265.805V71.234C266.129 70.814 266.543 70.484 267.047 70.244C267.563 70.004 268.127 69.884 268.739 69.884C269.519 69.884 270.215 70.052 270.827 70.388C271.439 70.712 271.913 71.18 272.249 71.792C272.573 71.216 273.041 70.754 273.653 70.406C274.277 70.058 274.949 69.884 275.669 69.884ZM281.498 74.978C281.498 73.97 281.696 73.076 282.092 72.296C282.5 71.516 283.046 70.916 283.73 70.496C284.426 70.076 285.2 69.866 286.052 69.866C286.796 69.866 287.444 70.016 287.996 70.316C288.56 70.616 289.01 70.994 289.346 71.45V70.028H291.884V80H289.346V78.542C289.022 79.01 288.572 79.4 287.996 79.712C287.432 80.012 286.778 80.162 286.034 80.162C285.194 80.162 284.426 79.946 283.73 79.514C283.046 79.082 282.5 78.476 282.092 77.696C281.696 76.904 281.498 75.998 281.498 74.978ZM289.346 75.014C289.346 74.402 289.226 73.88 288.986 73.448C288.746 73.004 288.422 72.668 288.014 72.44C287.606 72.2 287.168 72.08 286.7 72.08C286.232 72.08 285.8 72.194 285.404 72.422C285.008 72.65 284.684 72.986 284.432 73.43C284.192 73.862 284.072 74.378 284.072 74.978C284.072 75.578 284.192 76.106 284.432 76.562C284.684 77.006 285.008 77.348 285.404 77.588C285.812 77.828 286.244 77.948 286.7 77.948C287.168 77.948 287.606 77.834 288.014 77.606C288.422 77.366 288.746 77.03 288.986 76.598C289.226 76.154 289.346 75.626 289.346 75.014ZM289.004 67.436L284.864 69.326V67.526L289.004 65.384V67.436ZM298.162 80.162C297.346 80.162 296.614 80.018 295.966 79.73C295.318 79.43 294.802 79.028 294.418 78.524C294.046 78.02 293.842 77.462 293.806 76.85H296.344C296.392 77.234 296.578 77.552 296.902 77.804C297.238 78.056 297.652 78.182 298.144 78.182C298.624 78.182 298.996 78.086 299.26 77.894C299.536 77.702 299.674 77.456 299.674 77.156C299.674 76.832 299.506 76.592 299.17 76.436C298.846 76.268 298.324 76.088 297.604 75.896C296.86 75.716 296.248 75.53 295.768 75.338C295.3 75.146 294.892 74.852 294.544 74.456C294.208 74.06 294.04 73.526 294.04 72.854C294.04 72.302 294.196 71.798 294.508 71.342C294.832 70.886 295.288 70.526 295.876 70.262C296.476 69.998 297.178 69.866 297.982 69.866C299.17 69.866 300.118 70.166 300.826 70.766C301.534 71.354 301.924 72.152 301.996 73.16H299.584C299.548 72.764 299.38 72.452 299.08 72.224C298.792 71.984 298.402 71.864 297.91 71.864C297.454 71.864 297.1 71.948 296.848 72.116C296.608 72.284 296.488 72.518 296.488 72.818C296.488 73.154 296.656 73.412 296.992 73.592C297.328 73.76 297.85 73.934 298.558 74.114C299.278 74.294 299.872 74.48 300.34 74.672C300.808 74.864 301.21 75.164 301.546 75.572C301.894 75.968 302.074 76.496 302.086 77.156C302.086 77.732 301.924 78.248 301.6 78.704C301.288 79.16 300.832 79.52 300.232 79.784C299.644 80.036 298.954 80.162 298.162 80.162Z" fill="#FFC120"/>
<defs>
<clipPath id="clip0">
<rect width="36.78" height="40" fill="white" transform="translate(301 59.4904) rotate(-32)"/>
</clipPath>
</defs>
</svg>
