<svg width="32" height="32" viewBox="0 0 32 32" fill="none" xmlns="http://www.w3.org/2000/svg">
<g clip-path="url(#clip0)">
<path d="M10.6667 11.7333H12.8H10.6667ZM19.2 20.2667H21.3333H19.2ZM21.3333 10.6667L10.6667 21.3333L21.3333 10.6667ZM14.5088 1.68532L12.1003 4.08959C11.7055 4.48502 11.1699 4.70755 10.6112 4.70825H6.81812C6.25911 4.70825 5.723 4.93032 5.32773 5.32559C4.93245 5.72087 4.71039 6.25698 4.71039 6.81599V10.6091C4.70968 11.1678 4.48716 11.7034 4.09172 12.0981L1.68532 14.5109C1.2902 14.9062 1.06824 15.4422 1.06824 16.0011C1.06824 16.5599 1.2902 17.0959 1.68532 17.4912L4.09599 19.8997C4.49065 20.2944 4.71252 20.8299 4.71252 21.3888V25.1819C4.71252 26.3467 5.65545 27.2896 6.82025 27.2896H10.6133C11.1723 27.2896 11.7077 27.5115 12.1024 27.9083L14.5131 30.3168C14.9083 30.7119 15.4443 30.9339 16.0032 30.9339C16.5621 30.9339 17.0981 30.7119 17.4933 30.3168L19.9019 27.9061C20.2969 27.5115 20.8325 27.2897 21.3909 27.2896H25.184C25.743 27.2896 26.2791 27.0675 26.6744 26.6722C27.0697 26.277 27.2917 25.7409 27.2917 25.1819V21.3888C27.2917 20.8299 27.5136 20.2944 27.9104 19.8997L30.3189 17.4891C30.714 17.0938 30.936 16.5578 30.936 15.9989C30.936 15.44 30.714 14.904 30.3189 14.5088L27.9083 12.1003C27.5136 11.7052 27.2919 11.1696 27.2917 10.6112V6.81812C27.2917 6.25911 27.0697 5.723 26.6744 5.32773C26.2791 4.93245 25.743 4.71039 25.184 4.71039H21.3909C20.8322 4.70968 20.2966 4.48716 19.9019 4.09172L17.4891 1.68532C17.0938 1.2902 16.5578 1.06824 15.9989 1.06824C15.44 1.06824 14.904 1.2902 14.5088 1.68532V1.68532Z" stroke="white" stroke-width="2.13333"/>
</g>
<defs>
<clipPath id="clip0">
<rect width="32" height="32" fill="white"/>
</clipPath>
</defs>
</svg>
