<svg width="30" height="33" viewBox="0 0 30 33" fill="none" xmlns="http://www.w3.org/2000/svg">
<path d="M28.7494 5.5H1.24939C0.917869 5.5 0.599927 5.6317 0.365506 5.86612C0.131086 6.10054 -0.000610352 6.41848 -0.000610352 6.75C-0.000610352 7.08152 0.131086 7.39946 0.365506 7.63388C0.599927 7.8683 0.917869 8 1.24939 8H2.49939V30.5C2.50013 31.1628 2.76377 31.7983 3.23244 32.2669C3.70112 32.7356 4.33658 32.9993 4.99939 33H24.9994C25.6622 32.9993 26.2977 32.7356 26.7663 32.2669C27.235 31.7983 27.4986 31.1628 27.4994 30.5V8H28.7494C29.0809 8 29.3989 7.8683 29.6333 7.63388C29.8677 7.39946 29.9994 7.08152 29.9994 6.75C29.9994 6.41848 29.8677 6.10054 29.6333 5.86612C29.3989 5.6317 29.0809 5.5 28.7494 5.5ZM24.9994 30.5H4.99939V8H24.9994V30.5ZM10 24.25V14.25C10 13.9185 10.1317 13.6005 10.3661 13.3661C10.6006 13.1317 10.9185 13 11.25 13C11.5815 13 11.8995 13.1317 12.1339 13.3661C12.3683 13.6005 12.5 13.9185 12.5 14.25V24.25C12.5 24.5815 12.3683 24.8995 12.1339 25.1339C11.8995 25.3683 11.5815 25.5 11.25 25.5C10.9185 25.5 10.6006 25.3683 10.3661 25.1339C10.1317 24.8995 10 24.5815 10 24.25ZM17.5 24.25V14.25C17.5 13.9185 17.6317 13.6005 17.8661 13.3661C18.1006 13.1317 18.4185 13 18.75 13C19.0815 13 19.3995 13.1317 19.6339 13.3661C19.8683 13.6005 20 13.9185 20 14.25V24.25C20 24.5815 19.8683 24.8995 19.6339 25.1339C19.3995 25.3683 19.0815 25.5 18.75 25.5C18.4185 25.5 18.1006 25.3683 17.8661 25.1339C17.6317 24.8995 17.5 24.5815 17.5 24.25ZM7.50001 1.75C7.50001 1.41848 7.63171 1.10054 7.86613 0.866116C8.10055 0.631696 8.41849 0.5 8.75001 0.5H21.25C21.5815 0.5 21.8995 0.631696 22.1339 0.866116C22.3683 1.10054 22.5 1.41848 22.5 1.75C22.5 2.08152 22.3683 2.39946 22.1339 2.63388C21.8995 2.8683 21.5815 3 21.25 3H8.75001C8.41849 3 8.10055 2.8683 7.86613 2.63388C7.63171 2.39946 7.50001 2.08152 7.50001 1.75Z" fill="white"/>
</svg>
