<svg width="360" height="179" viewBox="0 0 360 179" fill="none" xmlns="http://www.w3.org/2000/svg">
<path d="M0.888 25.776V2.87998H40.776V108H15.144V25.776H0.888Z" fill="#5046AA"/>
<path d="M57.6206 54C57.6206 37.488 60.7886 24.48 67.1246 14.976C73.5566 5.47197 83.8766 0.719971 98.0846 0.719971C112.293 0.719971 122.565 5.47197 128.901 14.976C135.333 24.48 138.549 37.488 138.549 54C138.549 70.704 135.333 83.808 128.901 93.312C122.565 102.816 112.293 107.568 98.0846 107.568C83.8766 107.568 73.5566 102.816 67.1246 93.312C60.7886 83.808 57.6206 70.704 57.6206 54ZM114.357 54C114.357 44.304 113.301 36.864 111.189 31.68C109.077 26.4 104.709 23.76 98.0846 23.76C91.4606 23.76 87.0926 26.4 84.9806 31.68C82.8686 36.864 81.8126 44.304 81.8126 54C81.8126 60.528 82.1966 65.952 82.9646 70.272C83.7326 74.496 85.2686 77.952 87.5726 80.64C89.9726 83.232 93.4766 84.528 98.0846 84.528C102.693 84.528 106.149 83.232 108.453 80.64C110.853 77.952 112.437 74.496 113.205 70.272C113.973 65.952 114.357 60.528 114.357 54Z" fill="#5046AA"/>
<path d="M151.558 54C151.558 37.488 154.726 24.48 161.062 14.976C167.494 5.47197 177.814 0.719971 192.022 0.719971C206.23 0.719971 216.502 5.47197 222.838 14.976C229.27 24.48 232.486 37.488 232.486 54C232.486 70.704 229.27 83.808 222.838 93.312C216.502 102.816 206.23 107.568 192.022 107.568C177.814 107.568 167.494 102.816 161.062 93.312C154.726 83.808 151.558 70.704 151.558 54ZM208.294 54C208.294 44.304 207.238 36.864 205.126 31.68C203.014 26.4 198.646 23.76 192.022 23.76C185.398 23.76 181.03 26.4 178.918 31.68C176.806 36.864 175.75 44.304 175.75 54C175.75 60.528 176.134 65.952 176.902 70.272C177.67 74.496 179.206 77.952 181.51 80.64C183.91 83.232 187.414 84.528 192.022 84.528C196.63 84.528 200.086 83.232 202.39 80.64C204.79 77.952 206.374 74.496 207.142 70.272C207.91 65.952 208.294 60.528 208.294 54Z" fill="#5046AA"/>
<path d="M243.48 29.376C243.48 21.6 245.688 15.6 250.104 11.376C254.616 7.15198 260.424 5.03998 267.528 5.03998C274.632 5.03998 280.392 7.15198 284.808 11.376C289.224 15.6 291.432 21.6 291.432 29.376C291.432 37.152 289.224 43.152 284.808 47.376C280.392 51.6 274.632 53.712 267.528 53.712C260.424 53.712 254.616 51.6 250.104 47.376C245.688 43.152 243.48 37.152 243.48 29.376ZM341.256 6.62397L285.816 108H262.056L317.496 6.62397H341.256ZM267.384 19.44C262.776 19.44 260.472 22.752 260.472 29.376C260.472 35.904 262.776 39.168 267.384 39.168C269.592 39.168 271.32 38.352 272.568 36.72C273.816 35.088 274.44 32.64 274.44 29.376C274.44 22.752 272.088 19.44 267.384 19.44ZM312.024 85.248C312.024 77.472 314.232 71.472 318.648 67.248C323.064 63.024 328.824 60.912 335.928 60.912C343.032 60.912 348.792 63.024 353.208 67.248C357.624 71.472 359.832 77.472 359.832 85.248C359.832 93.024 357.624 99.024 353.208 103.248C348.792 107.472 343.032 109.584 335.928 109.584C328.824 109.584 323.064 107.472 318.648 103.248C314.232 99.024 312.024 93.024 312.024 85.248ZM335.784 75.312C333.576 75.312 331.848 76.128 330.6 77.76C329.448 79.392 328.872 81.888 328.872 85.248C328.872 91.776 331.176 95.04 335.784 95.04C337.992 95.04 339.72 94.224 340.968 92.592C342.216 90.96 342.84 88.512 342.84 85.248C342.84 81.984 342.216 79.536 340.968 77.904C339.72 76.176 337.992 75.312 335.784 75.312Z" fill="#5046AA"/>
<path d="M38.936 170.064H22.168L19.48 178H8.024L24.28 133.072H36.952L53.208 178H41.624L38.936 170.064ZM36.12 161.616L30.552 145.168L25.048 161.616H36.12Z" fill="#5046AA"/>
<path d="M91.622 168.72V178H86.054C82.086 178 78.9927 177.04 76.774 175.12C74.5553 173.157 73.446 169.979 73.446 165.584V151.376H69.094V142.288H73.446V133.584H84.39V142.288H91.558V151.376H84.39V165.712C84.39 166.779 84.646 167.547 85.158 168.016C85.67 168.485 86.5233 168.72 87.718 168.72H91.622Z" fill="#5046AA"/>
<path d="M132.982 142.288V178H122.038V173.136C120.929 174.715 119.414 175.995 117.494 176.976C115.617 177.915 113.526 178.384 111.222 178.384C108.491 178.384 106.081 177.787 103.99 176.592C101.899 175.355 100.278 173.584 99.126 171.28C97.974 168.976 97.398 166.267 97.398 163.152V142.288H108.278V161.68C108.278 164.069 108.897 165.925 110.134 167.248C111.371 168.571 113.035 169.232 115.126 169.232C117.259 169.232 118.945 168.571 120.182 167.248C121.419 165.925 122.038 164.069 122.038 161.68V142.288H132.982Z" fill="#5046AA"/>
<path d="M172.326 151.376H166.438V178H155.493V151.376H151.525V142.288H155.493V141.264C155.493 136.869 156.752 133.541 159.27 131.28C161.787 128.976 165.478 127.824 170.342 127.824C171.152 127.824 171.749 127.845 172.133 127.888V137.168C170.043 137.04 168.571 137.339 167.717 138.064C166.864 138.789 166.438 140.091 166.438 141.968V142.288H172.326V151.376Z" fill="#5046AA"/>
<path d="M175.292 160.08C175.292 156.411 175.975 153.189 177.34 150.416C178.748 147.643 180.647 145.509 183.036 144.016C185.425 142.523 188.092 141.776 191.036 141.776C193.553 141.776 195.751 142.288 197.628 143.312C199.548 144.336 201.02 145.68 202.044 147.344V142.288H212.988V178H202.044V172.944C200.977 174.608 199.484 175.952 197.564 176.976C195.687 178 193.489 178.512 190.972 178.512C188.071 178.512 185.425 177.765 183.036 176.272C180.647 174.736 178.748 172.581 177.34 169.808C175.975 166.992 175.292 163.749 175.292 160.08ZM202.044 160.144C202.044 157.413 201.276 155.259 199.74 153.68C198.247 152.101 196.412 151.312 194.236 151.312C192.06 151.312 190.204 152.101 188.668 153.68C187.175 155.216 186.428 157.349 186.428 160.08C186.428 162.811 187.175 164.987 188.668 166.608C190.204 168.187 192.06 168.976 194.236 168.976C196.412 168.976 198.247 168.187 199.74 166.608C201.276 165.029 202.044 162.875 202.044 160.144Z" fill="#5046AA"/>
<path d="M236.969 167.76L244.714 142.288H256.362L243.689 178H230.186L217.514 142.288H229.225L236.969 167.76Z" fill="#5046AA"/>
<path d="M277.224 178.512C273.725 178.512 270.568 177.765 267.752 176.272C264.979 174.779 262.781 172.645 261.16 169.872C259.581 167.099 258.792 163.856 258.792 160.144C258.792 156.475 259.603 153.253 261.224 150.48C262.845 147.664 265.064 145.509 267.88 144.016C270.696 142.523 273.853 141.776 277.352 141.776C280.851 141.776 284.008 142.523 286.824 144.016C289.64 145.509 291.859 147.664 293.48 150.48C295.101 153.253 295.912 156.475 295.912 160.144C295.912 163.813 295.08 167.056 293.416 169.872C291.795 172.645 289.555 174.779 286.696 176.272C283.88 177.765 280.723 178.512 277.224 178.512ZM277.224 169.04C279.315 169.04 281.085 168.272 282.536 166.736C284.029 165.2 284.776 163.003 284.776 160.144C284.776 157.285 284.051 155.088 282.6 153.552C281.192 152.016 279.443 151.248 277.352 151.248C275.219 151.248 273.448 152.016 272.04 153.552C270.632 155.045 269.928 157.243 269.928 160.144C269.928 163.003 270.611 165.2 271.976 166.736C273.384 168.272 275.133 169.04 277.224 169.04Z" fill="#5046AA"/>
<path d="M312.662 148.24C313.942 146.277 315.542 144.741 317.462 143.632C319.382 142.48 321.515 141.904 323.862 141.904V153.488H320.854C318.123 153.488 316.075 154.085 314.71 155.28C313.345 156.432 312.662 158.48 312.662 161.424V178H301.718V142.288H312.662V148.24Z" fill="#5046AA"/>
</svg>
