<svg width="140" height="60" viewBox="0 0 140 60" fill="none" xmlns="http://www.w3.org/2000/svg">
<g clip-path="url(#clip0)">
<path d="M72.1302 19.6579C74.2545 21.7902 75.4472 24.6774 75.4472 27.6871C75.4472 30.6968 74.2545 33.584 72.1302 35.7164C69.9606 37.8219 67.0562 38.9995 64.033 38.9995C61.0098 38.9995 58.1055 37.8219 55.936 35.7164C53.812 33.584 52.6194 30.6968 52.6194 27.6871C52.6194 24.6774 53.812 21.7902 55.936 19.6579C58.1021 17.5457 61.0076 16.3635 64.033 16.3635C67.0585 16.3635 69.9645 17.5457 72.1302 19.6579ZM68.9943 32.8409C69.6589 32.173 70.1808 31.377 70.5283 30.5013C70.8753 29.6255 71.0411 28.6883 71.0151 27.7465C71.0411 26.798 70.8758 25.854 70.5283 24.9709C70.1813 24.0878 69.6594 23.2838 68.9943 22.6069C68.3457 21.9509 67.573 21.4302 66.7211 21.0748C65.8698 20.7194 64.9562 20.5364 64.033 20.5364C63.1104 20.5364 62.1968 20.7194 61.3449 21.0748C60.4936 21.4302 59.7209 21.9509 59.0717 22.6069C58.4066 23.2838 57.8853 24.0878 57.5377 24.9709C57.1908 25.854 57.0249 26.798 57.051 27.7465C57.0249 28.6883 57.1908 29.6255 57.5383 30.5013C57.8859 31.377 58.4072 32.173 59.0717 32.8409C60.3928 34.1464 62.1759 34.8787 64.033 34.8787C65.8908 34.8787 67.6732 34.1464 68.9943 32.8409Z" fill="white"/>
<path d="M41.2757 19.6579C43.397 21.7917 44.5876 24.6783 44.5876 27.6871C44.5876 30.696 43.397 33.5825 41.2757 35.7164C39.1052 37.8223 36.1998 39.0001 33.1757 39.0001C30.1514 39.0001 27.2461 37.8223 25.0757 35.7164C22.9516 33.584 21.759 30.6969 21.759 27.6871C21.759 24.6774 22.9516 21.7903 25.0757 19.6579C27.2427 17.5453 30.1493 16.363 33.1757 16.363C36.202 16.363 39.1087 17.5453 41.2757 19.6579ZM38.1398 32.8409C38.8043 32.173 39.3261 31.3771 39.6735 30.5013C40.0208 29.6256 40.1866 28.6883 40.1606 27.7466C40.1865 26.7981 40.0209 25.854 39.6737 24.9709C39.3265 24.0879 38.8048 23.2839 38.1398 22.6069C37.4903 21.9508 36.7171 21.4299 35.8651 21.0745C35.013 20.719 34.0989 20.5359 33.1757 20.5359C32.2524 20.5359 31.3383 20.719 30.4862 21.0745C29.6341 21.4299 28.861 21.9508 28.2115 22.6069C27.5465 23.2839 27.0248 24.0879 26.6776 24.9709C26.3304 25.854 26.1648 26.7981 26.1908 27.7466C26.1647 28.6883 26.3305 29.6256 26.6778 30.5013C27.0252 31.3771 27.547 32.173 28.2115 32.8409C29.5337 34.1469 31.3173 34.8792 33.1757 34.8792C35.034 34.8792 36.8176 34.1469 38.1398 32.8409Z" fill="url(#paint0_linear)"/>
<path d="M19.5115 3.29939C21.6352 5.4308 22.8276 8.31696 22.8276 11.3258C22.8276 14.3346 21.6352 17.2208 19.5115 19.3522C17.341 21.4582 14.4357 22.6359 11.4115 22.6359C8.38726 22.6359 5.48196 21.4582 3.31148 19.3522C1.19054 17.2194 0 14.3337 0 11.3258C0 8.31787 1.19054 5.43225 3.31148 3.29939C5.47712 1.18417 8.38426 0 11.4115 0C14.4387 0 17.3458 1.18417 19.5115 3.29939ZM16.3756 16.4598C17.0395 15.7915 17.561 14.9955 17.9084 14.1198C18.2557 13.2442 18.4217 12.3071 18.3964 11.3654C18.4214 10.417 18.2553 9.47326 17.9082 8.5903C17.561 7.7074 17.0398 6.90328 16.3756 6.22579C15.7261 5.56966 14.953 5.04877 14.1009 4.69328C13.2488 4.3378 12.3348 4.15477 11.4115 4.15477C10.4882 4.15477 9.57413 4.3378 8.72208 4.69328C7.86996 5.04877 7.09681 5.56966 6.44734 6.22579C5.78309 6.90328 5.26194 7.7074 4.91479 8.5903C4.56764 9.47326 4.40162 10.417 4.42657 11.3654C4.40124 12.3071 4.56726 13.2442 4.9146 14.1198C5.26194 14.9955 5.78338 15.7915 6.44734 16.4598C7.76949 17.7657 9.55308 18.4981 11.4115 18.4981C13.2699 18.4981 15.0534 17.7657 16.3756 16.4598Z" fill="url(#paint1_linear)"/>
<path d="M88.9981 22.3748V25.8673H84.1132V38.5013H79.8622V25.8673H77.4056V22.3748H79.8622V20.9201C79.8215 20.0952 79.9568 19.2711 80.2579 18.5022C80.5596 17.7333 81.0209 17.0372 81.6113 16.4597C82.8758 15.3234 84.5377 14.7316 86.2358 14.8126C87.2275 14.804 88.209 15.0127 89.1113 15.4239L88.1434 18.8824C87.6226 18.7006 87.0764 18.6031 86.5245 18.5937C85.9013 18.5735 85.2939 18.7922 84.8264 19.205C84.6034 19.4263 84.429 19.6915 84.3141 19.9838C84.1992 20.2762 84.146 20.5893 84.1585 20.9031V22.3579L88.9981 22.3748Z" fill="white"/>
<path d="M106.172 31.5899H93.883C94.0466 32.6352 94.5526 33.5967 95.3207 34.3239C96.0243 34.9878 96.9577 35.353 97.9245 35.3428C98.7249 35.3955 99.5241 35.2237 100.232 34.8466C100.94 34.4697 101.529 33.9024 101.932 33.2088L105.747 34.0182C105.144 35.5514 104.07 36.8535 102.679 37.7371C101.245 38.5975 99.5966 39.035 97.9245 38.9994C96.832 39.0234 95.7458 38.8233 94.7332 38.4115C93.7211 37.9997 92.8036 37.3849 92.0377 36.605C90.4879 34.931 89.627 32.7336 89.627 30.4522C89.627 28.1708 90.4879 25.9735 92.0377 24.2994C92.8104 23.5135 93.7358 22.8946 94.7575 22.4808C95.7786 22.067 96.8739 21.8672 97.9754 21.8937C99.0254 21.8812 100.068 22.0791 101.039 22.4758C102.012 22.8724 102.894 23.4598 103.636 24.2031C104.425 24.9776 105.052 25.9005 105.483 26.9186C105.913 27.9367 106.138 29.0299 106.143 30.1352L106.172 31.5899ZM95.5132 26.3881C94.7519 26.9022 94.2153 27.6878 94.0132 28.5843H101.802C101.611 27.6947 101.107 26.9033 100.381 26.3541C99.6849 25.8524 98.8449 25.5902 97.9868 25.6069C97.102 25.6073 96.2383 25.88 95.5132 26.3881Z" fill="white"/>
<path d="M120.617 22.2787V26.3881H119.428C115.591 26.3881 113.672 28.6938 113.672 33.3051V38.5013H109.404V22.3749H113.672V25.3183C114.285 24.3381 115.139 23.5319 116.153 22.9768C117.167 22.4218 118.306 22.1365 119.462 22.1484C119.852 22.1331 120.241 22.177 120.617 22.2787Z" fill="white"/>
<path d="M139.347 38.5013H135.079V37.239C133.562 38.43 131.675 39.0491 129.747 38.9881C128.702 38.9928 127.667 38.7793 126.709 38.3611C125.751 37.943 124.891 37.3295 124.183 36.5598C122.659 34.8866 121.814 32.7045 121.814 30.441C121.814 28.1773 122.659 25.9952 124.183 24.3221C124.887 23.5514 125.744 22.9362 126.699 22.5161C127.654 22.096 128.687 21.8801 129.73 21.8825C131.664 21.8124 133.558 22.4436 135.062 23.6598V22.3635H139.33L139.347 38.5013ZM133.687 33.9277C134.581 32.9871 135.08 31.7388 135.08 30.441C135.08 29.143 134.581 27.8947 133.687 26.9541C133.272 26.5252 132.775 26.184 132.226 25.9507C131.676 25.7173 131.086 25.5966 130.489 25.5957C129.884 25.5779 129.283 25.6871 128.723 25.9162C128.163 26.1453 127.659 26.4893 127.24 26.9258C126.413 27.9107 125.96 29.1553 125.96 30.441C125.96 31.7266 126.413 32.9712 127.24 33.956C127.661 34.3881 128.167 34.728 128.727 34.954C129.286 35.1801 129.886 35.2874 130.489 35.2693C131.084 35.2716 131.673 35.1552 132.222 34.9268C132.772 34.6984 133.269 34.3626 133.687 33.939V33.9277Z" fill="white"/>
<path d="M70.0754 59.6881C69.4652 59.5313 68.8896 59.2625 68.3773 58.8957L69.1188 57.2485C69.5575 57.566 70.0449 57.8089 70.5622 57.9674C71.1017 58.144 71.6649 58.2334 72.232 58.2334C72.7064 58.2657 73.1813 58.1717 73.6075 57.9617C73.7417 57.891 73.8543 57.7851 73.933 57.6555C74.0117 57.5259 74.0541 57.3776 74.0547 57.2259C74.0586 57.1177 74.0366 57.0102 73.9913 56.9123C73.9466 56.8138 73.8786 56.7272 73.7943 56.6598C73.5956 56.4945 73.3641 56.373 73.1151 56.3032C72.8434 56.2126 72.4698 56.1107 71.983 56.0032C71.392 55.8657 70.8096 55.6918 70.2396 55.4824C69.7834 55.3145 69.3775 55.0318 69.0622 54.6617C68.7181 54.2355 68.5426 53.6975 68.5698 53.1503C68.563 52.6201 68.7192 52.1004 69.0169 51.6617C69.3498 51.1841 69.8168 50.8159 70.3585 50.6032C71.053 50.3196 71.7996 50.1846 72.549 50.2069C73.1451 50.2056 73.7383 50.2798 74.315 50.4277C74.8483 50.5528 75.3583 50.761 75.8264 51.0447L75.1528 52.7032C74.3609 52.232 73.4592 51.9764 72.5377 51.9617C72.0656 51.929 71.5941 52.0331 71.1792 52.2617C71.0456 52.3434 70.9352 52.4582 70.8588 52.595C70.7824 52.7319 70.7428 52.8861 70.7434 53.0428C70.7439 53.2005 70.792 53.3543 70.882 53.4837C70.972 53.6131 71.0994 53.7121 71.2471 53.7673C71.7464 53.9713 72.2637 54.1267 72.7924 54.2315C73.3907 54.3661 73.9805 54.5362 74.5584 54.7409C75.013 54.9108 75.4188 55.1886 75.7415 55.5503C76.0867 55.9715 76.2628 56.5064 76.2339 57.0504C76.2367 57.5774 76.0783 58.0925 75.7811 58.5277C75.4415 59.0055 74.9694 59.3734 74.4226 59.5862C73.7247 59.8642 72.9775 59.9972 72.2264 59.9768C71.4996 59.9796 70.7762 59.8823 70.0754 59.6881Z" fill="white"/>
<path d="M93.1585 50.3881V59.8353H90.9736V55.9635H86.683V59.8353H84.4924V50.3881H86.683V54.1126H90.9736V50.3881H93.1585Z" fill="white"/>
<path d="M104.066 59.3542C103.301 58.9545 102.66 58.3511 102.215 57.6108C101.778 56.8483 101.548 55.9849 101.548 55.106C101.548 54.2271 101.778 53.3635 102.215 52.6013C102.662 51.8606 103.301 51.2558 104.066 50.8522C104.887 50.4355 105.795 50.2184 106.715 50.2184C107.636 50.2184 108.543 50.4355 109.364 50.8522C110.126 51.2576 110.764 51.8621 111.209 52.6013C111.55 53.1611 111.773 53.7845 111.864 54.4334C111.956 55.0823 111.914 55.743 111.741 56.3751C111.568 57.0074 111.269 57.5972 110.86 58.1094C110.451 58.6217 109.942 59.0451 109.364 59.3542C108.543 59.7708 107.636 59.9881 106.715 59.9881C105.795 59.9881 104.887 59.7708 104.066 59.3542ZM108.226 57.7409C108.678 57.493 109.048 57.1217 109.296 56.6711C109.548 56.1876 109.678 55.6508 109.678 55.106C109.678 54.5612 109.548 54.0244 109.296 53.5409C109.05 53.0911 108.684 52.7187 108.238 52.4654C107.777 52.2062 107.256 52.0733 106.726 52.0805C106.198 52.0747 105.677 52.2074 105.215 52.4654C104.771 52.7215 104.406 53.0932 104.157 53.5409C103.906 54.0244 103.775 54.5612 103.775 55.106C103.775 55.6508 103.906 56.1876 104.157 56.6711C104.405 57.1183 104.771 57.4879 105.215 57.7409C105.679 57.9934 106.198 58.1258 106.726 58.1258C107.255 58.1258 107.774 57.9934 108.238 57.7409H108.226Z" fill="white"/>
<path d="M126.543 50.8013C127.134 51.0462 127.635 51.4662 127.979 52.0046C128.323 52.5431 128.494 53.1741 128.468 53.8126C128.483 54.4521 128.31 55.0821 127.97 55.6239C127.623 56.1529 127.126 56.5667 126.543 56.8126C125.854 57.1013 125.112 57.2422 124.364 57.2258H122.462V59.8296H120.277V50.388H124.364C125.112 50.3691 125.855 50.51 126.543 50.8013ZM125.745 55.0182C125.917 54.8696 126.052 54.6837 126.14 54.4747C126.229 54.2656 126.268 54.0391 126.255 53.8126C126.269 53.5834 126.231 53.354 126.143 53.142C126.054 52.93 125.918 52.7411 125.745 52.5899C125.31 52.2788 124.78 52.1288 124.245 52.1654H122.462V55.4428H124.245C124.78 55.4794 125.31 55.3293 125.745 55.0182Z" fill="white"/>
</g>
<defs>
<linearGradient id="paint0_linear" x1="3.63981" y1="2.67111" x2="41.904" y2="35.0768" gradientUnits="userSpaceOnUse">
<stop stop-color="#5ABEFF"/>
<stop offset="1" stop-color="#78D76E"/>
</linearGradient>
<linearGradient id="paint1_linear" x1="10307.6" y1="7488.62" x2="11839.8" y2="8797.3" gradientUnits="userSpaceOnUse">
<stop stop-color="#5ABEFF"/>
<stop offset="1" stop-color="#78D76E"/>
</linearGradient>
<clipPath id="clip0">
<rect width="139.811" height="60" fill="white"/>
</clipPath>
</defs>
</svg>
